<svg width="253" height="187" viewBox="0 0 253 187" fill="none" xmlns="http://www.w3.org/2000/svg">
<g filter="url(#filter0_b_35_23752)">
<rect width="253" height="187" rx="20" fill="url(#paint0_linear_35_23752)" fill-opacity="0.7"/>
<path d="M62.5534 36.224C61.6894 36.224 60.9267 36.0693 60.2654 35.76C59.604 35.4507 59.0867 35.008 58.7134 34.432C58.34 33.856 58.1534 33.1627 58.1534 32.352V31.904H60.2334V32.352C60.2334 33.024 60.4414 33.5307 60.8574 33.872C61.2734 34.2027 61.8387 34.368 62.5534 34.368C63.2787 34.368 63.8174 34.224 64.1694 33.936C64.532 33.648 64.7134 33.28 64.7134 32.832C64.7134 32.5227 64.6227 32.272 64.4414 32.08C64.2707 31.888 64.0147 31.7333 63.6734 31.616C63.3427 31.488 62.9374 31.3707 62.4574 31.264L62.0894 31.184C61.3214 31.0133 60.66 30.8 60.1054 30.544C59.5614 30.2773 59.14 29.9307 58.8414 29.504C58.5534 29.0773 58.4094 28.5227 58.4094 27.84C58.4094 27.1573 58.5694 26.576 58.8894 26.096C59.22 25.6053 59.6787 25.232 60.2654 24.976C60.8627 24.7093 61.5614 24.576 62.3614 24.576C63.1614 24.576 63.8707 24.7147 64.4894 24.992C65.1187 25.2587 65.6094 25.664 65.9614 26.208C66.324 26.7413 66.5054 27.4133 66.5054 28.224V28.704H64.4254V28.224C64.4254 27.7973 64.34 27.456 64.1694 27.2C64.0094 26.9333 63.7747 26.7413 63.4654 26.624C63.156 26.496 62.788 26.432 62.3614 26.432C61.7214 26.432 61.2467 26.5547 60.9374 26.8C60.6387 27.0347 60.4894 27.36 60.4894 27.776C60.4894 28.0533 60.5587 28.288 60.6974 28.48C60.8467 28.672 61.0654 28.832 61.3534 28.96C61.6414 29.088 62.0094 29.2 62.4574 29.296L62.8254 29.376C63.6254 29.5467 64.3187 29.7653 64.9054 30.032C65.5027 30.2987 65.9667 30.6507 66.2974 31.088C66.628 31.5253 66.7934 32.0853 66.7934 32.768C66.7934 33.4507 66.6174 34.0533 66.2654 34.576C65.924 35.088 65.4334 35.4933 64.7934 35.792C64.164 36.08 63.4174 36.224 62.5534 36.224ZM72.1605 36.224C71.3925 36.224 70.6938 36.064 70.0645 35.744C69.4458 35.424 68.9552 34.96 68.5925 34.352C68.2298 33.744 68.0485 33.008 68.0485 32.144V31.92C68.0485 31.056 68.2298 30.32 68.5925 29.712C68.9552 29.104 69.4458 28.64 70.0645 28.32C70.6938 28 71.3925 27.84 72.1605 27.84C72.9178 27.84 73.5685 27.9733 74.1125 28.24C74.6565 28.5067 75.0938 28.8747 75.4245 29.344C75.7658 29.8027 75.9898 30.3253 76.0965 30.912L74.1445 31.328C74.1018 31.008 74.0058 30.72 73.8565 30.464C73.7072 30.208 73.4938 30.0053 73.2165 29.856C72.9498 29.7067 72.6138 29.632 72.2085 29.632C71.8032 29.632 71.4352 29.7227 71.1045 29.904C70.7845 30.0747 70.5285 30.336 70.3365 30.688C70.1552 31.0293 70.0645 31.4507 70.0645 31.952V32.112C70.0645 32.6133 70.1552 33.04 70.3365 33.392C70.5285 33.7333 70.7845 33.9947 71.1045 34.176C71.4352 34.3467 71.8032 34.432 72.2085 34.432C72.8165 34.432 73.2752 34.2773 73.5845 33.968C73.9045 33.648 74.1072 33.232 74.1925 32.72L76.1445 33.184C76.0058 33.7493 75.7658 34.2667 75.4245 34.736C75.0938 35.1947 74.6565 35.5573 74.1125 35.824C73.5685 36.0907 72.9178 36.224 72.1605 36.224ZM80.2715 36.224C79.7062 36.224 79.1995 36.128 78.7515 35.936C78.3035 35.7333 77.9462 35.4453 77.6795 35.072C77.4235 34.688 77.2955 34.224 77.2955 33.68C77.2955 33.136 77.4235 32.6827 77.6795 32.32C77.9462 31.9467 78.3088 31.6693 78.7675 31.488C79.2368 31.296 79.7702 31.2 80.3675 31.2H82.5435V30.752C82.5435 30.3787 82.4262 30.0747 82.1915 29.84C81.9568 29.5947 81.5835 29.472 81.0715 29.472C80.5702 29.472 80.1968 29.5893 79.9515 29.824C79.7062 30.048 79.5462 30.3413 79.4715 30.704L77.6155 30.08C77.7435 29.6747 77.9462 29.3067 78.2235 28.976C78.5115 28.6347 78.8902 28.3627 79.3595 28.16C79.8395 27.9467 80.4208 27.84 81.1035 27.84C82.1488 27.84 82.9755 28.1013 83.5835 28.624C84.1915 29.1467 84.4955 29.904 84.4955 30.896V33.856C84.4955 34.176 84.6448 34.336 84.9435 34.336H85.5835V36H84.2395C83.8448 36 83.5195 35.904 83.2635 35.712C83.0075 35.52 82.8795 35.264 82.8795 34.944V34.928H82.5755C82.5328 35.056 82.4368 35.2267 82.2875 35.44C82.1382 35.6427 81.9035 35.824 81.5835 35.984C81.2635 36.144 80.8262 36.224 80.2715 36.224ZM80.6235 34.592C81.1888 34.592 81.6475 34.4373 81.9995 34.128C82.3622 33.808 82.5435 33.3867 82.5435 32.864V32.704H80.5115C80.1382 32.704 79.8448 32.784 79.6315 32.944C79.4182 33.104 79.3115 33.328 79.3115 33.616C79.3115 33.904 79.4235 34.1387 79.6475 34.32C79.8715 34.5013 80.1968 34.592 80.6235 34.592ZM87.0575 36V24.8H89.0735V36H87.0575ZM94.9235 36.224C94.1342 36.224 93.4355 36.0587 92.8275 35.728C92.2302 35.3867 91.7608 34.912 91.4195 34.304C91.0888 33.6853 90.9235 32.96 90.9235 32.128V31.936C90.9235 31.104 91.0888 30.384 91.4195 29.776C91.7502 29.1573 92.2142 28.6827 92.8115 28.352C93.4088 28.0107 94.1022 27.84 94.8915 27.84C95.6702 27.84 96.3475 28.016 96.9235 28.368C97.4995 28.7093 97.9475 29.1893 98.2675 29.808C98.5875 30.416 98.7475 31.1253 98.7475 31.936V32.624H92.9715C92.9928 33.168 93.1955 33.6107 93.5795 33.952C93.9635 34.2933 94.4328 34.464 94.9875 34.464C95.5528 34.464 95.9688 34.3413 96.2355 34.096C96.5022 33.8507 96.7048 33.5787 96.8435 33.28L98.4915 34.144C98.3422 34.4213 98.1235 34.7253 97.8355 35.056C97.5582 35.376 97.1848 35.6533 96.7155 35.888C96.2462 36.112 95.6488 36.224 94.9235 36.224ZM92.9875 31.12H96.6995C96.6568 30.6613 96.4702 30.2933 96.1395 30.016C95.8195 29.7387 95.3982 29.6 94.8755 29.6C94.3315 29.6 93.8995 29.7387 93.5795 30.016C93.2595 30.2933 93.0622 30.6613 92.9875 31.12ZM107.264 36V32.144L103.456 24.8H105.808L108.176 29.6H108.464L110.832 24.8H113.184L109.376 32.144V36H107.264ZM116.802 36.224C116.013 36.224 115.304 36.064 114.674 35.744C114.045 35.424 113.549 34.96 113.186 34.352C112.824 33.744 112.642 33.0133 112.642 32.16V31.904C112.642 31.0507 112.824 30.32 113.186 29.712C113.549 29.104 114.045 28.64 114.674 28.32C115.304 28 116.013 27.84 116.802 27.84C117.592 27.84 118.301 28 118.93 28.32C119.56 28.64 120.056 29.104 120.418 29.712C120.781 30.32 120.962 31.0507 120.962 31.904V32.16C120.962 33.0133 120.781 33.744 120.418 34.352C120.056 34.96 119.56 35.424 118.93 35.744C118.301 36.064 117.592 36.224 116.802 36.224ZM116.802 34.432C117.421 34.432 117.933 34.2347 118.338 33.84C118.744 33.4347 118.946 32.8587 118.946 32.112V31.952C118.946 31.2053 118.744 30.6347 118.338 30.24C117.944 29.8347 117.432 29.632 116.802 29.632C116.184 29.632 115.672 29.8347 115.266 30.24C114.861 30.6347 114.658 31.2053 114.658 31.952V32.112C114.658 32.8587 114.861 33.4347 115.266 33.84C115.672 34.2347 116.184 34.432 116.802 34.432ZM125.847 36.128C125.228 36.128 124.684 35.9893 124.215 35.712C123.756 35.424 123.399 35.0293 123.143 34.528C122.887 34.0267 122.759 33.4507 122.759 32.8V28.064H124.775V32.64C124.775 33.2373 124.919 33.6853 125.207 33.984C125.506 34.2827 125.927 34.432 126.471 34.432C127.09 34.432 127.57 34.2293 127.911 33.824C128.252 33.408 128.423 32.832 128.423 32.096V28.064H130.439V36H128.455V34.96H128.167C128.039 35.2267 127.799 35.488 127.447 35.744C127.095 36 126.562 36.128 125.847 36.128ZM132.683 36V28.064H134.667V28.96H134.955C135.072 28.64 135.264 28.4053 135.531 28.256C135.808 28.1067 136.128 28.032 136.491 28.032H137.451V29.824H136.459C135.947 29.824 135.525 29.9627 135.195 30.24C134.864 30.5067 134.699 30.9227 134.699 31.488V36H132.683ZM147.281 36.224C145.894 36.224 144.795 35.84 143.985 35.072C143.174 34.2933 142.769 33.184 142.769 31.744V29.056C142.769 27.616 143.174 26.512 143.985 25.744C144.795 24.9653 145.894 24.576 147.281 24.576C148.657 24.576 149.718 24.9547 150.465 25.712C151.222 26.4587 151.601 27.488 151.601 28.8V28.896H149.521V28.736C149.521 28.0747 149.334 27.5307 148.961 27.104C148.598 26.6773 148.038 26.464 147.281 26.464C146.534 26.464 145.947 26.6933 145.521 27.152C145.094 27.6107 144.881 28.2347 144.881 29.024V31.776C144.881 32.5547 145.094 33.1787 145.521 33.648C145.947 34.1067 146.534 34.336 147.281 34.336C148.038 34.336 148.598 34.1227 148.961 33.696C149.334 33.2587 149.521 32.7147 149.521 32.064V31.776H151.601V32C151.601 33.312 151.222 34.3467 150.465 35.104C149.718 35.8507 148.657 36.224 147.281 36.224ZM155.85 36.224C155.284 36.224 154.778 36.128 154.33 35.936C153.882 35.7333 153.524 35.4453 153.258 35.072C153.002 34.688 152.874 34.224 152.874 33.68C152.874 33.136 153.002 32.6827 153.258 32.32C153.524 31.9467 153.887 31.6693 154.346 31.488C154.815 31.296 155.348 31.2 155.946 31.2H158.122V30.752C158.122 30.3787 158.004 30.0747 157.77 29.84C157.535 29.5947 157.162 29.472 156.65 29.472C156.148 29.472 155.775 29.5893 155.53 29.824C155.284 30.048 155.124 30.3413 155.05 30.704L153.194 30.08C153.322 29.6747 153.524 29.3067 153.802 28.976C154.09 28.6347 154.468 28.3627 154.938 28.16C155.418 27.9467 155.999 27.84 156.682 27.84C157.727 27.84 158.554 28.1013 159.162 28.624C159.77 29.1467 160.074 29.904 160.074 30.896V33.856C160.074 34.176 160.223 34.336 160.522 34.336H161.162V36H159.818C159.423 36 159.098 35.904 158.842 35.712C158.586 35.52 158.458 35.264 158.458 34.944V34.928H158.154C158.111 35.056 158.015 35.2267 157.866 35.44C157.716 35.6427 157.482 35.824 157.162 35.984C156.842 36.144 156.404 36.224 155.85 36.224ZM156.202 34.592C156.767 34.592 157.226 34.4373 157.578 34.128C157.94 33.808 158.122 33.3867 158.122 32.864V32.704H156.09C155.716 32.704 155.423 32.784 155.21 32.944C154.996 33.104 154.89 33.328 154.89 33.616C154.89 33.904 155.002 34.1387 155.226 34.32C155.45 34.5013 155.775 34.592 156.202 34.592ZM162.636 36V28.064H164.62V28.96H164.908C165.025 28.64 165.217 28.4053 165.484 28.256C165.761 28.1067 166.081 28.032 166.444 28.032H167.404V29.824H166.412C165.9 29.824 165.478 29.9627 165.148 30.24C164.817 30.5067 164.652 30.9227 164.652 31.488V36H162.636ZM172.314 36.224C171.525 36.224 170.826 36.0587 170.218 35.728C169.621 35.3867 169.151 34.912 168.81 34.304C168.479 33.6853 168.314 32.96 168.314 32.128V31.936C168.314 31.104 168.479 30.384 168.81 29.776C169.141 29.1573 169.605 28.6827 170.202 28.352C170.799 28.0107 171.493 27.84 172.282 27.84C173.061 27.84 173.738 28.016 174.314 28.368C174.89 28.7093 175.338 29.1893 175.658 29.808C175.978 30.416 176.138 31.1253 176.138 31.936V32.624H170.362C170.383 33.168 170.586 33.6107 170.97 33.952C171.354 34.2933 171.823 34.464 172.378 34.464C172.943 34.464 173.359 34.3413 173.626 34.096C173.893 33.8507 174.095 33.5787 174.234 33.28L175.882 34.144C175.733 34.4213 175.514 34.7253 175.226 35.056C174.949 35.376 174.575 35.6533 174.106 35.888C173.637 36.112 173.039 36.224 172.314 36.224ZM170.378 31.12H174.09C174.047 30.6613 173.861 30.2933 173.53 30.016C173.21 29.7387 172.789 29.6 172.266 29.6C171.722 29.6 171.29 29.7387 170.97 30.016C170.65 30.2933 170.453 30.6613 170.378 31.12ZM181.549 36.224C180.759 36.224 180.061 36.0587 179.453 35.728C178.855 35.3867 178.386 34.912 178.045 34.304C177.714 33.6853 177.549 32.96 177.549 32.128V31.936C177.549 31.104 177.714 30.384 178.045 29.776C178.375 29.1573 178.839 28.6827 179.437 28.352C180.034 28.0107 180.727 27.84 181.516 27.84C182.295 27.84 182.973 28.016 183.549 28.368C184.125 28.7093 184.573 29.1893 184.892 29.808C185.213 30.416 185.373 31.1253 185.373 31.936V32.624H179.597C179.618 33.168 179.821 33.6107 180.205 33.952C180.589 34.2933 181.058 34.464 181.613 34.464C182.178 34.464 182.594 34.3413 182.861 34.096C183.127 33.8507 183.33 33.5787 183.469 33.28L185.117 34.144C184.967 34.4213 184.749 34.7253 184.461 35.056C184.183 35.376 183.81 35.6533 183.341 35.888C182.871 36.112 182.274 36.224 181.549 36.224ZM179.613 31.12H183.325C183.282 30.6613 183.095 30.2933 182.765 30.016C182.445 29.7387 182.023 29.6 181.501 29.6C180.957 29.6 180.525 29.7387 180.205 30.016C179.885 30.2933 179.687 30.6613 179.613 31.12ZM187.167 36V28.064H189.151V28.96H189.439C189.556 28.64 189.748 28.4053 190.015 28.256C190.292 28.1067 190.612 28.032 190.975 28.032H191.935V29.824H190.943C190.431 29.824 190.01 29.9627 189.679 30.24C189.348 30.5067 189.183 30.9227 189.183 31.488V36H187.167Z" fill="white"/>
<path d="M17 62.4077C20.7962 62.4077 23.073 61.4904 26.7207 62.4077C33.0933 64.0103 32.6016 70.6734 38.7287 72.8882C44.3029 74.9032 48.3287 72.0609 54.1676 73.3873C67.3128 76.3733 66.0392 91.8902 79.3271 94.3483C84.57 95.3181 87.8512 93.2138 93.0505 94.3483C104.08 96.7548 102.761 115.209 113.636 112.315C118.78 110.946 118.884 105.957 123.928 104.33C136.373 100.315 135.656 127.638 148.516 124.792C156.017 123.131 155.459 114.922 162.811 112.814C168.115 111.293 171.572 113.451 177.106 112.814C202.469 109.896 198.491 74.635 223.995 72.8882C227.111 72.6747 232 72.8882 232 72.8882" stroke="url(#paint1_linear_35_23752)" stroke-opacity="0.2"/>
<g filter="url(#filter1_d_35_23752)">
<path d="M93 94.0575C104.022 96.4869 102.704 115.116 113.571 112.194C118.712 110.813 118.816 105.776 123.857 104.134C136.294 100.081 135.577 127.663 148.429 124.79C155.925 123.113 155.367 114.827 162.714 112.698C168.014 111.163 171.469 113.341 177 112.698C190.164 111.168 195.419 100.831 201 91" stroke="url(#paint2_linear_35_23752)" stroke-width="2" stroke-linecap="round"/>
</g>
<path d="M23.63 160.14C22.9433 160.14 22.4 159.947 22 159.56C21.6067 159.173 21.41 158.62 21.41 157.9V157.36H22.24V157.9C22.24 158.333 22.3533 158.687 22.58 158.96C22.8133 159.233 23.16 159.37 23.62 159.37C24.0867 159.37 24.4167 159.237 24.61 158.97C24.8033 158.697 24.9 158.34 24.9 157.9V153.76H23.67V153H26.5V153.76H25.74V157.9C25.74 158.627 25.56 159.183 25.2 159.57C24.84 159.95 24.3167 160.14 23.63 160.14ZM29.0038 160.14C28.6638 160.14 28.3538 160.08 28.0738 159.96C27.7938 159.84 27.5738 159.667 27.4138 159.44C27.2538 159.213 27.1738 158.937 27.1738 158.61C27.1738 158.277 27.2538 158.003 27.4138 157.79C27.5738 157.57 27.7938 157.407 28.0738 157.3C28.3538 157.187 28.6672 157.13 29.0138 157.13H30.6638V156.77C30.6638 156.423 30.5605 156.15 30.3538 155.95C30.1538 155.75 29.8538 155.65 29.4538 155.65C29.0605 155.65 28.7538 155.747 28.5338 155.94C28.3138 156.127 28.1638 156.38 28.0838 156.7L27.3438 156.46C27.4238 156.187 27.5505 155.94 27.7238 155.72C27.8972 155.493 28.1272 155.313 28.4138 155.18C28.7072 155.04 29.0572 154.97 29.4638 154.97C30.0905 154.97 30.5772 155.133 30.9238 155.46C31.2705 155.78 31.4438 156.233 31.4438 156.82V159.03C31.4438 159.23 31.5372 159.33 31.7238 159.33H32.1738V160H31.4838C31.2638 160 31.0872 159.94 30.9538 159.82C30.8205 159.693 30.7538 159.527 30.7538 159.32V159.27H30.6338C30.5605 159.397 30.4605 159.53 30.3338 159.67C30.2138 159.803 30.0472 159.913 29.8338 160C29.6205 160.093 29.3438 160.14 29.0038 160.14ZM29.0938 159.46C29.5605 159.46 29.9372 159.323 30.2238 159.05C30.5172 158.77 30.6638 158.38 30.6638 157.88V157.77H29.0438C28.7305 157.77 28.4705 157.84 28.2638 157.98C28.0638 158.113 27.9638 158.317 27.9638 158.59C27.9638 158.863 28.0672 159.077 28.2738 159.23C28.4872 159.383 28.7605 159.46 29.0938 159.46ZM33.2558 160V155.11H34.0258V155.94H34.1658C34.2724 155.707 34.4524 155.497 34.7058 155.31C34.9658 155.117 35.3458 155.02 35.8458 155.02C36.2124 155.02 36.5391 155.097 36.8258 155.25C37.1191 155.403 37.3524 155.63 37.5258 155.93C37.6991 156.23 37.7858 156.6 37.7858 157.04V160H36.9958V157.1C36.9958 156.613 36.8724 156.26 36.6258 156.04C36.3858 155.82 36.0591 155.71 35.6458 155.71C35.1724 155.71 34.7858 155.863 34.4858 156.17C34.1924 156.477 34.0458 156.933 34.0458 157.54V160H33.2558Z" fill="white"/>
<path d="M54.8 160V153H59.03V153.76H55.64V156.11H58.76V156.87H55.64V160H54.8ZM62.4118 160.14C61.9185 160.14 61.4851 160.037 61.1118 159.83C60.7385 159.617 60.4485 159.32 60.2418 158.94C60.0351 158.56 59.9318 158.12 59.9318 157.62V157.5C59.9318 156.993 60.0351 156.55 60.2418 156.17C60.4485 155.79 60.7351 155.497 61.1018 155.29C61.4685 155.077 61.8885 154.97 62.3618 154.97C62.8218 154.97 63.2285 155.07 63.5818 155.27C63.9351 155.463 64.2118 155.743 64.4118 156.11C64.6118 156.477 64.7118 156.907 64.7118 157.4V157.76H60.7218C60.7418 158.287 60.9118 158.7 61.2318 159C61.5518 159.293 61.9518 159.44 62.4318 159.44C62.8518 159.44 63.1751 159.343 63.4018 159.15C63.6285 158.957 63.8018 158.727 63.9218 158.46L64.6018 158.79C64.5018 158.997 64.3618 159.203 64.1818 159.41C64.0085 159.617 63.7785 159.79 63.4918 159.93C63.2118 160.07 62.8518 160.14 62.4118 160.14ZM60.7318 157.11H63.9118C63.8851 156.657 63.7285 156.303 63.4418 156.05C63.1618 155.797 62.8018 155.67 62.3618 155.67C61.9151 155.67 61.5485 155.797 61.2618 156.05C60.9751 156.303 60.7985 156.657 60.7318 157.11ZM68.7998 160.14C68.2931 160.14 67.8964 160.043 67.6098 159.85C67.3298 159.657 67.1264 159.437 66.9998 159.19H66.8598V160H66.0898V153H66.8798V155.88H67.0198C67.0998 155.727 67.2131 155.583 67.3598 155.45C67.5064 155.31 67.6964 155.197 67.9298 155.11C68.1698 155.017 68.4598 154.97 68.7998 154.97C69.2264 154.97 69.6131 155.073 69.9598 155.28C70.3131 155.48 70.5931 155.77 70.7998 156.15C71.0064 156.523 71.1098 156.97 71.1098 157.49V157.62C71.1098 158.14 71.0031 158.59 70.7898 158.97C70.5831 159.35 70.3031 159.64 69.9498 159.84C69.6031 160.04 69.2198 160.14 68.7998 160.14ZM68.5898 159.44C69.0964 159.44 69.5064 159.28 69.8198 158.96C70.1398 158.633 70.2998 158.18 70.2998 157.6V157.51C70.2998 156.93 70.1398 156.48 69.8198 156.16C69.5064 155.833 69.0964 155.67 68.5898 155.67C68.0898 155.67 67.6764 155.833 67.3498 156.16C67.0298 156.48 66.8698 156.93 66.8698 157.51V157.6C66.8698 158.18 67.0298 158.633 67.3498 158.96C67.6764 159.28 68.0898 159.44 68.5898 159.44Z" fill="white"/>
<rect x="83" y="146" width="27" height="21" rx="5" fill="#6F3CD3"/>
<path d="M87.8 160V153H89.4L91.26 159.47H91.39L93.25 153H94.85V160H94.04V153.55H93.9L92.05 160H90.6L88.75 153.55H88.61V160H87.8ZM97.9823 160.14C97.6423 160.14 97.3323 160.08 97.0523 159.96C96.7723 159.84 96.5523 159.667 96.3923 159.44C96.2323 159.213 96.1523 158.937 96.1523 158.61C96.1523 158.277 96.2323 158.003 96.3923 157.79C96.5523 157.57 96.7723 157.407 97.0523 157.3C97.3323 157.187 97.6457 157.13 97.9923 157.13H99.6423V156.77C99.6423 156.423 99.539 156.15 99.3323 155.95C99.1323 155.75 98.8323 155.65 98.4323 155.65C98.039 155.65 97.7323 155.747 97.5123 155.94C97.2923 156.127 97.1423 156.38 97.0623 156.7L96.3223 156.46C96.4023 156.187 96.529 155.94 96.7023 155.72C96.8757 155.493 97.1057 155.313 97.3923 155.18C97.6857 155.04 98.0357 154.97 98.4423 154.97C99.069 154.97 99.5557 155.133 99.9023 155.46C100.249 155.78 100.422 156.233 100.422 156.82V159.03C100.422 159.23 100.516 159.33 100.702 159.33H101.152V160H100.462C100.242 160 100.066 159.94 99.9323 159.82C99.799 159.693 99.7323 159.527 99.7323 159.32V159.27H99.6123C99.539 159.397 99.439 159.53 99.3123 159.67C99.1923 159.803 99.0257 159.913 98.8123 160C98.599 160.093 98.3223 160.14 97.9823 160.14ZM98.0723 159.46C98.539 159.46 98.9157 159.323 99.2023 159.05C99.4957 158.77 99.6423 158.38 99.6423 157.88V157.77H98.0223C97.709 157.77 97.449 157.84 97.2423 157.98C97.0423 158.113 96.9423 158.317 96.9423 158.59C96.9423 158.863 97.0457 159.077 97.2523 159.23C97.4657 159.383 97.739 159.46 98.0723 159.46ZM102.234 160V155.11H103.004V155.71H103.144C103.231 155.497 103.364 155.34 103.544 155.24C103.724 155.14 103.961 155.09 104.254 155.09H104.834V155.81H104.204C103.851 155.81 103.564 155.91 103.344 156.11C103.131 156.303 103.024 156.607 103.024 157.02V160H102.234Z" fill="white"/>
<path d="M121.25 160L123.41 153H124.89L127.05 160H126.18L125.64 158.23H122.66L122.12 160H121.25ZM122.87 157.47H125.42L124.22 153.51H124.08L122.87 157.47ZM128.129 162V155.11H128.899V155.92H129.039C129.165 155.673 129.369 155.453 129.649 155.26C129.935 155.067 130.332 154.97 130.839 154.97C131.259 154.97 131.642 155.073 131.989 155.28C132.342 155.48 132.622 155.767 132.829 156.14C133.042 156.513 133.149 156.963 133.149 157.49V157.62C133.149 158.14 133.045 158.59 132.839 158.97C132.632 159.35 132.352 159.64 131.999 159.84C131.652 160.04 131.265 160.14 130.839 160.14C130.499 160.14 130.209 160.093 129.969 160C129.735 159.913 129.545 159.8 129.399 159.66C129.252 159.52 129.139 159.377 129.059 159.23H128.919V162H128.129ZM130.629 159.44C131.135 159.44 131.545 159.28 131.859 158.96C132.179 158.633 132.339 158.18 132.339 157.6V157.51C132.339 156.93 132.179 156.48 131.859 156.16C131.545 155.833 131.135 155.67 130.629 155.67C130.129 155.67 129.715 155.833 129.389 156.16C129.069 156.48 128.909 156.93 128.909 157.51V157.6C128.909 158.18 129.069 158.633 129.389 158.96C129.715 159.28 130.129 159.44 130.629 159.44ZM134.564 160V155.11H135.334V155.71H135.474C135.561 155.497 135.694 155.34 135.874 155.24C136.054 155.14 136.291 155.09 136.584 155.09H137.164V155.81H136.534C136.181 155.81 135.894 155.91 135.674 156.11C135.461 156.303 135.354 156.607 135.354 157.02V160H134.564Z" fill="white"/>
<path d="M153.8 160V153H155.4L157.26 159.47H157.39L159.25 153H160.85V160H160.04V153.55H159.9L158.05 160H156.6L154.75 153.55H154.61V160H153.8ZM163.982 160.14C163.642 160.14 163.332 160.08 163.052 159.96C162.772 159.84 162.552 159.667 162.392 159.44C162.232 159.213 162.152 158.937 162.152 158.61C162.152 158.277 162.232 158.003 162.392 157.79C162.552 157.57 162.772 157.407 163.052 157.3C163.332 157.187 163.646 157.13 163.992 157.13H165.642V156.77C165.642 156.423 165.539 156.15 165.332 155.95C165.132 155.75 164.832 155.65 164.432 155.65C164.039 155.65 163.732 155.747 163.512 155.94C163.292 156.127 163.142 156.38 163.062 156.7L162.322 156.46C162.402 156.187 162.529 155.94 162.702 155.72C162.876 155.493 163.106 155.313 163.392 155.18C163.686 155.04 164.036 154.97 164.442 154.97C165.069 154.97 165.556 155.133 165.902 155.46C166.249 155.78 166.422 156.233 166.422 156.82V159.03C166.422 159.23 166.516 159.33 166.702 159.33H167.152V160H166.462C166.242 160 166.066 159.94 165.932 159.82C165.799 159.693 165.732 159.527 165.732 159.32V159.27H165.612C165.539 159.397 165.439 159.53 165.312 159.67C165.192 159.803 165.026 159.913 164.812 160C164.599 160.093 164.322 160.14 163.982 160.14ZM164.072 159.46C164.539 159.46 164.916 159.323 165.202 159.05C165.496 158.77 165.642 158.38 165.642 157.88V157.77H164.022C163.709 157.77 163.449 157.84 163.242 157.98C163.042 158.113 162.942 158.317 162.942 158.59C162.942 158.863 163.046 159.077 163.252 159.23C163.466 159.383 163.739 159.46 164.072 159.46ZM168.697 162V161.3H171.497C171.691 161.3 171.787 161.2 171.787 161V159.22H171.647C171.581 159.36 171.477 159.5 171.337 159.64C171.204 159.773 171.027 159.883 170.807 159.97C170.587 160.05 170.311 160.09 169.977 160.09C169.624 160.09 169.297 160.013 168.997 159.86C168.704 159.707 168.471 159.48 168.297 159.18C168.131 158.88 168.047 158.513 168.047 158.08V155.11H168.837V158.02C168.837 158.5 168.957 158.85 169.197 159.07C169.444 159.29 169.774 159.4 170.187 159.4C170.654 159.4 171.037 159.247 171.337 158.94C171.637 158.633 171.787 158.177 171.787 157.57V155.11H172.577V161.14C172.577 161.407 172.501 161.617 172.347 161.77C172.201 161.923 171.984 162 171.697 162H168.697Z" fill="white"/>
<path d="M191.63 160.14C190.943 160.14 190.4 159.947 190 159.56C189.607 159.173 189.41 158.62 189.41 157.9V157.36H190.24V157.9C190.24 158.333 190.353 158.687 190.58 158.96C190.813 159.233 191.16 159.37 191.62 159.37C192.087 159.37 192.417 159.237 192.61 158.97C192.803 158.697 192.9 158.34 192.9 157.9V153.76H191.67V153H194.5V153.76H193.74V157.9C193.74 158.627 193.56 159.183 193.2 159.57C192.84 159.95 192.317 160.14 191.63 160.14ZM197.374 160.09C197.02 160.09 196.694 160.013 196.394 159.86C196.1 159.707 195.867 159.48 195.694 159.18C195.527 158.873 195.444 158.503 195.444 158.07V155.11H196.234V158.01C196.234 158.497 196.354 158.85 196.594 159.07C196.84 159.29 197.17 159.4 197.584 159.4C198.05 159.4 198.434 159.247 198.734 158.94C199.034 158.633 199.184 158.177 199.184 157.57V155.11H199.974V160H199.204V159.17H199.064C198.957 159.403 198.774 159.617 198.514 159.81C198.254 159.997 197.874 160.09 197.374 160.09ZM201.627 160V155.11H202.397V155.94H202.537C202.644 155.707 202.824 155.497 203.077 155.31C203.337 155.117 203.717 155.02 204.217 155.02C204.584 155.02 204.91 155.097 205.197 155.25C205.49 155.403 205.724 155.63 205.897 155.93C206.07 156.23 206.157 156.6 206.157 157.04V160H205.367V157.1C205.367 156.613 205.244 156.26 204.997 156.04C204.757 155.82 204.43 155.71 204.017 155.71C203.544 155.71 203.157 155.863 202.857 156.17C202.564 156.477 202.417 156.933 202.417 157.54V160H201.627Z" fill="white"/>
<path d="M224.63 160.14C223.943 160.14 223.4 159.947 223 159.56C222.607 159.173 222.41 158.62 222.41 157.9V157.36H223.24V157.9C223.24 158.333 223.353 158.687 223.58 158.96C223.813 159.233 224.16 159.37 224.62 159.37C225.087 159.37 225.417 159.237 225.61 158.97C225.803 158.697 225.9 158.34 225.9 157.9V153.76H224.67V153H227.5V153.76H226.74V157.9C226.74 158.627 226.56 159.183 226.2 159.57C225.84 159.95 225.317 160.14 224.63 160.14ZM230.374 160.09C230.02 160.09 229.694 160.013 229.394 159.86C229.1 159.707 228.867 159.48 228.694 159.18C228.527 158.873 228.444 158.503 228.444 158.07V155.11H229.234V158.01C229.234 158.497 229.354 158.85 229.594 159.07C229.84 159.29 230.17 159.4 230.584 159.4C231.05 159.4 231.434 159.247 231.734 158.94C232.034 158.633 232.184 158.177 232.184 157.57V155.11H232.974V160H232.204V159.17H232.064C231.957 159.403 231.774 159.617 231.514 159.81C231.254 159.997 230.874 160.09 230.374 160.09ZM234.627 160V153H235.417V160H234.627Z" fill="white"/>
<rect x="0.5" y="0.5" width="252" height="186" rx="19.5" stroke="url(#paint3_linear_35_23752)" style="mix-blend-mode:overlay"/>
</g>
<defs>
<filter id="filter0_b_35_23752" x="-9" y="-9" width="271" height="205" filterUnits="userSpaceOnUse" color-interpolation-filters="sRGB">
<feFlood flood-opacity="0" result="BackgroundImageFix"/>
<feGaussianBlur in="BackgroundImageFix" stdDeviation="4.5"/>
<feComposite in2="SourceAlpha" operator="in" result="effect1_backgroundBlur_35_23752"/>
<feBlend mode="normal" in="SourceGraphic" in2="effect1_backgroundBlur_35_23752" result="shape"/>
</filter>
<filter id="filter1_d_35_23752" x="68" y="65.9999" width="158" height="84.0001" filterUnits="userSpaceOnUse" color-interpolation-filters="sRGB">
<feFlood flood-opacity="0" result="BackgroundImageFix"/>
<feColorMatrix in="SourceAlpha" type="matrix" values="0 0 0 0 0 0 0 0 0 0 0 0 0 0 0 0 0 0 127 0" result="hardAlpha"/>
<feOffset/>
<feGaussianBlur stdDeviation="12"/>
<feComposite in2="hardAlpha" operator="out"/>
<feColorMatrix type="matrix" values="0 0 0 0 0.513514 0 0 0 0 0 0 0 0 0 1 0 0 0 1 0"/>
<feBlend mode="normal" in2="BackgroundImageFix" result="effect1_dropShadow_35_23752"/>
<feBlend mode="normal" in="SourceGraphic" in2="effect1_dropShadow_35_23752" result="shape"/>
</filter>
<linearGradient id="paint0_linear_35_23752" x1="-460.861" y1="-580.479" x2="103.688" y2="239.131" gradientUnits="userSpaceOnUse">
<stop stop-color="white"/>
<stop offset="0.939091" stop-color="#1E2144"/>
</linearGradient>
<linearGradient id="paint1_linear_35_23752" x1="17" y1="93.5" x2="232" y2="93.5" gradientUnits="userSpaceOnUse">
<stop stop-color="#00F5A0"/>
<stop offset="1" stop-color="#00D9F5"/>
</linearGradient>
<linearGradient id="paint2_linear_35_23752" x1="206.143" y1="101.818" x2="87.7489" y2="92.4291" gradientUnits="userSpaceOnUse">
<stop offset="0.00887753" stop-color="#5F43EF"/>
<stop offset="0.511341" stop-color="#BD25E8"/>
<stop offset="1" stop-color="#F32991"/>
</linearGradient>
<linearGradient id="paint3_linear_35_23752" x1="329.5" y1="178.715" x2="-118.332" y2="-25.682" gradientUnits="userSpaceOnUse">
<stop stop-color="#5F43EF"/>
<stop offset="1" stop-color="#5F43EF" stop-opacity="0"/>
</linearGradient>
</defs>
</svg>
