<svg width="121" height="52" viewBox="0 0 121 52" fill="none" xmlns="http://www.w3.org/2000/svg">
<path d="M19.328 32.224C17.9627 32.224 16.88 31.84 16.08 31.072C15.28 30.2933 14.88 29.1733 14.88 27.712V25.088C14.88 23.6267 15.28 22.512 16.08 21.744C16.88 20.9653 17.9627 20.576 19.328 20.576C20.672 20.576 21.7067 20.9493 22.432 21.696C23.168 22.4427 23.536 23.4613 23.536 24.752V24.848H21.824V24.704C21.824 23.9467 21.616 23.328 21.2 22.848C20.7947 22.368 20.1707 22.128 19.328 22.128C18.4747 22.128 17.808 22.3893 17.328 22.912C16.848 23.424 16.608 24.1387 16.608 25.056V27.744C16.608 28.6507 16.848 29.3653 17.328 29.888C17.808 30.4107 18.4747 30.672 19.328 30.672C20.1707 30.672 20.7947 30.432 21.2 29.952C21.616 29.4613 21.824 28.8427 21.824 28.096V27.824H23.536V28.048C23.536 29.3387 23.168 30.3573 22.432 31.104C21.7067 31.8507 20.672 32.224 19.328 32.224ZM25.4973 32V20.8H27.1453V25.232H27.4013C27.5079 25.0293 27.6573 24.832 27.8493 24.64C28.0519 24.448 28.3133 24.2933 28.6333 24.176C28.9639 24.048 29.3799 23.984 29.8813 23.984C30.4786 23.984 31.0066 24.1173 31.4653 24.384C31.9346 24.6507 32.3026 25.0293 32.5693 25.52C32.8359 26 32.9693 26.5813 32.9693 27.264V32H31.3213V27.392C31.3213 26.7093 31.1506 26.208 30.8093 25.888C30.4679 25.5573 29.9986 25.392 29.4013 25.392C28.7186 25.392 28.1693 25.616 27.7533 26.064C27.3479 26.512 27.1453 27.1627 27.1453 28.016V32H25.4973ZM37.789 32.224C37.2237 32.224 36.717 32.128 36.269 31.936C35.8317 31.744 35.4797 31.4613 35.213 31.088C34.957 30.7147 34.829 30.2613 34.829 29.728C34.829 29.184 34.957 28.736 35.213 28.384C35.4797 28.0213 35.837 27.7493 36.285 27.568C36.7437 27.3867 37.261 27.296 37.837 27.296H40.237V26.784C40.237 26.3253 40.0983 25.9573 39.821 25.68C39.5437 25.4027 39.117 25.264 38.541 25.264C37.9757 25.264 37.5437 25.3973 37.245 25.664C36.9463 25.9307 36.749 26.2773 36.653 26.704L35.117 26.208C35.245 25.7813 35.4477 25.3973 35.725 25.056C36.013 24.704 36.3917 24.4213 36.861 24.208C37.3303 23.9947 37.8957 23.888 38.557 23.888C39.581 23.888 40.3863 24.1493 40.973 24.672C41.5597 25.1947 41.853 25.936 41.853 26.896V30.144C41.853 30.464 42.0023 30.624 42.301 30.624H42.973V32H41.741C41.3677 32 41.0637 31.904 40.829 31.712C40.5943 31.52 40.477 31.2587 40.477 30.928V30.88H40.237C40.1517 31.04 40.0237 31.2267 39.853 31.44C39.6823 31.6533 39.4317 31.84 39.101 32C38.7703 32.1493 38.333 32.224 37.789 32.224ZM38.029 30.864C38.6903 30.864 39.2237 30.6773 39.629 30.304C40.0343 29.92 40.237 29.3973 40.237 28.736V28.576H37.933C37.4957 28.576 37.1437 28.672 36.877 28.864C36.6103 29.0453 36.477 29.3173 36.477 29.68C36.477 30.0427 36.6157 30.3307 36.893 30.544C37.1703 30.7573 37.549 30.864 38.029 30.864ZM44.5754 32V24.112H46.1914V25.296H46.4474C46.5967 24.976 46.8634 24.6773 47.2474 24.4C47.6314 24.1227 48.202 23.984 48.9594 23.984C49.5567 23.984 50.0847 24.1173 50.5434 24.384C51.0127 24.6507 51.3807 25.0293 51.6474 25.52C51.914 26 52.0474 26.5813 52.0474 27.264V32H50.3994V27.392C50.3994 26.7093 50.2287 26.208 49.8874 25.888C49.546 25.5573 49.0767 25.392 48.4794 25.392C47.7967 25.392 47.2474 25.616 46.8314 26.064C46.426 26.512 46.2234 27.1627 46.2234 28.016V32H44.5754ZM54.0351 28.096V27.856C54.0351 27.024 54.2005 26.3147 54.5311 25.728C54.8725 25.1413 55.3205 24.688 55.8751 24.368C56.4298 24.048 57.0378 23.888 57.6991 23.888C58.4671 23.888 59.0538 24.032 59.4591 24.32C59.8751 24.608 60.1791 24.9173 60.3711 25.248H60.6271V24.112H62.2271V33.616C62.2271 34.096 62.0831 34.48 61.7951 34.768C61.5178 35.056 61.1338 35.2 60.6431 35.2H55.3311V33.76H60.1311C60.4405 33.76 60.5951 33.6 60.5951 33.28V30.768H60.3391C60.2218 30.96 60.0565 31.1573 59.8431 31.36C59.6298 31.5627 59.3471 31.728 58.9951 31.856C58.6538 31.984 58.2218 32.048 57.6991 32.048C57.0378 32.048 56.4245 31.8933 55.8591 31.584C55.3045 31.264 54.8618 30.8107 54.5311 30.224C54.2005 29.6267 54.0351 28.9173 54.0351 28.096ZM58.1471 30.608C58.8618 30.608 59.4485 30.384 59.9071 29.936C60.3765 29.4773 60.6111 28.848 60.6111 28.048V27.904C60.6111 27.0827 60.3818 26.4533 59.9231 26.016C59.4645 25.568 58.8725 25.344 58.1471 25.344C57.4431 25.344 56.8565 25.568 56.3871 26.016C55.9285 26.4533 55.6991 27.0827 55.6991 27.904V28.048C55.6991 28.848 55.9285 29.4773 56.3871 29.936C56.8565 30.384 57.4431 30.608 58.1471 30.608ZM68.2695 32.224C67.4695 32.224 66.7708 32.0587 66.1735 31.728C65.5762 31.3867 65.1068 30.912 64.7655 30.304C64.4348 29.6853 64.2695 28.9707 64.2695 28.16V27.968C64.2695 27.1467 64.4348 26.432 64.7655 25.824C65.0962 25.2053 65.5548 24.7307 66.1415 24.4C66.7388 24.0587 67.4268 23.888 68.2055 23.888C68.9628 23.888 69.6242 24.0587 70.1895 24.4C70.7655 24.7307 71.2135 25.1947 71.5335 25.792C71.8535 26.3893 72.0135 27.088 72.0135 27.888V28.512H65.9495C65.9708 29.2053 66.2002 29.76 66.6375 30.176C67.0855 30.5813 67.6402 30.784 68.3015 30.784C68.9202 30.784 69.3842 30.6453 69.6935 30.368C70.0135 30.0907 70.2588 29.7707 70.4295 29.408L71.7895 30.112C71.6402 30.4107 71.4215 30.7253 71.1335 31.056C70.8562 31.3867 70.4882 31.664 70.0295 31.888C69.5708 32.112 68.9842 32.224 68.2695 32.224ZM65.9655 27.248H70.3335C70.2908 26.6507 70.0775 26.1867 69.6935 25.856C69.3095 25.5147 68.8082 25.344 68.1895 25.344C67.5708 25.344 67.0642 25.5147 66.6695 25.856C66.2855 26.1867 66.0508 26.6507 65.9655 27.248Z" fill="white"/>
<path d="M97.9996 18.2L85.0996 31.1V35.9H89.8996L102.8 23M97.9996 18.2L99.1055 17.0941C99.742 16.4576 100.605 16.1 101.505 16.1C103.38 16.1 104.9 17.6196 104.9 19.4941C104.9 20.3943 104.542 21.2576 103.905 21.8941L102.8 23M97.9996 18.2L102.8 23" stroke="white" stroke-width="1.5" stroke-linejoin="round"/>
</svg>
