<svg width="32" height="32" viewBox="0 0 32 32" fill="none" xmlns="http://www.w3.org/2000/svg">
<rect width="32" height="32" rx="16" fill="#9757D7"/>
<path d="M16 6C15.4477 6 15 6.44772 15 7V10C15 10.5523 15.4477 11 16 11C16.5523 11 17 10.5523 17 10V7C17 6.44772 16.5523 6 16 6Z" fill="#FCFCFD"/>
<path d="M16 21C15.4477 21 15 21.4477 15 22V25C15 25.5523 15.4477 26 16 26C16.5523 26 17 25.5523 17 25V22C17 21.4477 16.5523 21 16 21Z" fill="#FCFCFD"/>
<path d="M25 15C25.5523 15 26 15.4477 26 16C26 16.5523 25.5523 17 25 17H22C21.4477 17 21 16.5523 21 16C21 15.4477 21.4477 15 22 15H25Z" fill="#FCFCFD"/>
<path d="M11 16C11 15.4477 10.5523 15 10 15H7C6.44772 15 6 15.4477 6 16C6 16.5523 6.44772 17 7 17H10C10.5523 17 11 16.5523 11 16Z" fill="#FCFCFD"/>
<path d="M21.6569 8.92903C22.0474 8.53851 22.6806 8.53851 23.0711 8.92903C23.4616 9.31955 23.4616 9.95272 23.0711 10.3432L20.9498 12.4646C20.5593 12.8551 19.9261 12.8551 19.5356 12.4646C19.1451 12.074 19.1451 11.4409 19.5356 11.0504L21.6569 8.92903Z" fill="#FCFCFD"/>
<path d="M12.4644 19.5355C12.0739 19.145 11.4407 19.145 11.0502 19.5355L8.9289 21.6568C8.53837 22.0473 8.53837 22.6805 8.9289 23.071C9.31942 23.4615 9.95259 23.4615 10.3431 23.071L12.4644 20.9497C12.855 20.5592 12.855 19.926 12.4644 19.5355Z" fill="#FCFCFD"/>
<path d="M23.0711 21.6569C23.4616 22.0474 23.4616 22.6806 23.0711 23.0711C22.6806 23.4616 22.0474 23.4616 21.6569 23.0711L19.5356 20.9498C19.145 20.5593 19.145 19.9261 19.5356 19.5356C19.9261 19.1451 20.5592 19.1451 20.9498 19.5356L23.0711 21.6569Z" fill="#FCFCFD"/>
<path d="M12.4645 12.4644C12.855 12.0739 12.855 11.4407 12.4645 11.0502L10.3432 8.9289C9.95268 8.53837 9.31951 8.53837 8.92899 8.9289C8.53847 9.31942 8.53847 9.95259 8.92899 10.3431L11.0503 12.4644C11.4408 12.855 12.074 12.855 12.4645 12.4644Z" fill="#FCFCFD"/>
</svg>
