<svg width="24" height="25" viewBox="0 0 24 25" fill="none" xmlns="http://www.w3.org/2000/svg">
<path d="M21.7605 16.5284L15.3605 5.0084C14.5005 3.4584 13.3105 2.6084 12.0005 2.6084C10.6905 2.6084 9.50047 3.4584 8.64047 5.0084L2.24047 16.5284C1.43047 17.9984 1.34047 19.4084 1.99047 20.5184C2.64047 21.6284 3.92047 22.2384 5.60047 22.2384H18.4005C20.0805 22.2384 21.3605 21.6284 22.0105 20.5184C22.6605 19.4084 22.5705 17.9884 21.7605 16.5284ZM11.2505 9.6084C11.2505 9.1984 11.5905 8.8584 12.0005 8.8584C12.4105 8.8584 12.7505 9.1984 12.7505 9.6084V14.6084C12.7505 15.0184 12.4105 15.3584 12.0005 15.3584C11.5905 15.3584 11.2505 15.0184 11.2505 14.6084V9.6084ZM12.7105 18.3184C12.6605 18.3584 12.6105 18.3984 12.5605 18.4384C12.5005 18.4784 12.4405 18.5084 12.3805 18.5284C12.3205 18.5584 12.2605 18.5784 12.1905 18.5884C12.1305 18.5984 12.0605 18.6084 12.0005 18.6084C11.9405 18.6084 11.8705 18.5984 11.8005 18.5884C11.7405 18.5784 11.6805 18.5584 11.6205 18.5284C11.5605 18.5084 11.5005 18.4784 11.4405 18.4384C11.3905 18.3984 11.3405 18.3584 11.2905 18.3184C11.1105 18.1284 11.0005 17.8684 11.0005 17.6084C11.0005 17.3484 11.1105 17.0884 11.2905 16.8984C11.3405 16.8584 11.3905 16.8184 11.4405 16.7784C11.5005 16.7384 11.5605 16.7084 11.6205 16.6884C11.6805 16.6584 11.7405 16.6384 11.8005 16.6284C11.9305 16.5984 12.0705 16.5984 12.1905 16.6284C12.2605 16.6384 12.3205 16.6584 12.3805 16.6884C12.4405 16.7084 12.5005 16.7384 12.5605 16.7784C12.6105 16.8184 12.6605 16.8584 12.7105 16.8984C12.8905 17.0884 13.0005 17.3484 13.0005 17.6084C13.0005 17.8684 12.8905 18.1284 12.7105 18.3184Z" fill="#FFC502"/>
</svg>
