<svg width="21" height="16" viewBox="0 0 21 16" fill="none" xmlns="http://www.w3.org/2000/svg">
<path d="M17.2138 1.88315C15.9867 1.32096 14.6713 0.905432 13.2957 0.669152C13.2835 0.666763 13.2708 0.668302 13.2595 0.673557C13.2481 0.678813 13.2386 0.687523 13.2324 0.698483C13.064 0.99913 12.8763 1.39103 12.7447 1.70064C11.2859 1.47922 9.8027 1.47922 8.34383 1.70064C8.19732 1.35751 8.0321 1.02294 7.84896 0.698483C7.84275 0.687388 7.83336 0.678481 7.82204 0.672949C7.81071 0.667417 7.798 0.665524 7.78559 0.667522C6.41086 0.903803 5.09548 1.31933 3.86753 1.88233C3.85697 1.88683 3.84801 1.89451 3.84186 1.90433C1.34585 5.63186 0.661695 9.26733 0.997758 12.8572C0.998693 12.866 1.00138 12.8745 1.00565 12.8822C1.00993 12.8899 1.0157 12.8966 1.02262 12.902C2.47948 13.9794 4.10441 14.8002 5.82937 15.33C5.84139 15.3337 5.85426 15.3337 5.86627 15.3299C5.87829 15.3262 5.88891 15.3188 5.89674 15.3088C6.26729 14.8036 6.59774 14.27 6.88007 13.7094C6.89691 13.6768 6.88087 13.6377 6.84718 13.6247C6.32906 13.4265 5.82703 13.1873 5.34573 12.9093C5.33708 12.9043 5.32979 12.8972 5.32452 12.8886C5.31924 12.88 5.31615 12.8702 5.31552 12.8601C5.31488 12.85 5.31672 12.8399 5.32087 12.8308C5.32503 12.8216 5.33136 12.8136 5.33931 12.8075C5.44037 12.7317 5.54143 12.6527 5.63768 12.5736C5.64634 12.5665 5.65678 12.562 5.66782 12.5606C5.67887 12.5591 5.69009 12.5608 5.70024 12.5655C8.84993 14.0027 12.2611 14.0027 15.3739 12.5655C15.3841 12.5605 15.3954 12.5586 15.4066 12.5599C15.4178 12.5612 15.4284 12.5657 15.4372 12.5728C15.5335 12.6527 15.6338 12.7317 15.7356 12.8075C15.7436 12.8134 15.7501 12.8213 15.7544 12.8304C15.7587 12.8396 15.7606 12.8496 15.7602 12.8597C15.7597 12.8698 15.7568 12.8796 15.7516 12.8883C15.7465 12.8969 15.7394 12.9042 15.7308 12.9093C15.2512 13.1896 14.7523 13.4267 14.2285 13.6239C14.2205 13.6268 14.2132 13.6315 14.207 13.6376C14.2009 13.6436 14.1961 13.651 14.193 13.6591C14.1899 13.6672 14.1885 13.6758 14.189 13.6845C14.1895 13.6932 14.1917 13.7017 14.1957 13.7094C14.4844 14.2691 14.8148 14.802 15.1782 15.308C15.1857 15.3183 15.1963 15.3261 15.2083 15.3302C15.2204 15.3343 15.2334 15.3345 15.2456 15.3308C16.9735 14.8025 18.6011 13.9814 20.0595 12.902C20.0666 12.8969 20.0726 12.8904 20.077 12.8828C20.0815 12.8752 20.0842 12.8667 20.0852 12.858C20.4862 8.70759 19.4131 5.10145 17.2387 1.90596C17.2333 1.89557 17.2245 1.88748 17.2138 1.88315ZM7.35088 10.6712C6.40284 10.6712 5.62083 9.80018 5.62083 8.73203C5.62083 7.66306 6.3876 6.7929 7.35088 6.7929C8.32137 6.7929 9.09616 7.67039 9.08092 8.73203C9.08092 9.80099 8.31415 10.6712 7.35088 10.6712ZM13.7473 10.6712C12.7985 10.6712 12.0173 9.80018 12.0173 8.73203C12.0173 7.66306 12.7832 6.7929 13.7473 6.7929C14.7178 6.7929 15.4926 7.67039 15.4774 8.73203C15.4774 9.80099 14.7186 10.6712 13.7473 10.6712Z" fill="#B8B2B3"/>
</svg>
