<svg width="20" height="21" viewBox="0 0 20 21" fill="none" xmlns="http://www.w3.org/2000/svg">
<path fill-rule="evenodd" clip-rule="evenodd" d="M9.99997 15.7165C13.4379 15.7165 15.8826 13.5562 17.3144 11.757C17.8109 11.133 17.8109 10.3 17.3144 9.67593C15.8826 7.87679 13.4379 5.71647 9.99997 5.71647C6.56206 5.71647 4.1173 7.87679 2.68559 9.67593C2.18901 10.3 2.18901 11.133 2.68559 11.757C4.1173 13.5562 6.56206 15.7165 9.99997 15.7165ZM18.6185 12.7948C19.5985 11.5634 19.5985 9.86959 18.6185 8.63814C17.0616 6.68169 14.1888 4.0498 9.99997 4.0498C5.81119 4.0498 2.93835 6.68169 1.38146 8.63814C0.401494 9.86959 0.401494 11.5634 1.38146 12.7948C2.93835 14.7513 5.81119 17.3831 9.99997 17.3831C14.1888 17.3831 17.0616 14.7513 18.6185 12.7948Z" fill="#5D566C"/>
<path fill-rule="evenodd" clip-rule="evenodd" d="M11.667 10.7166C11.667 11.6371 10.9208 12.3833 10.0003 12.3833C9.07985 12.3833 8.33366 11.6371 8.33366 10.7166C8.33366 10.693 8.33415 10.6694 8.33513 10.646C8.46504 10.6918 8.60478 10.7166 8.75033 10.7166C9.44068 10.7166 10.0003 10.157 10.0003 9.46663C10.0003 9.32109 9.97545 9.18134 9.92972 9.05144C9.95313 9.05046 9.97667 9.04997 10.0003 9.04997C10.9208 9.04997 11.667 9.79616 11.667 10.7166ZM13.3337 10.7166C13.3337 12.5576 11.8413 14.05 10.0003 14.05C8.15938 14.05 6.66699 12.5576 6.66699 10.7166C6.66699 8.87568 8.15938 7.3833 10.0003 7.3833C11.8413 7.3833 13.3337 8.87568 13.3337 10.7166Z" fill="#5D566C"/>
</svg>
