<svg width="16" height="17" viewBox="0 0 16 17" fill="none" xmlns="http://www.w3.org/2000/svg">
<path d="M0.75027 9.77221H2.05027C3.17037 9.77221 3.73043 9.77221 4.15825 9.96598C4.53458 10.1364 4.84054 10.4084 5.03228 10.7429C5.25027 11.1232 5.25027 11.621 5.25027 12.6167V13.55C5.25027 13.7564 5.25027 13.8595 5.24064 13.9465C5.14712 14.7905 4.39586 15.4583 3.4463 15.5414C3.34852 15.55 3.23244 15.55 3.00027 15.55C2.7681 15.55 2.65202 15.55 2.55424 15.5414C1.60468 15.4583 0.853424 14.7905 0.759901 13.9465C0.75027 13.8595 0.75027 13.7564 0.75027 13.55V9.77221ZM0.75027 9.77221V7.32777V7.32777C0.75027 6.08786 0.75027 5.46791 0.886503 4.95936C1.25635 3.57873 2.33461 2.50047 3.71524 2.13062C4.22379 1.99439 4.84268 1.99439 6.08045 1.9944L9.91363 1.99441C11.1558 1.99441 11.7769 1.99441 12.2856 2.13071C13.6659 2.50059 14.7441 3.57876 15.114 4.95911C15.2503 5.46779 15.2503 6.08778 15.2503 7.32777V7.32777V9.77221M15.2503 9.77221H13.9503C12.8302 9.77221 12.2701 9.77221 11.8423 9.96598C11.466 10.1364 11.16 10.4084 10.9683 10.7429C10.7503 11.1232 10.7503 11.621 10.7503 12.6167V13.55C10.7503 13.7564 10.7503 13.8595 10.7599 13.9465C10.8534 14.7905 11.6047 15.4583 12.5542 15.5414C12.652 15.55 12.7681 15.55 13.0003 15.55C13.2324 15.55 13.3485 15.55 13.4463 15.5414C14.3959 15.4583 15.1471 14.7905 15.2406 13.9465C15.2503 13.8595 15.2503 13.7564 15.2503 13.55V9.77221Z" stroke="#FAF9FB" stroke-width="2" stroke-linejoin="round"/>
</svg>
