<svg width="20" height="20" viewBox="0 0 20 20" fill="none" xmlns="http://www.w3.org/2000/svg">
<path fill-rule="evenodd" clip-rule="evenodd" d="M3.125 0.375C2.39565 0.375 1.69618 0.664731 1.18046 1.18046C0.664731 1.69618 0.375 2.39565 0.375 3.125V16.875C0.375 17.6043 0.664731 18.3038 1.18046 18.8195C1.69618 19.3353 2.39565 19.625 3.125 19.625H16.875C17.6043 19.625 18.3038 19.3353 18.8195 18.8195C19.3353 18.3038 19.625 17.6043 19.625 16.875V3.125C19.625 2.39565 19.3353 1.69618 18.8195 1.18046C18.3038 0.664731 17.6043 0.375 16.875 0.375H3.125ZM4.64025 6.28337C5.07603 6.28337 5.49397 6.11026 5.80211 5.80211C6.11026 5.49397 6.28337 5.07603 6.28337 4.64025C6.28337 4.20447 6.11026 3.78653 5.80211 3.47839C5.49397 3.17024 5.07603 2.99713 4.64025 2.99713C4.20447 2.99713 3.78653 3.17024 3.47839 3.47839C3.17024 3.78653 2.99713 4.20447 2.99713 4.64025C2.99713 5.07603 3.17024 5.49397 3.47839 5.80211C3.78653 6.11026 4.20447 6.28337 4.64025 6.28337ZM6.01525 16.6179V7.57175H3.26525V16.6179H6.01525ZM7.84125 7.57175H10.5913V8.78312C10.9969 8.14787 11.8879 7.29263 13.5448 7.29263C15.522 7.29263 16.5959 8.603 16.5959 11.0959C16.5959 11.2155 16.6069 11.7614 16.6069 11.7614V16.6165H13.8569V11.7627C13.8569 11.0959 13.7166 9.7855 12.2344 9.7855C10.7507 9.7855 10.6256 11.4328 10.5913 12.5107V16.6165H7.84125V7.57175Z" fill="#B8B2B3"/>
</svg>
