<svg width="23" height="22" viewBox="0 0 23 22" fill="none" xmlns="http://www.w3.org/2000/svg">
<g clip-path="url(#clip0_459_9861)">
<path d="M13.3273 11C13.3273 14.4169 10.5498 17.1875 7.12197 17.1875C6.30833 17.1886 5.50245 17.0294 4.75033 16.719C3.99821 16.4087 3.31459 15.9532 2.73849 15.3786C2.1624 14.8041 1.70511 14.1217 1.39275 13.3704C1.08038 12.6191 0.919051 11.8136 0.917969 11C0.917969 7.58176 3.69547 4.81251 7.12197 4.81251C7.93572 4.81124 8.74175 4.97029 9.49403 5.28058C10.2463 5.59086 10.9301 6.0463 11.5063 6.62088C12.0826 7.19546 12.54 7.87793 12.8524 8.62931C13.1649 9.38068 13.3263 10.1863 13.3273 11ZM20.1336 11C20.1336 14.2175 18.7448 16.8245 17.0316 16.8245C15.3183 16.8245 13.9296 14.2161 13.9296 11C13.9296 7.78251 15.3183 5.17551 17.0316 5.17551C18.7448 5.17551 20.1336 7.78388 20.1336 11ZM22.918 11C22.918 13.882 22.4298 16.2181 21.8262 16.2181C21.224 16.2181 20.7358 13.8806 20.7358 11C20.7358 8.11801 21.224 5.78188 21.8276 5.78188C22.4298 5.78188 22.918 8.11801 22.918 11Z" fill="#B8B2B3"/>
</g>
<defs>
<clipPath id="clip0_459_9861">
<rect width="22" height="22" fill="white" transform="translate(0.917969)"/>
</clipPath>
</defs>
</svg>
