<svg width="16" height="17" viewBox="0 0 16 17" fill="none" xmlns="http://www.w3.org/2000/svg">
<g clip-path="url(#clip0_256_4853)">
<path fill-rule="evenodd" clip-rule="evenodd" d="M3.33366 6.21655C3.70185 6.21655 4.00033 6.51503 4.00033 6.88322V7.54989C4.00033 9.75903 5.79119 11.5499 8.00033 11.5499C10.2095 11.5499 12.0003 9.75903 12.0003 7.54989V6.88322C12.0003 6.51503 12.2988 6.21655 12.667 6.21655C13.0352 6.21655 13.3337 6.51503 13.3337 6.88322V7.54989C13.3337 10.2696 11.2979 12.5139 8.66699 12.842V14.8832H10.667C11.0352 14.8832 11.3337 15.1817 11.3337 15.5499C11.3337 15.9181 11.0352 16.2166 10.667 16.2166H8.66699H7.33366H5.33366C4.96547 16.2166 4.66699 15.9181 4.66699 15.5499C4.66699 15.1817 4.96547 14.8832 5.33366 14.8832H7.33366V12.842C4.70278 12.5139 2.66699 10.2696 2.66699 7.54989V6.88322C2.66699 6.51503 2.96547 6.21655 3.33366 6.21655Z" fill="#FCFCFD"/>
<path fill-rule="evenodd" clip-rule="evenodd" d="M9.33301 7.54989V2.88322C9.33301 2.14684 8.73605 1.54989 7.99967 1.54989C7.26329 1.54989 6.66634 2.14684 6.66634 2.88322V7.54989C6.66634 8.28627 7.26329 8.88322 7.99967 8.88322C8.73605 8.88322 9.33301 8.28627 9.33301 7.54989ZM7.99967 0.216553C6.52692 0.216553 5.33301 1.41046 5.33301 2.88322V7.54989C5.33301 9.02265 6.52692 10.2166 7.99967 10.2166C9.47243 10.2166 10.6663 9.02265 10.6663 7.54989V2.88322C10.6663 1.41046 9.47243 0.216553 7.99967 0.216553Z" fill="#E4E1EA"/>
</g>
<defs>
<clipPath id="clip0_256_4853">
<rect width="16" height="16" fill="white" transform="translate(0 0.216553)"/>
</clipPath>
</defs>
</svg>
