<svg width="24" height="25" viewBox="0 0 24 25" fill="none" xmlns="http://www.w3.org/2000/svg">
<path fill-rule="evenodd" clip-rule="evenodd" d="M12 20.2166C16.4183 20.2166 20 16.6348 20 12.2166C20 7.79827 16.4183 4.21655 12 4.21655C7.58172 4.21655 4 7.79827 4 12.2166C4 16.6348 7.58172 20.2166 12 20.2166ZM12 22.2166C17.5228 22.2166 22 17.7394 22 12.2166C22 6.69371 17.5228 2.21655 12 2.21655C6.47715 2.21655 2 6.69371 2 12.2166C2 17.7394 6.47715 22.2166 12 22.2166Z" fill="#FAF9FB"/>
<path fill-rule="evenodd" clip-rule="evenodd" d="M12 7.21655C11.4477 7.21655 11 7.66427 11 8.21655C11 8.76884 11.4477 9.21655 12 9.21655C12.5523 9.21655 13 8.76884 13 8.21655C13 7.66427 12.5523 7.21655 12 7.21655ZM12 11.2166C11.4477 11.2166 11 11.6643 11 12.2166V16.2166C11 16.7688 11.4477 17.2166 12 17.2166C12.5523 17.2166 13 16.7688 13 16.2166V12.2166C13 11.6643 12.5523 11.2166 12 11.2166Z" fill="#FAF9FB"/>
</svg>
