<svg width="247" height="130" viewBox="0 0 247 130" fill="none" xmlns="http://www.w3.org/2000/svg">
<g filter="url(#filter0_b_35_23782)">
<rect width="247" height="130" rx="20" fill="url(#paint0_linear_35_23782)" fill-opacity="0.7"/>
<path d="M32.9447 39V37.144H34.4167V29.656H32.9447V27.8H37.5527C39.0567 27.8 40.1981 28.184 40.9767 28.952C41.7661 29.7093 42.1607 30.84 42.1607 32.344V34.456C42.1607 35.96 41.7661 37.096 40.9767 37.864C40.1981 38.6213 39.0567 39 37.5527 39H32.9447ZM36.5287 37.08H37.5847C38.4381 37.08 39.0621 36.856 39.4567 36.408C39.8514 35.96 40.0487 35.3307 40.0487 34.52V32.28C40.0487 31.4587 39.8514 30.8293 39.4567 30.392C39.0621 29.944 38.4381 29.72 37.5847 29.72H36.5287V37.08ZM47.921 39.224C47.1317 39.224 46.4223 39.064 45.793 38.744C45.1637 38.424 44.6677 37.96 44.305 37.352C43.9423 36.744 43.761 36.0133 43.761 35.16V34.904C43.761 34.0507 43.9423 33.32 44.305 32.712C44.6677 32.104 45.1637 31.64 45.793 31.32C46.4223 31 47.1317 30.84 47.921 30.84C48.7103 30.84 49.4197 31 50.049 31.32C50.6783 31.64 51.1743 32.104 51.537 32.712C51.8997 33.32 52.081 34.0507 52.081 34.904V35.16C52.081 36.0133 51.8997 36.744 51.537 37.352C51.1743 37.96 50.6783 38.424 50.049 38.744C49.4197 39.064 48.7103 39.224 47.921 39.224ZM47.921 37.432C48.5397 37.432 49.0517 37.2347 49.457 36.84C49.8623 36.4347 50.065 35.8587 50.065 35.112V34.952C50.065 34.2053 49.8623 33.6347 49.457 33.24C49.0623 32.8347 48.5503 32.632 47.921 32.632C47.3023 32.632 46.7903 32.8347 46.385 33.24C45.9797 33.6347 45.777 34.2053 45.777 34.952V35.112C45.777 35.8587 45.9797 36.4347 46.385 36.84C46.7903 37.2347 47.3023 37.432 47.921 37.432ZM58.3244 39V31.064H60.3404V39H58.3244ZM59.3324 30.136C58.9697 30.136 58.6604 30.0187 58.4044 29.784C58.159 29.5493 58.0364 29.24 58.0364 28.856C58.0364 28.472 58.159 28.1627 58.4044 27.928C58.6604 27.6933 58.9697 27.576 59.3324 27.576C59.7057 27.576 60.015 27.6933 60.2604 27.928C60.5057 28.1627 60.6284 28.472 60.6284 28.856C60.6284 29.24 60.5057 29.5493 60.2604 29.784C60.015 30.0187 59.7057 30.136 59.3324 30.136ZM65.7744 39C65.2517 39 64.825 38.84 64.4944 38.52C64.1744 38.1893 64.0144 37.752 64.0144 37.208V32.728H62.0304V31.064H64.0144V28.6H66.0304V31.064H68.2064V32.728H66.0304V36.856C66.0304 37.176 66.1797 37.336 66.4784 37.336H68.0144V39H65.7744ZM78.1897 39.224C77.4004 39.224 76.6911 39.064 76.0617 38.744C75.4324 38.424 74.9364 37.96 74.5737 37.352C74.2111 36.744 74.0297 36.0133 74.0297 35.16V34.904C74.0297 34.0507 74.2111 33.32 74.5737 32.712C74.9364 32.104 75.4324 31.64 76.0617 31.32C76.6911 31 77.4004 30.84 78.1897 30.84C78.9791 30.84 79.6884 31 80.3177 31.32C80.9471 31.64 81.4431 32.104 81.8057 32.712C82.1684 33.32 82.3497 34.0507 82.3497 34.904V35.16C82.3497 36.0133 82.1684 36.744 81.8057 37.352C81.4431 37.96 80.9471 38.424 80.3177 38.744C79.6884 39.064 78.9791 39.224 78.1897 39.224ZM78.1897 37.432C78.8084 37.432 79.3204 37.2347 79.7257 36.84C80.1311 36.4347 80.3337 35.8587 80.3337 35.112V34.952C80.3337 34.2053 80.1311 33.6347 79.7257 33.24C79.3311 32.8347 78.8191 32.632 78.1897 32.632C77.5711 32.632 77.0591 32.8347 76.6537 33.24C76.2484 33.6347 76.0457 34.2053 76.0457 34.952V35.112C76.0457 35.8587 76.2484 36.4347 76.6537 36.84C77.0591 37.2347 77.5711 37.432 78.1897 37.432ZM84.3706 39V31.064H86.3546V32.104H86.6426C86.7706 31.8267 87.0106 31.5653 87.3626 31.32C87.7146 31.064 88.248 30.936 88.9626 30.936C89.5813 30.936 90.12 31.08 90.5786 31.368C91.048 31.6453 91.4106 32.0347 91.6666 32.536C91.9226 33.0267 92.0506 33.6027 92.0506 34.264V39H90.0346V34.424C90.0346 33.8267 89.8853 33.3787 89.5866 33.08C89.2986 32.7813 88.8826 32.632 88.3386 32.632C87.72 32.632 87.24 32.84 86.8986 33.256C86.5573 33.6613 86.3866 34.232 86.3866 34.968V39H84.3706ZM101.653 39C101.13 39 100.703 38.84 100.373 38.52C100.053 38.1893 99.8925 37.752 99.8925 37.208V32.728H97.9085V31.064H99.8925V28.6H101.909V31.064H104.085V32.728H101.909V36.856C101.909 37.176 102.058 37.336 102.357 37.336H103.893V39H101.653ZM106.069 39V27.8H108.085V32.04H108.373C108.459 31.8693 108.592 31.6987 108.773 31.528C108.955 31.3573 109.195 31.2187 109.493 31.112C109.803 30.9947 110.192 30.936 110.661 30.936C111.28 30.936 111.819 31.08 112.277 31.368C112.747 31.6453 113.109 32.0347 113.365 32.536C113.621 33.0267 113.749 33.6027 113.749 34.264V39H111.733V34.424C111.733 33.8267 111.584 33.3787 111.285 33.08C110.997 32.7813 110.581 32.632 110.037 32.632C109.419 32.632 108.939 32.84 108.597 33.256C108.256 33.6613 108.085 34.232 108.085 34.968V39H106.069ZM119.705 39.224C118.915 39.224 118.217 39.0587 117.609 38.728C117.011 38.3867 116.542 37.912 116.201 37.304C115.87 36.6853 115.705 35.96 115.705 35.128V34.936C115.705 34.104 115.87 33.384 116.201 32.776C116.531 32.1573 116.995 31.6827 117.593 31.352C118.19 31.0107 118.883 30.84 119.673 30.84C120.451 30.84 121.129 31.016 121.705 31.368C122.281 31.7093 122.729 32.1893 123.049 32.808C123.369 33.416 123.529 34.1253 123.529 34.936V35.624H117.753C117.774 36.168 117.977 36.6107 118.361 36.952C118.745 37.2933 119.214 37.464 119.769 37.464C120.334 37.464 120.75 37.3413 121.017 37.096C121.283 36.8507 121.486 36.5787 121.625 36.28L123.273 37.144C123.123 37.4213 122.905 37.7253 122.617 38.056C122.339 38.376 121.966 38.6533 121.497 38.888C121.027 39.112 120.43 39.224 119.705 39.224ZM117.769 34.12H121.481C121.438 33.6613 121.251 33.2933 120.921 33.016C120.601 32.7387 120.179 32.6 119.657 32.6C119.113 32.6 118.681 32.7387 118.361 33.016C118.041 33.2933 117.843 33.6613 117.769 34.12ZM134.474 39.224C133.759 39.224 133.21 39.1013 132.826 38.856C132.442 38.6107 132.159 38.3387 131.978 38.04H131.69V39H129.706V27.8H131.722V31.976H132.01C132.127 31.784 132.282 31.6027 132.474 31.432C132.676 31.2613 132.938 31.1227 133.258 31.016C133.588 30.8987 133.994 30.84 134.474 30.84C135.114 30.84 135.706 31 136.25 31.32C136.794 31.6293 137.231 32.088 137.562 32.696C137.892 33.304 138.058 34.04 138.058 34.904V35.16C138.058 36.024 137.892 36.76 137.562 37.368C137.231 37.976 136.794 38.44 136.25 38.76C135.706 39.0693 135.114 39.224 134.474 39.224ZM133.866 37.464C134.484 37.464 135.002 37.2667 135.418 36.872C135.834 36.4667 136.042 35.88 136.042 35.112V34.952C136.042 34.184 135.834 33.6027 135.418 33.208C135.012 32.8027 134.495 32.6 133.866 32.6C133.247 32.6 132.73 32.8027 132.314 33.208C131.898 33.6027 131.69 34.184 131.69 34.952V35.112C131.69 35.88 131.898 36.4667 132.314 36.872C132.73 37.2667 133.247 37.464 133.866 37.464ZM140.069 39V27.8H142.085V39H140.069ZM148.255 39.224C147.465 39.224 146.756 39.064 146.127 38.744C145.497 38.424 145.001 37.96 144.639 37.352C144.276 36.744 144.095 36.0133 144.095 35.16V34.904C144.095 34.0507 144.276 33.32 144.639 32.712C145.001 32.104 145.497 31.64 146.127 31.32C146.756 31 147.465 30.84 148.255 30.84C149.044 30.84 149.753 31 150.383 31.32C151.012 31.64 151.508 32.104 151.871 32.712C152.233 33.32 152.415 34.0507 152.415 34.904V35.16C152.415 36.0133 152.233 36.744 151.871 37.352C151.508 37.96 151.012 38.424 150.383 38.744C149.753 39.064 149.044 39.224 148.255 39.224ZM148.255 37.432C148.873 37.432 149.385 37.2347 149.791 36.84C150.196 36.4347 150.399 35.8587 150.399 35.112V34.952C150.399 34.2053 150.196 33.6347 149.791 33.24C149.396 32.8347 148.884 32.632 148.255 32.632C147.636 32.632 147.124 32.8347 146.719 33.24C146.313 33.6347 146.111 34.2053 146.111 34.952V35.112C146.111 35.8587 146.313 36.4347 146.719 36.84C147.124 37.2347 147.636 37.432 148.255 37.432ZM158.164 39.224C157.396 39.224 156.697 39.064 156.068 38.744C155.449 38.424 154.958 37.96 154.596 37.352C154.233 36.744 154.052 36.008 154.052 35.144V34.92C154.052 34.056 154.233 33.32 154.596 32.712C154.958 32.104 155.449 31.64 156.068 31.32C156.697 31 157.396 30.84 158.164 30.84C158.921 30.84 159.572 30.9733 160.116 31.24C160.66 31.5067 161.097 31.8747 161.428 32.344C161.769 32.8027 161.993 33.3253 162.1 33.912L160.148 34.328C160.105 34.008 160.009 33.72 159.86 33.464C159.71 33.208 159.497 33.0053 159.22 32.856C158.953 32.7067 158.617 32.632 158.212 32.632C157.806 32.632 157.438 32.7227 157.108 32.904C156.788 33.0747 156.532 33.336 156.34 33.688C156.158 34.0293 156.068 34.4507 156.068 34.952V35.112C156.068 35.6133 156.158 36.04 156.34 36.392C156.532 36.7333 156.788 36.9947 157.108 37.176C157.438 37.3467 157.806 37.432 158.212 37.432C158.82 37.432 159.278 37.2773 159.588 36.968C159.908 36.648 160.11 36.232 160.196 35.72L162.148 36.184C162.009 36.7493 161.769 37.2667 161.428 37.736C161.097 38.1947 160.66 38.5573 160.116 38.824C159.572 39.0907 158.921 39.224 158.164 39.224ZM163.971 39V27.8H165.987V33.992H166.275L168.899 31.064H171.523L167.859 34.904L171.651 39H169.059L166.275 35.848H165.987V39H163.971ZM176.405 39.224C175.637 39.224 174.939 39.064 174.309 38.744C173.691 38.424 173.2 37.96 172.837 37.352C172.475 36.744 172.293 36.008 172.293 35.144V34.92C172.293 34.056 172.475 33.32 172.837 32.712C173.2 32.104 173.691 31.64 174.309 31.32C174.939 31 175.637 30.84 176.405 30.84C177.163 30.84 177.813 30.9733 178.357 31.24C178.901 31.5067 179.339 31.8747 179.669 32.344C180.011 32.8027 180.235 33.3253 180.341 33.912L178.389 34.328C178.347 34.008 178.251 33.72 178.101 33.464C177.952 33.208 177.739 33.0053 177.461 32.856C177.195 32.7067 176.859 32.632 176.453 32.632C176.048 32.632 175.68 32.7227 175.349 32.904C175.029 33.0747 174.773 33.336 174.581 33.688C174.4 34.0293 174.309 34.4507 174.309 34.952V35.112C174.309 35.6133 174.4 36.04 174.581 36.392C174.773 36.7333 175.029 36.9947 175.349 37.176C175.68 37.3467 176.048 37.432 176.453 37.432C177.061 37.432 177.52 37.2773 177.829 36.968C178.149 36.648 178.352 36.232 178.437 35.72L180.389 36.184C180.251 36.7493 180.011 37.2667 179.669 37.736C179.339 38.1947 178.901 38.5573 178.357 38.824C177.813 39.0907 177.163 39.224 176.405 39.224ZM182.212 39V27.8H184.228V32.04H184.516C184.602 31.8693 184.735 31.6987 184.916 31.528C185.098 31.3573 185.338 31.2187 185.636 31.112C185.946 30.9947 186.335 30.936 186.804 30.936C187.423 30.936 187.962 31.08 188.42 31.368C188.89 31.6453 189.252 32.0347 189.508 32.536C189.764 33.0267 189.892 33.6027 189.892 34.264V39H187.876V34.424C187.876 33.8267 187.727 33.3787 187.428 33.08C187.14 32.7813 186.724 32.632 186.18 32.632C185.562 32.632 185.082 32.84 184.74 33.256C184.399 33.6613 184.228 34.232 184.228 34.968V39H182.212ZM194.696 39.224C194.131 39.224 193.624 39.128 193.176 38.936C192.728 38.7333 192.371 38.4453 192.104 38.072C191.848 37.688 191.72 37.224 191.72 36.68C191.72 36.136 191.848 35.6827 192.104 35.32C192.371 34.9467 192.733 34.6693 193.192 34.488C193.661 34.296 194.195 34.2 194.792 34.2H196.968V33.752C196.968 33.3787 196.851 33.0747 196.616 32.84C196.381 32.5947 196.008 32.472 195.496 32.472C194.995 32.472 194.621 32.5893 194.376 32.824C194.131 33.048 193.971 33.3413 193.896 33.704L192.04 33.08C192.168 32.6747 192.371 32.3067 192.648 31.976C192.936 31.6347 193.315 31.3627 193.784 31.16C194.264 30.9467 194.845 30.84 195.528 30.84C196.573 30.84 197.4 31.1013 198.008 31.624C198.616 32.1467 198.92 32.904 198.92 33.896V36.856C198.92 37.176 199.069 37.336 199.368 37.336H200.008V39H198.664C198.269 39 197.944 38.904 197.688 38.712C197.432 38.52 197.304 38.264 197.304 37.944V37.928H197C196.957 38.056 196.861 38.2267 196.712 38.44C196.563 38.6427 196.328 38.824 196.008 38.984C195.688 39.144 195.251 39.224 194.696 39.224ZM195.048 37.592C195.613 37.592 196.072 37.4373 196.424 37.128C196.787 36.808 196.968 36.3867 196.968 35.864V35.704H194.936C194.563 35.704 194.269 35.784 194.056 35.944C193.843 36.104 193.736 36.328 193.736 36.616C193.736 36.904 193.848 37.1387 194.072 37.32C194.296 37.5013 194.621 37.592 195.048 37.592ZM201.642 39V31.064H203.658V39H201.642ZM202.65 30.136C202.287 30.136 201.978 30.0187 201.722 29.784C201.477 29.5493 201.354 29.24 201.354 28.856C201.354 28.472 201.477 28.1627 201.722 27.928C201.978 27.6933 202.287 27.576 202.65 27.576C203.023 27.576 203.333 27.6933 203.578 27.928C203.823 28.1627 203.946 28.472 203.946 28.856C203.946 29.24 203.823 29.5493 203.578 29.784C203.333 30.0187 203.023 30.136 202.65 30.136ZM206.052 39V31.064H208.036V32.104H208.324C208.452 31.8267 208.692 31.5653 209.044 31.32C209.396 31.064 209.929 30.936 210.644 30.936C211.263 30.936 211.801 31.08 212.26 31.368C212.729 31.6453 213.092 32.0347 213.348 32.536C213.604 33.0267 213.732 33.6027 213.732 34.264V39H211.716V34.424C211.716 33.8267 211.567 33.3787 211.268 33.08C210.98 32.7813 210.564 32.632 210.02 32.632C209.401 32.632 208.921 32.84 208.58 33.256C208.239 33.6613 208.068 34.232 208.068 34.968V39H206.052Z" fill="white"/>
<rect x="17" y="62" width="48" height="48" rx="10" fill="url(#paint1_linear_35_23782)"/>
<rect x="17" y="62" width="48" height="48" rx="10" fill="white"/>
<g clip-path="url(#clip0_35_23782)">
<path d="M51.7455 90.6149L50.2963 95.327L47.4512 94.5788L51.7455 90.6149Z" fill="#E4761B" stroke="#E4761B" stroke-width="0.1"/>
<path d="M47.4512 94.5788L50.1953 90.9633L51.7455 90.6149L47.4512 94.5788Z" fill="#E4761B" stroke="#E4761B" stroke-width="0.1"/>
<path d="M49.6133 87.0623L51.7456 90.6149L50.1954 90.9633L49.6133 87.0623ZM49.6133 87.0623L50.9853 86.1485L51.7456 90.6149L49.6133 87.0623Z" fill="#F6851B" stroke="#F6851B" stroke-width="0.1"/>
<path d="M47.8672 84.3779L51.8111 82.8243L51.6151 83.6754L47.8672 84.3779ZM51.4904 84.6977L47.8672 84.3779L51.6151 83.6754L51.4904 84.6977Z" fill="#763D16" stroke="#763D16" stroke-width="0.1"/>
<path d="M51.4904 84.6977L50.9855 86.1485L47.8672 84.3779L51.4904 84.6977ZM52.2803 83.1842L51.6151 83.6754L51.8111 82.8243L52.2803 83.1842ZM51.4904 84.6977L51.6151 83.6754L52.1437 84.098L51.4904 84.6977Z" fill="#763D16" stroke="#763D16" stroke-width="0.1"/>
<path d="M44.3906 93.4307L45.3766 93.7334L47.4495 94.5787L44.3906 93.4307Z" fill="#E2761B" stroke="#E2761B" stroke-width="0.1"/>
<path d="M50.985 86.1485L51.4899 84.6978L51.9235 85.0176L50.985 86.1485ZM50.985 86.1485L46.8926 84.852L47.8667 84.3779L50.985 86.1485Z" fill="#763D16" stroke="#763D16" stroke-width="0.1"/>
<path d="M48.8408 79.9286L47.8667 84.3779L46.8926 84.852L48.8408 79.9286Z" fill="#763D16" stroke="#763D16" stroke-width="0.1"/>
<path d="M51.8111 82.8244L47.8672 84.3779L48.8413 79.9286L51.8111 82.8244Z" fill="#763D16" stroke="#763D16" stroke-width="0.1"/>
<path d="M48.8398 79.9286L52.956 79.4717L51.8097 82.8244L48.8398 79.9286Z" fill="#763D16" stroke="#763D16" stroke-width="0.1"/>
<path d="M50.985 86.1485L49.6129 87.0624L46.8926 84.852L50.985 86.1485Z" fill="#F6851B" stroke="#F6851B" stroke-width="0.1"/>
<path d="M52.7778 76.2675L52.956 79.4717L48.8398 79.9286L52.7778 76.2675Z" fill="#763D16" stroke="#763D16" stroke-width="0.1"/>
<path d="M52.7786 76.2675L44.5522 82.0191L44.4453 78.1181L52.7786 76.2675Z" fill="#E2761B" stroke="#E2761B" stroke-width="0.1"/>
<path d="M38.3281 77.6497L44.446 78.1181L44.5529 82.0191L38.3281 77.6497Z" fill="#F6851B" stroke="#F6851B" stroke-width="0.1"/>
<path d="M46.893 84.852L44.5527 82.019L48.8412 79.9286L46.893 84.852Z" fill="#763D16" stroke="#763D16" stroke-width="0.1"/>
<path d="M46.8918 84.852L49.6122 87.0624L45.793 87.4679L46.8918 84.852Z" fill="#E4761B" stroke="#E4761B" stroke-width="0.1"/>
<path d="M45.7941 87.4679L44.5527 82.019L46.893 84.852L45.7941 87.4679Z" fill="#E4761B" stroke="#E4761B" stroke-width="0.1"/>
<path d="M48.8412 79.9286L44.5527 82.0191L52.7791 76.2675L48.8412 79.9286Z" fill="#763D16" stroke="#763D16" stroke-width="0.1"/>
<path d="M38.3806 94.4874L40.3228 96.435L37.6797 94.1218L38.3806 94.4874Z" fill="#C0AD9E" stroke="#C0AD9E" stroke-width="0.1"/>
<path d="M47.4512 94.5788L48.3718 91.2147L50.1953 90.9634L47.4512 94.5788Z" fill="#CD6116" stroke="#CD6116" stroke-width="0.1"/>
<path d="M30.5039 85.1147L33.8657 81.7163L30.9375 84.7092L30.5039 85.1147Z" fill="#E2761B" stroke="#E2761B" stroke-width="0.1"/>
<path d="M50.1955 90.9634L48.3721 91.2147L49.6135 87.0624L50.1955 90.9634ZM44.5529 82.0191L41.2801 81.9163L38.3281 77.6497L44.5529 82.0191Z" fill="#F6851B" stroke="#F6851B" stroke-width="0.1"/>
<path d="M49.6119 87.0624L48.3705 91.2147L48.2695 89.1871L49.6119 87.0624Z" fill="#E4751F" stroke="#E4751F" stroke-width="0.1"/>
<path d="M45.793 87.4679L49.6122 87.0624L48.2698 89.1871L45.793 87.4679Z" fill="#CD6116" stroke="#CD6116" stroke-width="0.1"/>
<path d="M41.2793 81.9163L44.552 82.0191L45.7934 87.4679L41.2793 81.9163Z" fill="#F6851B" stroke="#F6851B" stroke-width="0.1"/>
<path d="M41.2796 81.9162L32.4474 74.0571L38.3276 77.6497L41.2796 81.9162ZM38.3217 95.6811L30.6477 97.9657L29.1152 92.3399L38.3217 95.6811Z" fill="#E4761B" stroke="#E4761B" stroke-width="0.1"/>
<path d="M31.6445 86.5197L34.5431 84.3322L36.9724 84.8748L31.6445 86.5197Z" fill="#763D16" stroke="#763D16" stroke-width="0.1"/>
<path d="M36.9723 84.8748L34.543 84.3322L35.8438 79.1689L36.9723 84.8748Z" fill="#763D16" stroke="#763D16" stroke-width="0.1"/>
<path d="M30.9375 84.7092L34.5429 84.3322L31.6443 86.5197L30.9375 84.7092Z" fill="#763D16" stroke="#763D16" stroke-width="0.1"/>
<path d="M48.2698 89.1871L46.773 88.4617L45.793 87.4679L48.2698 89.1871Z" fill="#CD6116" stroke="#CD6116" stroke-width="0.1"/>
<path d="M30.939 84.7092L30.6836 83.4127L34.5444 84.3322L30.939 84.7092Z" fill="#763D16" stroke="#763D16" stroke-width="0.1"/>
<path d="M46.4648 90.0952L46.7737 88.4617L48.2705 89.187L46.4648 90.0952Z" fill="#233447" stroke="#233447" stroke-width="0.1"/>
<path d="M48.3715 91.2147L46.4648 90.0952L48.2705 89.1871L48.3715 91.2147Z" fill="#F6851B" stroke="#F6851B" stroke-width="0.1"/>
<path d="M34.5428 84.3322L30.682 83.4126L30.3672 82.3217L34.5428 84.3322ZM35.8435 79.1689L34.5428 84.3322L30.3672 82.3217L35.8435 79.1689ZM35.8435 79.1689L41.2783 81.9162L36.9721 84.8748L35.8435 79.1689Z" fill="#763D16" stroke="#763D16" stroke-width="0.1"/>
<path d="M36.9727 84.8749L41.2789 81.9163L43.1974 87.5536L36.9727 84.8749ZM43.1974 87.5536L37.2459 87.4336L36.9727 84.8749L43.1974 87.5536Z" fill="#E4761B" stroke="#E4761B" stroke-width="0.1"/>
<path d="M31.6445 86.5198L36.9724 84.8749L37.2456 87.4336L31.6445 86.5198ZM45.7928 87.4679L43.1971 87.5536L41.2786 81.9163L45.7928 87.4679Z" fill="#F6851B" stroke="#F6851B" stroke-width="0.1"/>
<path d="M46.773 88.4617L46.4641 90.0952L45.793 87.4679L46.773 88.4617Z" fill="#CD6116" stroke="#CD6116" stroke-width="0.1"/>
<path d="M32.4473 74.0571L41.2795 81.9162L35.8447 79.169L32.4473 74.0571Z" fill="#763D16" stroke="#763D16" stroke-width="0.1"/>
<path d="M29.1152 92.3398L36.5636 92.0428L38.3217 95.6811L29.1152 92.3398Z" fill="#E4761B" stroke="#E4761B" stroke-width="0.1"/>
<path d="M38.3206 95.6811L36.5625 92.0428L40.2213 91.8715L38.3206 95.6811Z" fill="#CD6116" stroke="#CD6116" stroke-width="0.1"/>
<path d="M46.4649 90.0952L48.3716 91.2147L49.4229 93.5964L46.4649 90.0952ZM37.2466 87.4336L29.1152 92.3399L31.6455 86.5198L37.2466 87.4336ZM36.5636 92.0429L29.1152 92.3399L37.2466 87.4336L36.5636 92.0429ZM45.7938 87.4679L46.2808 89.1699L43.9287 89.3013L45.7938 87.4679ZM43.9287 89.3013L43.1981 87.5536L45.7938 87.4679L43.9287 89.3013Z" fill="#F6851B" stroke="#F6851B" stroke-width="0.1"/>
<path d="M40.322 96.435L38.3203 95.6811L45.2816 96.8063L40.322 96.435Z" fill="#C0AD9E" stroke="#C0AD9E" stroke-width="0.1"/>
<path d="M31.6443 86.5197L30.5039 85.1147L30.9375 84.7092L31.6443 86.5197Z" fill="#763D16" stroke="#763D16" stroke-width="0.1"/>
<path d="M46.0716 95.9724L45.2816 96.8063L38.3203 95.6811L46.0716 95.9724Z" fill="#D7C1B3" stroke="#D7C1B3" stroke-width="0.1"/>
<path d="M46.4458 93.9276L38.3203 95.6811L40.221 91.8715L46.4458 93.9276Z" fill="#E4761B" stroke="#E4761B" stroke-width="0.1"/>
<path d="M38.3203 95.6811L46.4458 93.9277L46.0716 95.9724L38.3203 95.6811Z" fill="#D7C1B3" stroke="#D7C1B3" stroke-width="0.1"/>
<path d="M30.3688 82.3218L30.1016 77.9296L35.8452 79.169L30.3688 82.3218ZM30.9391 84.7092L30.1491 83.9381L30.6836 83.4127L30.9391 84.7092Z" fill="#763D16" stroke="#763D16" stroke-width="0.1"/>
<path d="M41.8672 88.6844L43.1977 87.5535L43.0076 90.3179L41.8672 88.6844Z" fill="#CD6116" stroke="#CD6116" stroke-width="0.1"/>
<path d="M43.1984 87.5535L41.868 88.6844L39.9316 89.6497L43.1984 87.5535Z" fill="#CD6116" stroke="#CD6116" stroke-width="0.1"/>
<path d="M49.4228 93.5964L49.0605 93.3394L46.4648 90.0952L49.4228 93.5964Z" fill="#F6851B" stroke="#F6851B" stroke-width="0.1"/>
<path d="M39.9308 89.6497L37.2461 87.4336L43.1976 87.5535L39.9308 89.6497Z" fill="#CD6116" stroke="#CD6116" stroke-width="0.1"/>
<path d="M43.0078 90.3179L43.1979 87.5535L43.9285 89.3013L43.0078 90.3179Z" fill="#E4751F" stroke="#E4751F" stroke-width="0.1"/>
<path d="M29.8867 82.7559L30.3678 82.3218L30.6826 83.4127L29.8867 82.7559Z" fill="#763D16" stroke="#763D16" stroke-width="0.1"/>
<path d="M43.0084 90.318L39.9316 89.6497L41.868 88.6844L43.0084 90.318Z" fill="#233447" stroke="#233447" stroke-width="0.1"/>
<path d="M35.8452 79.169L30.1016 77.9296L32.4477 74.0571L35.8452 79.169Z" fill="#763D16" stroke="#763D16" stroke-width="0.1"/>
<path d="M45.2819 96.8063L45.6086 97.663L40.3223 96.4351L45.2819 96.8063Z" fill="#C0AD9E" stroke="#C0AD9E" stroke-width="0.1"/>
<path d="M40.2227 91.8715L39.9316 89.6497L43.0084 90.318L40.2227 91.8715Z" fill="#F6851B" stroke="#F6851B" stroke-width="0.1"/>
<path d="M37.2461 87.4336L39.9308 89.6497L40.2219 91.8715L37.2461 87.4336Z" fill="#E4751F" stroke="#E4751F" stroke-width="0.1"/>
<path d="M43.9277 89.3013L46.2798 89.1699L49.0595 93.3394L43.9277 89.3013ZM37.2456 87.4336L40.2213 91.8715L36.5625 92.0428L37.2456 87.4336Z" fill="#F6851B" stroke="#F6851B" stroke-width="0.1"/>
<path d="M43.9285 89.3013L46.8508 93.5792L43.0078 90.3179L43.9285 89.3013Z" fill="#E4751F" stroke="#E4751F" stroke-width="0.1"/>
<path d="M43.0078 90.3179L46.8508 93.5792L46.4469 93.9276L43.0078 90.3179Z" fill="#F6851B" stroke="#F6851B" stroke-width="0.1"/>
<path d="M46.4474 93.9276L40.2227 91.8715L43.0084 90.3179L46.4474 93.9276ZM49.0609 93.3393L46.8513 93.5792L43.929 89.3013L49.0609 93.3393Z" fill="#F6851B" stroke="#F6851B" stroke-width="0.1"/>
<path d="M49.6429 95.3499L48.6926 97.1833L45.6099 97.663L49.6429 95.3499ZM45.6099 97.663L45.2832 96.8063L46.0732 95.9724L45.6099 97.663Z" fill="#C0AD9E" stroke="#C0AD9E" stroke-width="0.1"/>
<path d="M46.0727 95.9724L46.6548 95.7497L45.6094 97.663L46.0727 95.9724ZM45.6094 97.663L46.6548 95.7497L49.6424 95.3499L45.6094 97.663Z" fill="#C0AD9E" stroke="#C0AD9E" stroke-width="0.1"/>
<path d="M49.0592 93.3394L49.7898 93.7677L47.5684 94.0247L49.0592 93.3394Z" fill="#131316" stroke="#131316" stroke-width="0.1"/>
<path d="M47.5683 94.0247L46.8496 93.5792L49.0592 93.3394L47.5683 94.0247ZM47.3129 94.3617L50.0154 94.0476L49.6412 95.3498L47.3129 94.3617Z" fill="#131316" stroke="#131316" stroke-width="0.1"/>
<path d="M49.642 95.3498L46.6544 95.7496L47.3137 94.3617L49.642 95.3498ZM46.6544 95.7496L46.0723 95.9724L46.4465 93.9276L46.6544 95.7496ZM46.4465 93.9276L46.8504 93.5792L47.5691 94.0247L46.4465 93.9276ZM49.7905 93.7677L50.0162 94.0476L47.3137 94.3617L49.7905 93.7677Z" fill="#131316" stroke="#131316" stroke-width="0.1"/>
<path d="M47.3145 94.3617L47.5699 94.0247L49.7913 93.7677L47.3145 94.3617ZM46.4473 93.9276L47.3145 94.3617L46.6552 95.7496L46.4473 93.9276Z" fill="#131316" stroke="#131316" stroke-width="0.1"/>
<path d="M47.5699 94.0248L47.3145 94.3618L46.4473 93.9277L47.5699 94.0248Z" fill="#131316" stroke="#131316" stroke-width="0.1"/>
</g>
<rect x="72" y="62" width="48" height="48" rx="10" fill="url(#paint2_linear_35_23782)"/>
<rect x="72" y="62" width="48" height="48" rx="10" fill="white"/>
<path d="M96 74C102.627 74 108 79.3727 108 86C108 92.6273 102.627 98 96 98C89.3727 98 84 92.6273 84 86C84 79.3727 89.3727 74 96 74Z" fill="#0052FF"/>
<path d="M96.0048 90.217C93.6725 90.217 91.7879 88.3272 91.7879 86.0001C91.7879 83.673 93.6777 81.7832 96.0048 81.7832C98.0924 81.7832 99.8261 83.3033 100.159 85.2973H104.407C104.048 80.9658 100.425 77.561 95.9996 77.561C91.3402 77.561 87.5605 81.3406 87.5605 86.0001C87.5605 90.6595 91.3402 94.4391 95.9996 94.4391C100.425 94.4391 104.048 91.0344 104.407 86.7029H100.154C99.8209 88.6968 98.0924 90.217 96.0048 90.217Z" fill="white"/>
<rect x="127" y="62" width="48" height="48" rx="10" fill="url(#paint3_linear_35_23782)"/>
<rect x="127" y="62" width="48" height="48" rx="10" fill="white"/>
<path d="M155.828 86L163 93.1642H160.462C160.034 93.1642 159.607 92.9851 159.303 92.682L152.641 86L159.331 79.3042C159.634 79.0011 160.048 78.822 160.49 78.8358H163L155.828 86ZM142.683 79.3042C142.379 79.0011 141.966 78.822 141.524 78.8358H139L146.172 86L139 93.1642H141.538C141.966 93.1642 142.393 92.9851 142.697 92.682L149.372 85.9862L142.683 79.3042ZM151 87.6395L144.297 94.3215C143.993 94.6246 143.828 95.0379 143.828 95.4788V98L151 90.8358L158.172 98V95.465C158.172 95.0379 158.007 94.6108 157.703 94.3077L151 87.6395ZM151 84.3605L157.703 77.6785C158.007 77.3754 158.172 76.9621 158.172 76.5212V74L151 81.1642L143.828 74V76.5212C143.828 76.9483 143.993 77.3754 144.297 77.6785L151 84.3605Z" fill="url(#paint4_linear_35_23782)"/>
<rect x="182" y="62" width="48" height="48" rx="10" fill="url(#paint5_linear_35_23782)"/>
<rect x="182" y="62" width="48" height="48" rx="10" fill="white"/>
<rect x="194.25" y="74.25" width="23.5" height="23.5" rx="5.75" fill="white" stroke="#E3E3E8" stroke-width="0.5"/>
<path d="M205.927 78.6036C208.485 80.5858 211.419 80.4635 212.257 80.4635C212.074 91.7368 210.677 90.235 205.927 93.3959C201.176 90.2354 199.788 91.7368 199.605 80.4635C200.434 80.4635 203.368 80.5858 205.927 78.6036Z" fill="white"/>
<path d="M205.926 78.6036L206.296 78.1262C206.19 78.0444 206.06 78 205.926 78C205.792 78 205.663 78.0444 205.557 78.1262L205.926 78.6036ZM212.257 80.4634L212.861 80.4732C212.862 80.3931 212.848 80.3135 212.818 80.2391C212.788 80.1647 212.744 80.097 212.687 80.0399C212.631 79.9828 212.564 79.9374 212.49 79.9065C212.416 79.8755 212.337 79.8596 212.257 79.8596V80.4634ZM205.926 93.3959L205.592 93.8987C205.691 93.9648 205.807 94 205.926 94C206.045 94 206.162 93.9648 206.261 93.8987L205.926 93.3959ZM199.605 80.4634V79.8596C199.525 79.8596 199.446 79.8756 199.372 79.9066C199.298 79.9376 199.231 79.9829 199.175 80.04C199.118 80.0971 199.074 80.1648 199.044 80.2392C199.015 80.3136 199 80.3931 199.001 80.4732L199.605 80.4634ZM205.557 79.0809C208.297 81.2043 211.433 81.0676 212.257 81.0676V79.8596C211.405 79.8596 208.673 79.9671 206.296 78.1262L205.557 79.0809ZM211.653 80.4535C211.608 83.2586 211.489 85.2375 211.262 86.7033C211.038 88.1538 210.717 89.0228 210.304 89.6336C209.886 90.2677 209.36 90.6441 208.584 91.1088C207.8 91.5783 206.809 92.0844 205.592 92.8931L206.261 93.8987C207.419 93.127 208.384 92.6353 209.204 92.1452C210.03 91.6498 210.757 91.1047 211.305 90.31C211.858 89.4915 212.218 88.4252 212.454 86.888C212.689 85.366 212.814 83.305 212.86 80.4732L211.653 80.4535ZM206.261 92.8931C205.044 92.0844 204.054 91.5796 203.27 91.1088C202.494 90.6445 201.97 90.2681 201.553 89.634C201.143 89.0236 200.822 88.1563 200.598 86.7037C200.371 85.2375 200.253 83.2586 200.208 80.4535L199 80.4732C199.046 83.3054 199.17 85.366 199.404 86.8876C199.641 88.4247 200 89.4911 200.554 90.3096C201.1 91.1043 201.826 91.6498 202.651 92.1452C203.47 92.6349 204.435 93.127 205.593 93.8987L206.261 92.8931ZM199.604 81.0676C200.419 81.0676 203.555 81.2043 206.294 79.0809L205.556 78.1262C203.179 79.9671 200.446 79.8596 199.604 79.8596V81.0676Z" fill="#3375BB"/>
<rect x="0.5" y="0.5" width="246" height="129" rx="19.5" stroke="url(#paint6_linear_35_23782)" style="mix-blend-mode:overlay"/>
</g>
<defs>
<filter id="filter0_b_35_23782" x="-9" y="-9" width="265" height="148" filterUnits="userSpaceOnUse" color-interpolation-filters="sRGB">
<feFlood flood-opacity="0" result="BackgroundImageFix"/>
<feGaussianBlur in="BackgroundImageFix" stdDeviation="4.5"/>
<feComposite in2="SourceAlpha" operator="in" result="effect1_backgroundBlur_35_23782"/>
<feBlend mode="normal" in="SourceGraphic" in2="effect1_backgroundBlur_35_23782" result="shape"/>
</filter>
<linearGradient id="paint0_linear_35_23782" x1="-449.932" y1="-403.542" x2="-117.779" y2="273.66" gradientUnits="userSpaceOnUse">
<stop stop-color="white"/>
<stop offset="0.939091" stop-color="#1E2144"/>
</linearGradient>
<linearGradient id="paint1_linear_35_23782" x1="17" y1="86" x2="65" y2="86" gradientUnits="userSpaceOnUse">
<stop stop-color="#00F5A0"/>
<stop offset="1" stop-color="#00D9F5"/>
</linearGradient>
<linearGradient id="paint2_linear_35_23782" x1="72" y1="86" x2="120" y2="86" gradientUnits="userSpaceOnUse">
<stop stop-color="#00F5A0"/>
<stop offset="1" stop-color="#00D9F5"/>
</linearGradient>
<linearGradient id="paint3_linear_35_23782" x1="127" y1="86" x2="175" y2="86" gradientUnits="userSpaceOnUse">
<stop stop-color="#00F5A0"/>
<stop offset="1" stop-color="#00D9F5"/>
</linearGradient>
<linearGradient id="paint4_linear_35_23782" x1="138.992" y1="85.9974" x2="154.167" y2="85.9974" gradientUnits="userSpaceOnUse">
<stop stop-color="#00BFFF"/>
<stop offset="1" stop-color="#6619FF"/>
</linearGradient>
<linearGradient id="paint5_linear_35_23782" x1="182" y1="86" x2="230" y2="86" gradientUnits="userSpaceOnUse">
<stop stop-color="#00F5A0"/>
<stop offset="1" stop-color="#00D9F5"/>
</linearGradient>
<linearGradient id="paint6_linear_35_23782" x1="99.8613" y1="-65.3406" x2="-56.2564" y2="204.955" gradientUnits="userSpaceOnUse">
<stop stop-color="#5F43EF"/>
<stop offset="1" stop-color="#5F43EF" stop-opacity="0"/>
</linearGradient>
<clipPath id="clip0_35_23782">
<rect width="24" height="24" fill="white" transform="translate(29 74)"/>
</clipPath>
</defs>
</svg>
