<svg width="185" height="168" viewBox="0 0 185 168" fill="none" xmlns="http://www.w3.org/2000/svg">
<g filter="url(#filter0_b_35_23744)">
<rect width="185" height="168" rx="20" fill="url(#paint0_linear_35_23744)" fill-opacity="0.7"/>
<rect x="73.5" y="23.8" width="7.6" height="30.4" rx="3.8" fill="white"/>
<rect x="88.6992" y="20" width="7.6" height="38" rx="3.8" fill="white"/>
<rect x="103.9" y="23.8" width="7.6" height="30.4" rx="3.8" fill="white"/>
<path d="M45.1976 84.224C43.811 84.224 42.7123 83.84 41.9016 83.072C41.091 82.2933 40.6856 81.184 40.6856 79.744V77.056C40.6856 75.616 41.091 74.512 41.9016 73.744C42.7123 72.9653 43.811 72.576 45.1976 72.576C46.5736 72.576 47.635 72.9547 48.3816 73.712C49.139 74.4587 49.5176 75.488 49.5176 76.8V76.896H47.4376V76.736C47.4376 76.0747 47.251 75.5307 46.8776 75.104C46.515 74.6773 45.955 74.464 45.1976 74.464C44.451 74.464 43.8643 74.6933 43.4376 75.152C43.011 75.6107 42.7976 76.2347 42.7976 77.024V79.776C42.7976 80.5547 43.011 81.1787 43.4376 81.648C43.8643 82.1067 44.451 82.336 45.1976 82.336C45.955 82.336 46.515 82.1227 46.8776 81.696C47.251 81.2587 47.4376 80.7147 47.4376 80.064V79.776H49.5176V80C49.5176 81.312 49.139 82.3467 48.3816 83.104C47.635 83.8507 46.5736 84.224 45.1976 84.224ZM55.2385 84.224C54.4492 84.224 53.7398 84.064 53.1105 83.744C52.4812 83.424 51.9852 82.96 51.6225 82.352C51.2598 81.744 51.0785 81.0133 51.0785 80.16V79.904C51.0785 79.0507 51.2598 78.32 51.6225 77.712C51.9852 77.104 52.4812 76.64 53.1105 76.32C53.7398 76 54.4492 75.84 55.2385 75.84C56.0278 75.84 56.7372 76 57.3665 76.32C57.9958 76.64 58.4918 77.104 58.8545 77.712C59.2172 78.32 59.3985 79.0507 59.3985 79.904V80.16C59.3985 81.0133 59.2172 81.744 58.8545 82.352C58.4918 82.96 57.9958 83.424 57.3665 83.744C56.7372 84.064 56.0278 84.224 55.2385 84.224ZM55.2385 82.432C55.8572 82.432 56.3692 82.2347 56.7745 81.84C57.1798 81.4347 57.3825 80.8587 57.3825 80.112V79.952C57.3825 79.2053 57.1798 78.6347 56.7745 78.24C56.3798 77.8347 55.8678 77.632 55.2385 77.632C54.6198 77.632 54.1078 77.8347 53.7025 78.24C53.2972 78.6347 53.0945 79.2053 53.0945 79.952V80.112C53.0945 80.8587 53.2972 81.4347 53.7025 81.84C54.1078 82.2347 54.6198 82.432 55.2385 82.432ZM61.4194 84V76.064H63.4034V77.104H63.6914C63.8194 76.8267 64.0594 76.5653 64.4114 76.32C64.7634 76.064 65.2967 75.936 66.0114 75.936C66.63 75.936 67.1687 76.08 67.6274 76.368C68.0967 76.6453 68.4594 77.0347 68.7154 77.536C68.9714 78.0267 69.0994 78.6027 69.0994 79.264V84H67.0834V79.424C67.0834 78.8267 66.934 78.3787 66.6354 78.08C66.3474 77.7813 65.9314 77.632 65.3874 77.632C64.7687 77.632 64.2887 77.84 63.9474 78.256C63.606 78.6613 63.4354 79.232 63.4354 79.968V84H61.4194ZM71.4387 84V76.064H73.4227V77.104H73.7107C73.8387 76.8267 74.0787 76.5653 74.4307 76.32C74.7827 76.064 75.3161 75.936 76.0307 75.936C76.6494 75.936 77.1881 76.08 77.6467 76.368C78.1161 76.6453 78.4787 77.0347 78.7347 77.536C78.9907 78.0267 79.1187 78.6027 79.1187 79.264V84H77.1027V79.424C77.1027 78.8267 76.9534 78.3787 76.6547 78.08C76.3667 77.7813 75.9507 77.632 75.4067 77.632C74.7881 77.632 74.3081 77.84 73.9667 78.256C73.6254 78.6613 73.4547 79.232 73.4547 79.968V84H71.4387ZM85.0741 84.224C84.2848 84.224 83.5861 84.0587 82.9781 83.728C82.3808 83.3867 81.9115 82.912 81.5701 82.304C81.2395 81.6853 81.0741 80.96 81.0741 80.128V79.936C81.0741 79.104 81.2395 78.384 81.5701 77.776C81.9008 77.1573 82.3648 76.6827 82.9621 76.352C83.5595 76.0107 84.2528 75.84 85.0421 75.84C85.8208 75.84 86.4981 76.016 87.0741 76.368C87.6501 76.7093 88.0981 77.1893 88.4181 77.808C88.7381 78.416 88.8981 79.1253 88.8981 79.936V80.624H83.1221C83.1435 81.168 83.3461 81.6107 83.7301 81.952C84.1141 82.2933 84.5835 82.464 85.1381 82.464C85.7035 82.464 86.1195 82.3413 86.3861 82.096C86.6528 81.8507 86.8555 81.5787 86.9941 81.28L88.6421 82.144C88.4928 82.4213 88.2741 82.7253 87.9861 83.056C87.7088 83.376 87.3355 83.6533 86.8661 83.888C86.3968 84.112 85.7995 84.224 85.0741 84.224ZM83.1381 79.12H86.8501C86.8075 78.6613 86.6208 78.2933 86.2901 78.016C85.9701 77.7387 85.5488 77.6 85.0261 77.6C84.4821 77.6 84.0501 77.7387 83.7301 78.016C83.4101 78.2933 83.2128 78.6613 83.1381 79.12ZM94.5805 84.224C93.8125 84.224 93.1138 84.064 92.4845 83.744C91.8658 83.424 91.3752 82.96 91.0125 82.352C90.6498 81.744 90.4685 81.008 90.4685 80.144V79.92C90.4685 79.056 90.6498 78.32 91.0125 77.712C91.3752 77.104 91.8658 76.64 92.4845 76.32C93.1138 76 93.8125 75.84 94.5805 75.84C95.3378 75.84 95.9885 75.9733 96.5325 76.24C97.0765 76.5067 97.5138 76.8747 97.8445 77.344C98.1858 77.8027 98.4098 78.3253 98.5165 78.912L96.5645 79.328C96.5218 79.008 96.4258 78.72 96.2765 78.464C96.1272 78.208 95.9138 78.0053 95.6365 77.856C95.3698 77.7067 95.0338 77.632 94.6285 77.632C94.2232 77.632 93.8552 77.7227 93.5245 77.904C93.2045 78.0747 92.9485 78.336 92.7565 78.688C92.5752 79.0293 92.4845 79.4507 92.4845 79.952V80.112C92.4845 80.6133 92.5752 81.04 92.7565 81.392C92.9485 81.7333 93.2045 81.9947 93.5245 82.176C93.8552 82.3467 94.2232 82.432 94.6285 82.432C95.2365 82.432 95.6952 82.2773 96.0045 81.968C96.3245 81.648 96.5272 81.232 96.6125 80.72L98.5645 81.184C98.4258 81.7493 98.1858 82.2667 97.8445 82.736C97.5138 83.1947 97.0765 83.5573 96.5325 83.824C95.9885 84.0907 95.3378 84.224 94.5805 84.224ZM103.162 84C102.639 84 102.213 83.84 101.882 83.52C101.562 83.1893 101.402 82.752 101.402 82.208V77.728H99.4179V76.064H101.402V73.6H103.418V76.064H105.594V77.728H103.418V81.856C103.418 82.176 103.567 82.336 103.866 82.336H105.402V84H103.162ZM112.441 84L111.321 76.064H113.321L114.025 82.64H114.313L115.337 76.064H118.569L119.593 82.64H119.881L120.585 76.064H122.585L121.465 84H118.121L117.097 77.424H116.809L115.785 84H112.441ZM124.508 84V76.064H126.524V84H124.508ZM125.516 75.136C125.153 75.136 124.844 75.0187 124.588 74.784C124.343 74.5493 124.22 74.24 124.22 73.856C124.22 73.472 124.343 73.1627 124.588 72.928C124.844 72.6933 125.153 72.576 125.516 72.576C125.889 72.576 126.199 72.6933 126.444 72.928C126.689 73.1627 126.812 73.472 126.812 73.856C126.812 74.24 126.689 74.5493 126.444 74.784C126.199 75.0187 125.889 75.136 125.516 75.136ZM131.958 84C131.435 84 131.009 83.84 130.678 83.52C130.358 83.1893 130.198 82.752 130.198 82.208V77.728H128.214V76.064H130.198V73.6H132.214V76.064H134.39V77.728H132.214V81.856C132.214 82.176 132.363 82.336 132.662 82.336H134.198V84H131.958ZM136.375 84V72.8H138.391V77.04H138.679C138.764 76.8693 138.898 76.6987 139.079 76.528C139.26 76.3573 139.5 76.2187 139.799 76.112C140.108 75.9947 140.498 75.936 140.967 75.936C141.586 75.936 142.124 76.08 142.583 76.368C143.052 76.6453 143.415 77.0347 143.671 77.536C143.927 78.0267 144.055 78.6027 144.055 79.264V84H142.039V79.424C142.039 78.8267 141.89 78.3787 141.591 78.08C141.303 77.7813 140.887 77.632 140.343 77.632C139.724 77.632 139.244 77.84 138.903 78.256C138.562 78.6613 138.391 79.232 138.391 79.968V84H136.375ZM61.1846 104.224C60.4166 104.224 59.7179 104.064 59.0886 103.744C58.4699 103.424 57.9792 102.96 57.6166 102.352C57.2539 101.744 57.0726 101.008 57.0726 100.144V99.92C57.0726 99.056 57.2539 98.32 57.6166 97.712C57.9792 97.104 58.4699 96.64 59.0886 96.32C59.7179 96 60.4166 95.84 61.1846 95.84C61.9419 95.84 62.5926 95.9733 63.1366 96.24C63.6806 96.5067 64.1179 96.8747 64.4486 97.344C64.7899 97.8027 65.0139 98.3253 65.1206 98.912L63.1686 99.328C63.1259 99.008 63.0299 98.72 62.8806 98.464C62.7312 98.208 62.5179 98.0053 62.2406 97.856C61.9739 97.7067 61.6379 97.632 61.2326 97.632C60.8272 97.632 60.4592 97.7227 60.1286 97.904C59.8086 98.0747 59.5526 98.336 59.3606 98.688C59.1792 99.0293 59.0886 99.4507 59.0886 99.952V100.112C59.0886 100.613 59.1792 101.04 59.3606 101.392C59.5526 101.733 59.8086 101.995 60.1286 102.176C60.4592 102.347 60.8272 102.432 61.2326 102.432C61.8406 102.432 62.2992 102.277 62.6086 101.968C62.9286 101.648 63.1312 101.232 63.2166 100.72L65.1686 101.184C65.0299 101.749 64.7899 102.267 64.4486 102.736C64.1179 103.195 63.6806 103.557 63.1366 103.824C62.5926 104.091 61.9419 104.224 61.1846 104.224ZM66.9916 104V96.064H68.9756V96.96H69.2636C69.3809 96.64 69.5729 96.4053 69.8396 96.256C70.1169 96.1067 70.4369 96.032 70.7996 96.032H71.7596V97.824H70.7676C70.2556 97.824 69.8342 97.9627 69.5036 98.24C69.1729 98.5067 69.0076 98.9227 69.0076 99.488V104H66.9916ZM76.8301 104.224C76.0407 104.224 75.3421 104.059 74.7341 103.728C74.1367 103.387 73.6674 102.912 73.3261 102.304C72.9954 101.685 72.8301 100.96 72.8301 100.128V99.936C72.8301 99.104 72.9954 98.384 73.3261 97.776C73.6567 97.1573 74.1207 96.6827 74.7181 96.352C75.3154 96.0107 76.0087 95.84 76.7981 95.84C77.5767 95.84 78.2541 96.016 78.8301 96.368C79.4061 96.7093 79.8541 97.1893 80.1741 97.808C80.4941 98.416 80.6541 99.1253 80.6541 99.936V100.624H74.8781C74.8994 101.168 75.1021 101.611 75.4861 101.952C75.8701 102.293 76.3394 102.464 76.8941 102.464C77.4594 102.464 77.8754 102.341 78.1421 102.096C78.4087 101.851 78.6114 101.579 78.7501 101.28L80.3981 102.144C80.2487 102.421 80.0301 102.725 79.7421 103.056C79.4647 103.376 79.0914 103.653 78.6221 103.888C78.1527 104.112 77.5554 104.224 76.8301 104.224ZM74.8941 99.12H78.6061C78.5634 98.6613 78.3767 98.2933 78.0461 98.016C77.7261 97.7387 77.3047 97.6 76.7821 97.6C76.2381 97.6 75.8061 97.7387 75.4861 98.016C75.1661 98.2933 74.9687 98.6613 74.8941 99.12ZM85.0724 104.224C84.5071 104.224 84.0004 104.128 83.5524 103.936C83.1044 103.733 82.7471 103.445 82.4804 103.072C82.2244 102.688 82.0964 102.224 82.0964 101.68C82.0964 101.136 82.2244 100.683 82.4804 100.32C82.7471 99.9467 83.1098 99.6693 83.5684 99.488C84.0378 99.296 84.5711 99.2 85.1684 99.2H87.3444V98.752C87.3444 98.3787 87.2271 98.0747 86.9924 97.84C86.7578 97.5947 86.3844 97.472 85.8724 97.472C85.3711 97.472 84.9978 97.5893 84.7524 97.824C84.5071 98.048 84.3471 98.3413 84.2724 98.704L82.4164 98.08C82.5444 97.6747 82.7471 97.3067 83.0244 96.976C83.3124 96.6347 83.6911 96.3627 84.1604 96.16C84.6404 95.9467 85.2218 95.84 85.9044 95.84C86.9498 95.84 87.7764 96.1013 88.3844 96.624C88.9924 97.1467 89.2964 97.904 89.2964 98.896V101.856C89.2964 102.176 89.4458 102.336 89.7444 102.336H90.3844V104H89.0404C88.6458 104 88.3204 103.904 88.0644 103.712C87.8084 103.52 87.6804 103.264 87.6804 102.944V102.928H87.3764C87.3338 103.056 87.2378 103.227 87.0884 103.44C86.9391 103.643 86.7044 103.824 86.3844 103.984C86.0644 104.144 85.6271 104.224 85.0724 104.224ZM85.4244 102.592C85.9898 102.592 86.4484 102.437 86.8004 102.128C87.1631 101.808 87.3444 101.387 87.3444 100.864V100.704H85.3124C84.9391 100.704 84.6458 100.784 84.4324 100.944C84.2191 101.104 84.1124 101.328 84.1124 101.616C84.1124 101.904 84.2244 102.139 84.4484 102.32C84.6724 102.501 84.9978 102.592 85.4244 102.592ZM94.4803 104C93.9576 104 93.531 103.84 93.2003 103.52C92.8803 103.189 92.7203 102.752 92.7203 102.208V97.728H90.7363V96.064H92.7203V93.6H94.7363V96.064H96.9123V97.728H94.7363V101.856C94.7363 102.176 94.8856 102.336 95.1843 102.336H96.7203V104H94.4803ZM98.8972 104V96.064H100.913V104H98.8972ZM99.9052 95.136C99.5425 95.136 99.2332 95.0187 98.9772 94.784C98.7319 94.5493 98.6092 94.24 98.6092 93.856C98.6092 93.472 98.7319 93.1627 98.9772 92.928C99.2332 92.6933 99.5425 92.576 99.9052 92.576C100.279 92.576 100.588 92.6933 100.833 92.928C101.079 93.1627 101.201 93.472 101.201 93.856C101.201 94.24 101.079 94.5493 100.833 94.784C100.588 95.0187 100.279 95.136 99.9052 95.136ZM104.971 104L102.443 96.064H104.587L106.427 102.528H106.715L108.555 96.064H110.699L108.171 104H104.971ZM115.614 104.224C114.825 104.224 114.126 104.059 113.518 103.728C112.921 103.387 112.452 102.912 112.11 102.304C111.78 101.685 111.614 100.96 111.614 100.128V99.936C111.614 99.104 111.78 98.384 112.11 97.776C112.441 97.1573 112.905 96.6827 113.502 96.352C114.1 96.0107 114.793 95.84 115.582 95.84C116.361 95.84 117.038 96.016 117.614 96.368C118.19 96.7093 118.638 97.1893 118.958 97.808C119.278 98.416 119.438 99.1253 119.438 99.936V100.624H113.662C113.684 101.168 113.886 101.611 114.27 101.952C114.654 102.293 115.124 102.464 115.678 102.464C116.244 102.464 116.66 102.341 116.926 102.096C117.193 101.851 117.396 101.579 117.534 101.28L119.182 102.144C119.033 102.421 118.814 102.725 118.526 103.056C118.249 103.376 117.876 103.653 117.406 103.888C116.937 104.112 116.34 104.224 115.614 104.224ZM113.678 99.12H117.39C117.348 98.6613 117.161 98.2933 116.83 98.016C116.51 97.7387 116.089 97.6 115.566 97.6C115.022 97.6 114.59 97.7387 114.27 98.016C113.95 98.2933 113.753 98.6613 113.678 99.12ZM124.689 104.224C123.654 104.224 122.806 104 122.145 103.552C121.483 103.104 121.083 102.464 120.945 101.632L122.801 101.152C122.875 101.525 122.998 101.819 123.169 102.032C123.35 102.245 123.569 102.4 123.825 102.496C124.091 102.581 124.379 102.624 124.689 102.624C125.158 102.624 125.505 102.544 125.729 102.384C125.953 102.213 126.065 102.005 126.065 101.76C126.065 101.515 125.958 101.328 125.745 101.2C125.531 101.061 125.19 100.949 124.721 100.864L124.273 100.784C123.718 100.677 123.211 100.533 122.753 100.352C122.294 100.16 121.926 99.8987 121.649 99.568C121.371 99.2373 121.233 98.8107 121.233 98.288C121.233 97.4987 121.521 96.896 122.097 96.48C122.673 96.0533 123.43 95.84 124.369 95.84C125.254 95.84 125.99 96.0373 126.577 96.432C127.163 96.8267 127.547 97.344 127.729 97.984L125.857 98.56C125.771 98.1547 125.595 97.8667 125.329 97.696C125.073 97.5253 124.753 97.44 124.369 97.44C123.985 97.44 123.691 97.5093 123.489 97.648C123.286 97.776 123.185 97.9573 123.185 98.192C123.185 98.448 123.291 98.64 123.505 98.768C123.718 98.8853 124.006 98.976 124.369 99.04L124.817 99.12C125.414 99.2267 125.953 99.3707 126.433 99.552C126.923 99.7227 127.307 99.9733 127.585 100.304C127.873 100.624 128.017 101.061 128.017 101.616C128.017 102.448 127.713 103.093 127.105 103.552C126.507 104 125.702 104.224 124.689 104.224Z" fill="white"/>
<path d="M43.6602 122.644V121.6H37.7322V130H38.9322V126.604H43.1442V125.572H38.9322V122.644H43.6602ZM45.7602 122.416C46.2162 122.416 46.5402 122.08 46.5402 121.648C46.5402 121.24 46.2042 120.916 45.7602 120.916C45.3162 120.916 44.9802 121.252 44.9802 121.672C44.9802 122.092 45.3162 122.416 45.7602 122.416ZM45.1842 130H46.3362V123.64H45.1842V130ZM52.0517 123.58C51.0437 123.58 50.2277 123.952 49.7597 124.6V123.64H48.6557V130H49.8077V126.724C49.8077 125.344 50.5997 124.612 51.8237 124.612C52.9157 124.612 53.5397 125.224 53.5397 126.472V130H54.6917V126.34C54.6917 124.468 53.5997 123.58 52.0517 123.58ZM61.8269 121.096V124.6C61.2989 123.916 60.5069 123.58 59.6069 123.58C57.7469 123.58 56.3909 124.876 56.3909 126.82C56.3909 128.764 57.7469 130.072 59.6069 130.072C60.5429 130.072 61.3589 129.712 61.8749 128.992V130H62.9789V121.096H61.8269ZM59.7029 129.064C58.4789 129.064 57.5549 128.176 57.5549 126.82C57.5549 125.464 58.4789 124.588 59.7029 124.588C60.9149 124.588 61.8389 125.464 61.8389 126.82C61.8389 128.176 60.9149 129.064 59.7029 129.064ZM71.8372 128.8C71.5972 128.992 71.2732 129.1 70.9372 129.1C70.3012 129.1 69.9412 128.716 69.9412 128.032V124.588H71.7652V123.64H69.9412V122.248H68.7892V123.64H67.7092V124.588H68.7892V128.08C68.7892 129.364 69.5212 130.072 70.8052 130.072C71.3212 130.072 71.8492 129.928 72.1972 129.628L71.8372 128.8ZM77.106 123.58C76.134 123.58 75.342 123.928 74.862 124.54V121.096H73.71V130H74.862V126.724C74.862 125.344 75.654 124.612 76.878 124.612C77.97 124.612 78.594 125.224 78.594 126.472V130H79.746V126.34C79.746 124.468 78.654 123.58 77.106 123.58ZM84.7571 130.072C86.6651 130.072 88.0571 128.716 88.0571 126.82C88.0571 124.924 86.6651 123.58 84.7571 123.58C82.8491 123.58 81.4451 124.924 81.4451 126.82C81.4451 128.716 82.8491 130.072 84.7571 130.072ZM84.7571 129.064C83.5331 129.064 82.6091 128.176 82.6091 126.82C82.6091 125.464 83.5331 124.588 84.7571 124.588C85.9811 124.588 86.8931 125.464 86.8931 126.82C86.8931 128.176 85.9811 129.064 84.7571 129.064ZM94.5463 123.64V126.928C94.5463 128.296 93.7783 129.04 92.5783 129.04C91.4863 129.04 90.8623 128.416 90.8623 127.168V123.64H89.7103V127.3C89.7103 129.172 90.8023 130.072 92.4463 130.072C93.3463 130.072 94.1383 129.7 94.6063 129.04V130H95.6983V123.64H94.5463ZM99.8354 130.072C101.527 130.072 102.583 129.34 102.583 128.188C102.583 125.716 98.5514 126.94 98.5514 125.44C98.5514 124.936 99.0434 124.564 100.051 124.564C100.675 124.564 101.311 124.696 101.887 125.068L102.379 124.156C101.827 123.796 100.891 123.58 100.063 123.58C98.4314 123.58 97.4114 124.348 97.4114 125.488C97.4114 128.02 101.431 126.784 101.431 128.212C101.431 128.752 100.987 129.076 99.9194 129.076C99.0914 129.076 98.2274 128.8 97.6874 128.416L97.2074 129.328C97.7354 129.748 98.7794 130.072 99.8354 130.072ZM106.459 123.58C105.439 123.58 104.491 123.868 103.831 124.396L104.311 125.26C104.803 124.84 105.571 124.576 106.327 124.576C107.467 124.576 108.031 125.14 108.031 126.112V126.34H106.207C104.311 126.34 103.651 127.18 103.651 128.2C103.651 129.304 104.563 130.072 106.003 130.072C106.999 130.072 107.707 129.736 108.091 129.16V130H109.183V126.16C109.183 124.42 108.199 123.58 106.459 123.58ZM106.195 129.184C105.319 129.184 104.791 128.788 104.791 128.152C104.791 127.612 105.115 127.168 106.255 127.168H108.031V128.056C107.743 128.788 107.059 129.184 106.195 129.184ZM114.831 123.58C113.823 123.58 113.007 123.952 112.539 124.6V123.64H111.435V130H112.587V126.724C112.587 125.344 113.379 124.612 114.603 124.612C115.695 124.612 116.319 125.224 116.319 126.472V130H117.471V126.34C117.471 124.468 116.379 123.58 114.831 123.58ZM124.606 121.096V124.6C124.078 123.916 123.286 123.58 122.386 123.58C120.526 123.58 119.17 124.876 119.17 126.82C119.17 128.764 120.526 130.072 122.386 130.072C123.322 130.072 124.138 129.712 124.654 128.992V130H125.758V121.096H124.606ZM122.482 129.064C121.258 129.064 120.334 128.176 120.334 126.82C120.334 125.464 121.258 124.588 122.482 124.588C123.694 124.588 124.618 125.464 124.618 126.82C124.618 128.176 123.694 129.064 122.482 129.064ZM129.882 130.072C131.574 130.072 132.63 129.34 132.63 128.188C132.63 125.716 128.598 126.94 128.598 125.44C128.598 124.936 129.09 124.564 130.098 124.564C130.722 124.564 131.358 124.696 131.934 125.068L132.426 124.156C131.874 123.796 130.938 123.58 130.11 123.58C128.478 123.58 127.458 124.348 127.458 125.488C127.458 128.02 131.478 126.784 131.478 128.212C131.478 128.752 131.034 129.076 129.966 129.076C129.138 129.076 128.274 128.8 127.734 128.416L127.254 129.328C127.782 129.748 128.826 130.072 129.882 130.072ZM140.256 130.072C142.164 130.072 143.556 128.716 143.556 126.82C143.556 124.924 142.164 123.58 140.256 123.58C138.348 123.58 136.944 124.924 136.944 126.82C136.944 128.716 138.348 130.072 140.256 130.072ZM140.256 129.064C139.032 129.064 138.108 128.176 138.108 126.82C138.108 125.464 139.032 124.588 140.256 124.588C141.48 124.588 142.392 125.464 142.392 126.82C142.392 128.176 141.48 129.064 140.256 129.064ZM147.597 121.972C147.933 121.972 148.245 122.092 148.485 122.272L148.833 121.396C148.509 121.144 148.029 121.024 147.537 121.024C146.181 121.024 145.437 121.84 145.437 123.076V123.64H144.357V124.588H145.437V130H146.589V124.588H148.413V123.64H146.565V123.088C146.565 122.356 146.913 121.972 147.597 121.972ZM43.3069 145.072C44.4469 145.072 45.3949 144.592 45.8989 143.704L45.0229 143.152C44.6149 143.776 43.9909 144.064 43.2949 144.064C42.0469 144.064 41.1109 143.2 41.1109 141.82C41.1109 140.464 42.0469 139.588 43.2949 139.588C43.9909 139.588 44.6149 139.876 45.0229 140.5L45.8989 139.936C45.3949 139.048 44.4469 138.58 43.3069 138.58C41.3509 138.58 39.9469 139.924 39.9469 141.82C39.9469 143.716 41.3509 145.072 43.3069 145.072ZM48.6144 139.708V138.64H47.5104V145H48.6624V141.832C48.6624 140.44 49.4304 139.684 50.6664 139.684C50.7504 139.684 50.8344 139.684 50.9304 139.696V138.58C49.8144 138.58 49.0224 138.964 48.6144 139.708ZM58.1596 141.856C58.1596 139.9 56.8516 138.58 55.0156 138.58C53.1796 138.58 51.8236 139.936 51.8236 141.82C51.8236 143.716 53.1916 145.072 55.2436 145.072C56.2996 145.072 57.1756 144.712 57.7516 144.04L57.1156 143.296C56.6476 143.812 56.0236 144.064 55.2796 144.064C54.0196 144.064 53.1196 143.32 52.9756 142.204H58.1356C58.1476 142.096 58.1596 141.952 58.1596 141.856ZM55.0156 139.552C56.1316 139.552 56.9356 140.308 57.0556 141.376H52.9756C53.0956 140.296 53.9116 139.552 55.0156 139.552ZM62.0195 138.58C60.9995 138.58 60.0515 138.868 59.3915 139.396L59.8715 140.26C60.3635 139.84 61.1315 139.576 61.8875 139.576C63.0275 139.576 63.5915 140.14 63.5915 141.112V141.34H61.7675C59.8715 141.34 59.2115 142.18 59.2115 143.2C59.2115 144.304 60.1235 145.072 61.5635 145.072C62.5595 145.072 63.2675 144.736 63.6515 144.16V145H64.7435V141.16C64.7435 139.42 63.7595 138.58 62.0195 138.58ZM61.7555 144.184C60.8795 144.184 60.3515 143.788 60.3515 143.152C60.3515 142.612 60.6755 142.168 61.8155 142.168H63.5915V143.056C63.3035 143.788 62.6195 144.184 61.7555 144.184ZM70.2114 143.8C69.9714 143.992 69.6474 144.1 69.3114 144.1C68.6754 144.1 68.3154 143.716 68.3154 143.032V139.588H70.1394V138.64H68.3154V137.248H67.1634V138.64H66.0834V139.588H67.1634V143.08C67.1634 144.364 67.8954 145.072 69.1794 145.072C69.6954 145.072 70.2234 144.928 70.5714 144.628L70.2114 143.8ZM72.6601 137.416C73.1161 137.416 73.4401 137.08 73.4401 136.648C73.4401 136.24 73.1041 135.916 72.6601 135.916C72.2161 135.916 71.8801 136.252 71.8801 136.672C71.8801 137.092 72.2161 137.416 72.6601 137.416ZM72.0841 145H73.2361V138.64H72.0841V145ZM80.0557 138.64L77.8237 143.74L75.6397 138.64H74.4397L77.2237 145H78.3997L81.1837 138.64H80.0557ZM87.951 141.856C87.951 139.9 86.643 138.58 84.807 138.58C82.971 138.58 81.615 139.936 81.615 141.82C81.615 143.716 82.983 145.072 85.035 145.072C86.091 145.072 86.967 144.712 87.543 144.04L86.907 143.296C86.439 143.812 85.815 144.064 85.071 144.064C83.811 144.064 82.911 143.32 82.767 142.204H87.927C87.939 142.096 87.951 141.952 87.951 141.856ZM84.807 139.552C85.923 139.552 86.727 140.308 86.847 141.376H82.767C82.887 140.296 83.703 139.552 84.807 139.552ZM91.4947 145.072C93.1867 145.072 94.2427 144.34 94.2427 143.188C94.2427 140.716 90.2107 141.94 90.2107 140.44C90.2107 139.936 90.7027 139.564 91.7107 139.564C92.3347 139.564 92.9707 139.696 93.5467 140.068L94.0387 139.156C93.4867 138.796 92.5507 138.58 91.7227 138.58C90.0907 138.58 89.0707 139.348 89.0707 140.488C89.0707 143.02 93.0907 141.784 93.0907 143.212C93.0907 143.752 92.6467 144.076 91.5787 144.076C90.7507 144.076 89.8867 143.8 89.3467 143.416L88.8667 144.328C89.3947 144.748 90.4387 145.072 91.4947 145.072ZM99.145 145H100.297V136.096H99.145V145ZM103.193 137.416C103.649 137.416 103.973 137.08 103.973 136.648C103.973 136.24 103.637 135.916 103.193 135.916C102.749 135.916 102.413 136.252 102.413 136.672C102.413 137.092 102.749 137.416 103.193 137.416ZM102.617 145H103.769V138.64H102.617V145ZM110.948 145H112.364L109.424 141.268L112.1 138.64H110.708L107.24 141.808V136.096H106.088V145H107.24V143.26L108.56 142.036L110.948 145ZM119.081 141.856C119.081 139.9 117.773 138.58 115.937 138.58C114.101 138.58 112.745 139.936 112.745 141.82C112.745 143.716 114.113 145.072 116.165 145.072C117.221 145.072 118.097 144.712 118.673 144.04L118.037 143.296C117.569 143.812 116.945 144.064 116.201 144.064C114.941 144.064 114.041 143.32 113.897 142.204H119.057C119.069 142.096 119.081 141.952 119.081 141.856ZM115.937 139.552C117.053 139.552 117.857 140.308 117.977 141.376H113.897C114.017 140.296 114.833 139.552 115.937 139.552ZM128.643 138.64L126.447 143.728L124.227 138.64H123.027L125.835 144.988L125.631 145.432C125.319 146.164 124.971 146.416 124.419 146.416C123.987 146.416 123.591 146.248 123.279 145.948L122.787 146.812C123.183 147.196 123.807 147.4 124.419 147.4C125.391 147.4 126.123 146.98 126.687 145.636L129.771 138.64H128.643ZM133.515 145.072C135.423 145.072 136.815 143.716 136.815 141.82C136.815 139.924 135.423 138.58 133.515 138.58C131.607 138.58 130.203 139.924 130.203 141.82C130.203 143.716 131.607 145.072 133.515 145.072ZM133.515 144.064C132.291 144.064 131.367 143.176 131.367 141.82C131.367 140.464 132.291 139.588 133.515 139.588C134.739 139.588 135.651 140.464 135.651 141.82C135.651 143.176 134.739 144.064 133.515 144.064ZM143.304 138.64V141.928C143.304 143.296 142.536 144.04 141.336 144.04C140.244 144.04 139.62 143.416 139.62 142.168V138.64H138.468V142.3C138.468 144.172 139.56 145.072 141.204 145.072C142.104 145.072 142.896 144.7 143.364 144.04V145H144.456V138.64H143.304Z" fill="white" fill-opacity="0.7"/>
<rect x="0.5" y="0.5" width="184" height="167" rx="19.5" stroke="url(#paint1_linear_35_23744)" style="mix-blend-mode:overlay"/>
</g>
<defs>
<filter id="filter0_b_35_23744" x="-9" y="-9" width="203" height="186" filterUnits="userSpaceOnUse" color-interpolation-filters="sRGB">
<feFlood flood-opacity="0" result="BackgroundImageFix"/>
<feGaussianBlur in="BackgroundImageFix" stdDeviation="4.5"/>
<feComposite in2="SourceAlpha" operator="in" result="effect1_backgroundBlur_35_23744"/>
<feBlend mode="normal" in="SourceGraphic" in2="effect1_backgroundBlur_35_23744" result="shape"/>
</filter>
<linearGradient id="paint0_linear_35_23744" x1="-336.993" y1="-521.5" x2="198.375" y2="111.118" gradientUnits="userSpaceOnUse">
<stop stop-color="white"/>
<stop offset="0.939091" stop-color="#1E2144"/>
</linearGradient>
<linearGradient id="paint1_linear_35_23744" x1="240.939" y1="160.557" x2="-106.76" y2="31.3914" gradientUnits="userSpaceOnUse">
<stop stop-color="#5F43EF"/>
<stop offset="1" stop-color="#5F43EF" stop-opacity="0"/>
</linearGradient>
</defs>
</svg>
