<svg width="20" height="20" viewBox="0 0 20 20" fill="none" xmlns="http://www.w3.org/2000/svg">
<path d="M4 10C4 10.4142 3.66421 10.75 3.25 10.75C2.83579 10.75 2.5 10.4142 2.5 10C2.5 9.58579 2.83579 9.25 3.25 9.25C3.66421 9.25 4 9.58579 4 10ZM10.75 10C10.75 10.4142 10.4142 10.75 10 10.75C9.58579 10.75 9.25 10.4142 9.25 10C9.25 9.58579 9.58579 9.25 10 9.25C10.4142 9.25 10.75 9.58579 10.75 10ZM17.5 10C17.5 10.4142 17.1642 10.75 16.75 10.75C16.3358 10.75 16 10.4142 16 10C16 9.58579 16.3358 9.25 16.75 9.25C17.1642 9.25 17.5 9.58579 17.5 10Z" stroke="white" stroke-width="1.5" stroke-linejoin="round"/>
</svg>
