<svg width="1440" height="525" viewBox="0 0 1440 525" fill="none" xmlns="http://www.w3.org/2000/svg">
<path fill-rule="evenodd" clip-rule="evenodd" d="M355.681 96.3825C355.681 96.6149 355.617 96.8421 355.497 97.0354C355.376 97.2287 355.205 97.3793 355.004 97.4683C354.803 97.5573 354.583 97.5806 354.37 97.5352C354.157 97.4899 353.961 97.3779 353.808 97.2136C353.654 97.0492 353.55 96.8398 353.507 96.6118C353.465 96.3839 353.487 96.1475 353.57 95.9328C353.653 95.7181 353.794 95.5345 353.974 95.4054C354.155 95.2763 354.367 95.2074 354.584 95.2074C354.875 95.2074 355.154 95.3312 355.36 95.5516C355.566 95.7719 355.681 96.0708 355.681 96.3825Z" fill="#68B7E7"/>
<path fill-rule="evenodd" clip-rule="evenodd" d="M334.379 222.796C334.379 223.029 334.315 223.256 334.194 223.449C334.073 223.642 333.902 223.793 333.701 223.882C333.501 223.971 333.28 223.994 333.067 223.949C332.854 223.904 332.659 223.792 332.505 223.627C332.352 223.463 332.247 223.254 332.205 223.026C332.162 222.798 332.184 222.561 332.267 222.347C332.35 222.132 332.491 221.948 332.671 221.819C332.852 221.69 333.064 221.621 333.281 221.621C333.426 221.621 333.568 221.652 333.701 221.711C333.835 221.77 333.956 221.856 334.057 221.965C334.159 222.074 334.24 222.204 334.295 222.347C334.351 222.489 334.379 222.642 334.379 222.796Z" fill="#68B7E7"/>
<path fill-rule="evenodd" clip-rule="evenodd" d="M491.695 285.585C491.695 285.818 491.631 286.045 491.51 286.238C491.39 286.431 491.218 286.582 491.018 286.671C490.817 286.76 490.596 286.783 490.383 286.738C490.17 286.692 489.975 286.58 489.821 286.416C489.668 286.252 489.563 286.042 489.521 285.814C489.479 285.586 489.5 285.35 489.584 285.136C489.667 284.921 489.807 284.737 489.988 284.608C490.168 284.479 490.381 284.41 490.598 284.41C490.742 284.41 490.885 284.441 491.018 284.5C491.151 284.559 491.272 284.645 491.374 284.754C491.476 284.864 491.557 284.993 491.612 285.136C491.667 285.278 491.695 285.431 491.695 285.585Z" fill="#68B7E7"/>
<path fill-rule="evenodd" clip-rule="evenodd" d="M522.754 429.608C522.754 429.841 522.69 430.068 522.569 430.261C522.448 430.454 522.277 430.605 522.076 430.694C521.876 430.783 521.655 430.806 521.442 430.761C521.229 430.716 521.034 430.604 520.88 430.439C520.727 430.275 520.622 430.066 520.58 429.838C520.537 429.61 520.559 429.373 520.642 429.159C520.725 428.944 520.866 428.76 521.047 428.631C521.227 428.502 521.439 428.433 521.656 428.433C521.947 428.433 522.227 428.557 522.432 428.777C522.638 428.998 522.754 429.297 522.754 429.608Z" fill="#68B7E7"/>
<path fill-rule="evenodd" clip-rule="evenodd" d="M422.59 237.468C422.59 237.7 422.525 237.928 422.405 238.121C422.284 238.314 422.113 238.465 421.912 238.554C421.712 238.643 421.491 238.666 421.278 238.621C421.065 238.575 420.87 238.463 420.716 238.299C420.563 238.135 420.458 237.925 420.416 237.697C420.373 237.469 420.395 237.233 420.478 237.018C420.561 236.804 420.702 236.62 420.882 236.491C421.063 236.362 421.275 236.293 421.492 236.293C421.636 236.293 421.779 236.323 421.912 236.382C422.045 236.441 422.166 236.528 422.268 236.637C422.37 236.746 422.451 236.876 422.506 237.018C422.561 237.161 422.59 237.314 422.59 237.468Z" fill="#A715CB"/>
<path fill-rule="evenodd" clip-rule="evenodd" d="M370.696 210.679C370.696 210.911 370.631 211.139 370.511 211.332C370.39 211.525 370.219 211.676 370.018 211.765C369.817 211.854 369.597 211.877 369.384 211.832C369.171 211.786 368.975 211.674 368.822 211.51C368.668 211.346 368.564 211.136 368.521 210.908C368.479 210.68 368.5 210.444 368.583 210.229C368.667 210.015 368.807 209.831 368.988 209.702C369.168 209.573 369.381 209.504 369.598 209.504C369.889 209.504 370.168 209.628 370.374 209.848C370.58 210.068 370.696 210.367 370.696 210.679Z" fill="#A715CB"/>
<path fill-rule="evenodd" clip-rule="evenodd" d="M306.234 156.988C306.234 157.221 306.17 157.448 306.049 157.641C305.929 157.834 305.757 157.985 305.557 158.074C305.356 158.163 305.136 158.186 304.923 158.141C304.71 158.096 304.514 157.984 304.361 157.819C304.207 157.655 304.103 157.446 304.06 157.218C304.018 156.99 304.039 156.754 304.123 156.539C304.206 156.324 304.346 156.14 304.527 156.011C304.707 155.882 304.919 155.813 305.137 155.813C305.281 155.813 305.423 155.844 305.557 155.903C305.69 155.962 305.811 156.048 305.913 156.157C306.015 156.266 306.096 156.396 306.151 156.539C306.206 156.681 306.234 156.834 306.234 156.988Z" fill="#EA3A60"/>
<path d="M238.76 70.2729C239.366 70.2729 239.857 69.7468 239.857 69.0979C239.857 68.4489 239.366 67.9229 238.76 67.9229C238.154 67.9229 237.662 68.4489 237.662 69.0979C237.662 69.7468 238.154 70.2729 238.76 70.2729Z" fill="#EA3A60"/>
<path fill-rule="evenodd" clip-rule="evenodd" d="M369.597 28.9055C369.597 29.2172 369.482 29.5161 369.276 29.7365C369.07 29.9569 368.791 30.0808 368.5 30.0808C368.356 30.0808 368.213 30.0504 368.08 29.9914C367.947 29.9323 367.826 29.8457 367.724 29.7366C367.622 29.6274 367.541 29.4979 367.486 29.3553C367.431 29.2127 367.402 29.0599 367.402 28.9055C367.402 28.7512 367.431 28.5984 367.486 28.4558C367.541 28.3132 367.622 28.1837 367.724 28.0746C367.826 27.9655 367.947 27.8789 368.08 27.8199C368.213 27.7608 368.356 27.7304 368.5 27.7305C368.644 27.7305 368.787 27.7609 368.92 27.8199C369.053 27.879 369.174 27.9655 369.276 28.0746C369.378 28.1837 369.459 28.3133 369.514 28.4558C369.569 28.5984 369.597 28.7512 369.597 28.9055Z" fill="#EA3A60"/>
<path fill-rule="evenodd" clip-rule="evenodd" d="M439.359 236.296C439.359 236.529 439.295 236.756 439.174 236.949C439.053 237.142 438.882 237.293 438.681 237.382C438.481 237.471 438.26 237.494 438.047 237.449C437.834 237.403 437.639 237.291 437.485 237.127C437.332 236.963 437.227 236.753 437.185 236.525C437.143 236.297 437.165 236.061 437.248 235.846C437.331 235.632 437.471 235.448 437.652 235.319C437.832 235.19 438.045 235.121 438.262 235.121C438.406 235.121 438.548 235.151 438.682 235.211C438.815 235.27 438.936 235.356 439.038 235.465C439.14 235.574 439.221 235.704 439.276 235.847C439.331 235.989 439.359 236.142 439.359 236.296Z" fill="#EA3A60"/>
<path d="M447.344 20.285C447.95 20.285 448.441 19.7588 448.441 19.1098C448.441 18.4607 447.95 17.9346 447.344 17.9346C446.738 17.9346 446.246 18.4607 446.246 19.1098C446.246 19.7588 446.738 20.285 447.344 20.285Z" fill="#EA3A60"/>
<path fill-rule="evenodd" clip-rule="evenodd" d="M227.516 509.644C227.516 509.876 227.451 510.103 227.331 510.297C227.21 510.49 227.039 510.641 226.838 510.73C226.638 510.818 226.417 510.842 226.204 510.796C225.991 510.751 225.795 510.639 225.642 510.475C225.488 510.31 225.384 510.101 225.341 509.873C225.299 509.645 225.321 509.409 225.404 509.194C225.487 508.979 225.628 508.796 225.808 508.667C225.989 508.538 226.201 508.469 226.418 508.469C226.562 508.469 226.705 508.499 226.838 508.558C226.971 508.617 227.092 508.704 227.194 508.813C227.296 508.922 227.377 509.052 227.432 509.194C227.487 509.337 227.516 509.489 227.516 509.644Z" fill="#D839A6"/>
<path fill-rule="evenodd" clip-rule="evenodd" d="M487.77 44.8235C487.77 45.1352 487.654 45.4341 487.448 45.6545C487.242 45.8749 486.963 45.9988 486.672 45.9988C486.381 45.9988 486.102 45.8749 485.896 45.6545C485.69 45.4341 485.574 45.1352 485.574 44.8235C485.574 44.5118 485.69 44.2129 485.896 43.9926C486.102 43.7722 486.381 43.6484 486.672 43.6484C486.963 43.6484 487.242 43.7722 487.448 43.9926C487.654 44.213 487.77 44.5119 487.77 44.8235Z" fill="#A715CB"/>
<path fill-rule="evenodd" clip-rule="evenodd" d="M478.309 200.647C478.309 200.88 478.244 201.107 478.124 201.3C478.003 201.493 477.831 201.644 477.631 201.733C477.43 201.822 477.21 201.845 476.997 201.8C476.784 201.754 476.588 201.642 476.435 201.478C476.281 201.314 476.177 201.104 476.134 200.876C476.092 200.648 476.114 200.412 476.197 200.197C476.28 199.983 476.421 199.799 476.601 199.67C476.782 199.541 476.994 199.472 477.211 199.472C477.355 199.472 477.498 199.502 477.631 199.561C477.764 199.62 477.885 199.707 477.987 199.816C478.089 199.925 478.17 200.055 478.225 200.197C478.28 200.34 478.309 200.493 478.309 200.647Z" fill="#A715CB"/>
<path fill-rule="evenodd" clip-rule="evenodd" d="M197.994 144.308C197.994 144.541 197.93 144.768 197.809 144.961C197.689 145.154 197.517 145.305 197.317 145.394C197.116 145.483 196.895 145.506 196.682 145.461C196.469 145.416 196.274 145.304 196.12 145.139C195.967 144.975 195.862 144.766 195.82 144.538C195.778 144.31 195.799 144.073 195.882 143.859C195.966 143.644 196.106 143.46 196.287 143.331C196.467 143.202 196.68 143.133 196.897 143.133C197.188 143.133 197.467 143.257 197.673 143.477C197.879 143.698 197.994 143.997 197.994 144.308Z" fill="#A715CB"/>
<path fill-rule="evenodd" clip-rule="evenodd" d="M644.419 34.2917C644.419 34.6033 644.303 34.9022 644.097 35.1226C643.891 35.3429 643.612 35.4667 643.321 35.4667C643.177 35.4667 643.034 35.4364 642.901 35.3773C642.767 35.3183 642.646 35.2317 642.544 35.1226C642.442 35.0135 642.361 34.884 642.306 34.7414C642.251 34.5988 642.223 34.446 642.223 34.2917C642.223 33.9799 642.338 33.681 642.544 33.4606C642.75 33.2402 643.029 33.1163 643.321 33.1163C643.612 33.1164 643.891 33.2402 644.097 33.4607C644.303 33.6811 644.419 33.98 644.419 34.2917Z" fill="#A715CB"/>
<path fill-rule="evenodd" clip-rule="evenodd" d="M255.957 205.789C255.957 206.021 255.892 206.248 255.772 206.442C255.651 206.635 255.48 206.785 255.279 206.874C255.079 206.963 254.858 206.986 254.645 206.941C254.432 206.896 254.237 206.784 254.083 206.619C253.93 206.455 253.825 206.246 253.783 206.018C253.74 205.79 253.762 205.553 253.845 205.339C253.928 205.124 254.069 204.941 254.25 204.811C254.43 204.682 254.642 204.613 254.859 204.613C255.003 204.613 255.146 204.644 255.279 204.703C255.413 204.762 255.534 204.849 255.635 204.958C255.737 205.067 255.818 205.196 255.873 205.339C255.929 205.482 255.957 205.634 255.957 205.789Z" fill="#A715CB"/>
<path fill-rule="evenodd" clip-rule="evenodd" d="M356.939 524.217C356.939 524.45 356.875 524.677 356.754 524.87C356.634 525.063 356.462 525.214 356.262 525.303C356.061 525.392 355.841 525.415 355.628 525.37C355.415 525.324 355.219 525.212 355.066 525.048C354.912 524.884 354.808 524.674 354.765 524.447C354.723 524.219 354.745 523.982 354.828 523.768C354.911 523.553 355.051 523.369 355.232 523.24C355.412 523.111 355.625 523.042 355.842 523.042C356.133 523.042 356.412 523.166 356.618 523.386C356.824 523.607 356.939 523.906 356.939 524.217Z" fill="#A715CB"/>
<path fill-rule="evenodd" clip-rule="evenodd" d="M720.342 19.1475C720.342 19.4591 720.226 19.758 720.02 19.9784C719.815 20.1987 719.535 20.3225 719.244 20.3225C719.1 20.3226 718.957 20.2922 718.824 20.2332C718.691 20.1741 718.57 20.0876 718.468 19.9785C718.366 19.8693 718.285 19.7398 718.23 19.5972C718.175 19.4546 718.146 19.3018 718.146 19.1475C718.146 18.9931 718.175 18.8403 718.23 18.6977C718.285 18.5551 718.366 18.4255 718.468 18.3164C718.57 18.2072 718.691 18.1206 718.824 18.0616C718.957 18.0025 719.1 17.9721 719.244 17.9722C719.388 17.9722 719.531 18.0026 719.664 18.0617C719.798 18.1207 719.919 18.2073 720.02 18.3164C720.122 18.4256 720.203 18.5552 720.258 18.6977C720.314 18.8403 720.342 18.9932 720.342 19.1475Z" fill="#A715CB"/>
<path fill-rule="evenodd" clip-rule="evenodd" d="M270.336 60.8313C270.336 61.0638 270.272 61.291 270.151 61.4842C270.031 61.6775 269.859 61.8282 269.659 61.9171C269.458 62.0061 269.237 62.0294 269.024 61.9841C268.811 61.9388 268.616 61.8269 268.462 61.6625C268.309 61.4982 268.204 61.2888 268.162 61.0608C268.119 60.8329 268.141 60.5966 268.224 60.3818C268.307 60.1671 268.448 59.9835 268.628 59.8544C268.809 59.7252 269.021 59.6563 269.238 59.6563C269.529 59.6562 269.809 59.78 270.015 60.0004C270.22 60.2208 270.336 60.5196 270.336 60.8313Z" fill="#A715CB"/>
<path fill-rule="evenodd" clip-rule="evenodd" d="M483.625 360.405C483.625 360.638 483.561 360.865 483.44 361.058C483.319 361.251 483.148 361.402 482.947 361.491C482.747 361.58 482.526 361.603 482.313 361.558C482.1 361.512 481.905 361.401 481.751 361.236C481.598 361.072 481.493 360.863 481.451 360.635C481.408 360.407 481.43 360.17 481.513 359.956C481.596 359.741 481.737 359.557 481.918 359.428C482.098 359.299 482.31 359.23 482.527 359.23C482.818 359.23 483.098 359.354 483.303 359.574C483.509 359.795 483.625 360.094 483.625 360.405Z" fill="#A715CB"/>
<path fill-rule="evenodd" clip-rule="evenodd" d="M134.309 198.367C134.309 198.599 134.244 198.827 134.124 199.02C134.003 199.213 133.832 199.364 133.631 199.453C133.43 199.542 133.21 199.565 132.997 199.52C132.784 199.474 132.588 199.362 132.435 199.198C132.281 199.034 132.177 198.824 132.134 198.596C132.092 198.368 132.114 198.132 132.197 197.917C132.28 197.703 132.421 197.519 132.601 197.39C132.782 197.261 132.994 197.192 133.211 197.192C133.502 197.192 133.781 197.316 133.987 197.536C134.193 197.757 134.309 198.055 134.309 198.367Z" fill="#A715CB"/>
<path fill-rule="evenodd" clip-rule="evenodd" d="M159.207 31.261C159.207 31.5726 159.091 31.8715 158.886 32.0919C158.68 32.3123 158.401 32.4361 158.11 32.4361C157.818 32.4361 157.539 32.3123 157.333 32.0919C157.127 31.8716 157.012 31.5727 157.012 31.261C157.012 31.1067 157.04 30.9539 157.095 30.8113C157.151 30.6687 157.231 30.5391 157.333 30.43C157.435 30.3209 157.556 30.2344 157.689 30.1753C157.823 30.1163 157.965 30.0859 158.11 30.0859C158.254 30.0859 158.396 30.1163 158.53 30.1753C158.663 30.2344 158.784 30.3209 158.886 30.4301C158.988 30.5392 159.068 30.6687 159.124 30.8113C159.179 30.9539 159.207 31.1067 159.207 31.261Z" fill="#A715CB"/>
<path fill-rule="evenodd" clip-rule="evenodd" d="M393.07 308.522C393.071 308.754 393.006 308.982 392.886 309.175C392.765 309.368 392.594 309.519 392.393 309.608C392.192 309.697 391.972 309.72 391.759 309.675C391.546 309.629 391.35 309.517 391.197 309.353C391.043 309.189 390.938 308.979 390.896 308.751C390.854 308.523 390.875 308.287 390.959 308.072C391.042 307.857 391.182 307.674 391.363 307.545C391.544 307.416 391.756 307.347 391.973 307.347C392.264 307.347 392.543 307.471 392.749 307.691C392.955 307.911 393.07 308.21 393.07 308.522Z" fill="#A715CB"/>
<path fill-rule="evenodd" clip-rule="evenodd" d="M307.332 114.133C307.332 114.365 307.268 114.593 307.147 114.786C307.027 114.979 306.855 115.13 306.655 115.219C306.454 115.308 306.233 115.331 306.02 115.286C305.807 115.24 305.612 115.128 305.458 114.964C305.305 114.8 305.2 114.59 305.158 114.362C305.115 114.134 305.137 113.898 305.22 113.683C305.303 113.468 305.444 113.285 305.625 113.156C305.805 113.027 306.017 112.958 306.235 112.958C306.526 112.958 306.805 113.082 307.011 113.302C307.216 113.522 307.332 113.821 307.332 114.133Z" fill="#A715CB"/>
<path fill-rule="evenodd" clip-rule="evenodd" d="M563.938 394.449C563.938 394.681 563.873 394.908 563.753 395.101C563.632 395.295 563.461 395.445 563.26 395.534C563.059 395.623 562.839 395.647 562.626 395.601C562.413 395.556 562.217 395.444 562.064 395.28C561.91 395.115 561.806 394.906 561.763 394.678C561.721 394.45 561.743 394.214 561.826 393.999C561.909 393.784 562.05 393.601 562.23 393.471C562.411 393.342 562.623 393.273 562.84 393.273C563.131 393.273 563.41 393.397 563.616 393.618C563.822 393.838 563.938 394.137 563.938 394.449Z" fill="#A715CB"/>
<path fill-rule="evenodd" clip-rule="evenodd" d="M500.51 118.848C500.51 119.08 500.446 119.308 500.325 119.501C500.204 119.694 500.033 119.845 499.832 119.934C499.632 120.023 499.411 120.046 499.198 120C498.985 119.955 498.79 119.843 498.636 119.679C498.482 119.514 498.378 119.305 498.336 119.077C498.293 118.849 498.315 118.613 498.398 118.398C498.481 118.183 498.622 118 498.802 117.871C498.983 117.742 499.195 117.673 499.412 117.673C499.556 117.673 499.699 117.703 499.832 117.762C499.965 117.821 500.086 117.908 500.188 118.017C500.29 118.126 500.371 118.256 500.426 118.398C500.482 118.541 500.51 118.694 500.51 118.848Z" fill="#68B7E7"/>
<path fill-rule="evenodd" clip-rule="evenodd" d="M554.328 128.612C554.328 128.844 554.264 129.072 554.143 129.265C554.023 129.458 553.851 129.609 553.651 129.698C553.45 129.787 553.229 129.81 553.016 129.764C552.804 129.719 552.608 129.607 552.454 129.443C552.301 129.279 552.196 129.069 552.154 128.841C552.112 128.613 552.133 128.377 552.216 128.162C552.299 127.948 552.44 127.764 552.621 127.635C552.801 127.506 553.013 127.437 553.231 127.437C553.375 127.437 553.517 127.467 553.651 127.526C553.784 127.585 553.905 127.672 554.007 127.781C554.109 127.89 554.19 128.02 554.245 128.162C554.3 128.305 554.328 128.458 554.328 128.612Z" fill="#A715CB"/>
<path fill-rule="evenodd" clip-rule="evenodd" d="M427.961 433.223C427.961 433.455 427.896 433.682 427.776 433.875C427.655 434.069 427.484 434.219 427.283 434.308C427.083 434.397 426.862 434.42 426.649 434.375C426.436 434.33 426.241 434.218 426.087 434.054C425.934 433.889 425.829 433.68 425.787 433.452C425.744 433.224 425.766 432.988 425.849 432.773C425.932 432.558 426.073 432.375 426.253 432.246C426.434 432.117 426.646 432.048 426.863 432.048C427.007 432.048 427.15 432.078 427.283 432.137C427.416 432.196 427.537 432.283 427.639 432.392C427.741 432.501 427.822 432.63 427.877 432.773C427.932 432.916 427.961 433.068 427.961 433.223Z" fill="#A715CB"/>
<path fill-rule="evenodd" clip-rule="evenodd" d="M222.377 163.761C222.377 163.994 222.313 164.221 222.192 164.414C222.071 164.608 221.9 164.758 221.699 164.847C221.499 164.936 221.278 164.959 221.065 164.914C220.852 164.869 220.657 164.757 220.503 164.592C220.35 164.428 220.245 164.219 220.203 163.991C220.16 163.763 220.182 163.526 220.265 163.312C220.348 163.097 220.489 162.913 220.67 162.784C220.85 162.655 221.062 162.586 221.279 162.586C221.57 162.586 221.85 162.71 222.055 162.93C222.261 163.151 222.377 163.45 222.377 163.761Z" fill="#D839A6"/>
<path d="M323.766 179.12C324.372 179.12 324.863 178.594 324.863 177.945C324.863 177.296 324.372 176.77 323.766 176.77C323.159 176.77 322.668 177.296 322.668 177.945C322.668 178.594 323.159 179.12 323.766 179.12Z" fill="#D839A6"/>
<path fill-rule="evenodd" clip-rule="evenodd" d="M313.855 30.0816C313.855 30.3932 313.74 30.6921 313.534 30.9125C313.328 31.1328 313.049 31.2566 312.758 31.2566C312.467 31.2566 312.187 31.1328 311.982 30.9125C311.776 30.6921 311.66 30.3932 311.66 30.0816C311.66 29.9272 311.688 29.7744 311.744 29.6318C311.799 29.4892 311.88 29.3597 311.982 29.2505C312.083 29.1414 312.204 29.0548 312.338 28.9957C312.471 28.9367 312.614 28.9063 312.758 28.9062C313.049 28.9063 313.328 29.0301 313.534 29.2505C313.74 29.4709 313.855 29.7699 313.855 30.0816Z" fill="#D839A6"/>
<path fill-rule="evenodd" clip-rule="evenodd" d="M128.652 118.812C128.652 119.044 128.588 119.272 128.467 119.465C128.346 119.658 128.175 119.809 127.974 119.897C127.774 119.986 127.553 120.01 127.34 119.964C127.127 119.919 126.932 119.807 126.778 119.643C126.625 119.478 126.52 119.269 126.478 119.041C126.436 118.813 126.458 118.577 126.541 118.362C126.624 118.147 126.764 117.964 126.945 117.835C127.125 117.706 127.338 117.637 127.555 117.637C127.699 117.637 127.841 117.667 127.975 117.726C128.108 117.785 128.229 117.872 128.331 117.981C128.433 118.09 128.513 118.22 128.569 118.362C128.624 118.505 128.652 118.658 128.652 118.812Z" fill="#D839A6"/>
<path fill-rule="evenodd" clip-rule="evenodd" d="M390.67 348.608C390.67 348.84 390.605 349.068 390.485 349.261C390.364 349.454 390.193 349.605 389.992 349.694C389.792 349.783 389.571 349.806 389.358 349.76C389.145 349.715 388.95 349.603 388.796 349.439C388.643 349.275 388.538 349.065 388.496 348.837C388.453 348.609 388.475 348.373 388.558 348.158C388.641 347.944 388.782 347.76 388.962 347.631C389.143 347.502 389.355 347.433 389.572 347.433C389.863 347.433 390.143 347.557 390.348 347.777C390.554 347.997 390.67 348.296 390.67 348.608Z" fill="#B7FFFF"/>
<path fill-rule="evenodd" clip-rule="evenodd" d="M345.25 72.7612C345.25 72.9937 345.186 73.2209 345.065 73.4141C344.944 73.6074 344.773 73.758 344.572 73.8469C344.372 73.9359 344.151 73.9591 343.938 73.9138C343.725 73.8684 343.53 73.7565 343.376 73.5922C343.223 73.4278 343.118 73.2184 343.076 72.9905C343.033 72.7625 343.055 72.5262 343.138 72.3115C343.221 72.0967 343.362 71.9132 343.542 71.7841C343.723 71.6549 343.935 71.586 344.152 71.5859C344.296 71.5859 344.439 71.6163 344.572 71.6754C344.706 71.7345 344.827 71.821 344.929 71.9302C345.031 72.0393 345.111 72.1689 345.167 72.3115C345.222 72.4541 345.25 72.6069 345.25 72.7612Z" fill="#D839A6"/>
<path fill-rule="evenodd" clip-rule="evenodd" d="M553.23 233.504C553.23 233.736 553.166 233.964 553.045 234.157C552.925 234.35 552.753 234.501 552.553 234.59C552.352 234.678 552.132 234.702 551.919 234.656C551.706 234.611 551.51 234.499 551.357 234.335C551.203 234.17 551.099 233.961 551.056 233.733C551.014 233.505 551.036 233.269 551.119 233.054C551.202 232.84 551.342 232.656 551.523 232.527C551.703 232.398 551.916 232.329 552.133 232.329C552.424 232.329 552.703 232.453 552.909 232.673C553.115 232.893 553.23 233.192 553.23 233.504Z" fill="#D839A6"/>
<path fill-rule="evenodd" clip-rule="evenodd" d="M330.467 352.468C330.467 352.7 330.402 352.928 330.282 353.121C330.161 353.314 329.99 353.465 329.789 353.554C329.589 353.643 329.368 353.666 329.155 353.621C328.942 353.575 328.746 353.463 328.593 353.299C328.439 353.135 328.335 352.925 328.293 352.697C328.25 352.469 328.272 352.233 328.355 352.018C328.438 351.804 328.579 351.62 328.759 351.491C328.94 351.362 329.152 351.293 329.369 351.293C329.66 351.293 329.939 351.417 330.145 351.637C330.351 351.858 330.467 352.156 330.467 352.468Z" fill="#D839A6"/>
<path fill-rule="evenodd" clip-rule="evenodd" d="M178.965 362.719C178.965 362.951 178.9 363.179 178.78 363.372C178.659 363.565 178.488 363.716 178.287 363.805C178.087 363.893 177.866 363.917 177.653 363.871C177.44 363.826 177.245 363.714 177.091 363.55C176.938 363.385 176.833 363.176 176.791 362.948C176.748 362.72 176.77 362.484 176.853 362.269C176.936 362.054 177.077 361.871 177.257 361.742C177.438 361.613 177.65 361.544 177.867 361.544C178.011 361.544 178.154 361.574 178.287 361.633C178.42 361.692 178.541 361.779 178.643 361.888C178.745 361.997 178.826 362.127 178.881 362.269C178.937 362.412 178.965 362.565 178.965 362.719Z" fill="#D839A6"/>
<path fill-rule="evenodd" clip-rule="evenodd" d="M552.133 12.2922C552.133 12.4466 552.104 12.5994 552.049 12.742C551.994 12.8846 551.913 13.0141 551.811 13.1233C551.709 13.2324 551.588 13.319 551.455 13.3781C551.322 13.4371 551.179 13.4675 551.035 13.4675C550.891 13.4676 550.748 13.4372 550.615 13.3781C550.482 13.3191 550.361 13.2325 550.259 13.1234C550.157 13.0142 550.076 12.8846 550.021 12.742C549.966 12.5994 549.937 12.4466 549.938 12.2922C549.938 12.1379 549.966 11.9851 550.021 11.8425C550.076 11.6999 550.157 11.5704 550.259 11.4613C550.361 11.3522 550.482 11.2656 550.615 11.2066C550.748 11.1475 550.891 11.1172 551.035 11.1172C551.326 11.1172 551.605 11.241 551.811 11.4614C552.017 11.6817 552.133 11.9806 552.133 12.2922Z" fill="#D839A6"/>
<path fill-rule="evenodd" clip-rule="evenodd" d="M477.701 96.343C477.701 96.5755 477.637 96.8027 477.516 96.996C477.396 97.1893 477.224 97.3399 477.024 97.4289C476.823 97.5178 476.602 97.5411 476.389 97.4958C476.176 97.4504 475.981 97.3385 475.827 97.1741C475.674 97.0098 475.569 96.8004 475.527 96.5724C475.485 96.3444 475.506 96.1081 475.589 95.8934C475.672 95.6786 475.813 95.4951 475.994 95.366C476.174 95.2368 476.387 95.1679 476.604 95.168C476.895 95.168 477.174 95.2918 477.38 95.5122C477.585 95.7326 477.701 96.0314 477.701 96.343Z" fill="#D839A6"/>
<path fill-rule="evenodd" clip-rule="evenodd" d="M440.457 163.761C440.457 163.994 440.393 164.221 440.272 164.414C440.152 164.608 439.98 164.758 439.78 164.847C439.579 164.936 439.358 164.959 439.145 164.914C438.932 164.869 438.737 164.757 438.583 164.593C438.43 164.428 438.325 164.219 438.283 163.991C438.24 163.763 438.262 163.527 438.345 163.312C438.428 163.097 438.569 162.914 438.749 162.784C438.93 162.655 439.142 162.586 439.359 162.586C439.503 162.586 439.646 162.617 439.779 162.676C439.913 162.735 440.034 162.821 440.136 162.93C440.237 163.04 440.318 163.169 440.374 163.312C440.429 163.454 440.457 163.607 440.457 163.761Z" fill="#D839A6"/>
<path fill-rule="evenodd" clip-rule="evenodd" d="M327.045 164.136C327.045 164.368 326.981 164.596 326.86 164.789C326.739 164.982 326.568 165.133 326.367 165.222C326.167 165.311 325.946 165.334 325.733 165.289C325.52 165.243 325.325 165.131 325.171 164.967C325.018 164.803 324.913 164.593 324.871 164.365C324.828 164.137 324.85 163.901 324.933 163.686C325.016 163.472 325.157 163.288 325.337 163.159C325.518 163.03 325.73 162.961 325.947 162.961C326.092 162.961 326.234 162.991 326.367 163.05C326.501 163.109 326.622 163.196 326.723 163.305C326.825 163.414 326.906 163.544 326.961 163.686C327.017 163.829 327.045 163.982 327.045 164.136Z" fill="#D839A6"/>
<path fill-rule="evenodd" clip-rule="evenodd" d="M362.344 369.119C362.344 369.352 362.279 369.579 362.159 369.772C362.038 369.966 361.867 370.116 361.666 370.205C361.466 370.294 361.245 370.317 361.032 370.272C360.819 370.227 360.623 370.115 360.47 369.95C360.316 369.786 360.212 369.577 360.17 369.349C360.127 369.121 360.149 368.884 360.232 368.67C360.315 368.455 360.456 368.271 360.636 368.142C360.817 368.013 361.029 367.944 361.246 367.944C361.537 367.944 361.817 368.068 362.022 368.288C362.228 368.509 362.344 368.808 362.344 369.119Z" fill="#D839A6"/>
<path fill-rule="evenodd" clip-rule="evenodd" d="M331.578 267.648C331.578 267.88 331.514 268.107 331.393 268.301C331.273 268.494 331.101 268.645 330.901 268.734C330.7 268.823 330.479 268.846 330.266 268.801C330.053 268.755 329.858 268.643 329.704 268.479C329.551 268.315 329.446 268.105 329.404 267.877C329.362 267.649 329.383 267.413 329.466 267.198C329.549 266.983 329.69 266.8 329.871 266.671C330.051 266.542 330.263 266.473 330.48 266.473C330.771 266.473 331.051 266.596 331.256 266.817C331.462 267.037 331.578 267.336 331.578 267.648Z" fill="#68B7E7"/>
<path fill-rule="evenodd" clip-rule="evenodd" d="M262.477 219.538C262.477 219.771 262.412 219.998 262.292 220.191C262.171 220.385 262 220.535 261.799 220.624C261.599 220.713 261.378 220.737 261.165 220.691C260.952 220.646 260.756 220.534 260.603 220.37C260.449 220.205 260.345 219.996 260.302 219.768C260.26 219.54 260.282 219.303 260.365 219.089C260.448 218.874 260.589 218.69 260.769 218.561C260.95 218.432 261.162 218.363 261.379 218.363C261.67 218.363 261.949 218.487 262.155 218.708C262.361 218.928 262.477 219.227 262.477 219.538Z" fill="#A715CB"/>
<path fill-rule="evenodd" clip-rule="evenodd" d="M210.578 192.749C210.578 192.981 210.514 193.208 210.393 193.402C210.272 193.595 210.101 193.745 209.9 193.834C209.7 193.923 209.479 193.946 209.266 193.901C209.053 193.856 208.858 193.744 208.704 193.579C208.551 193.415 208.446 193.206 208.404 192.978C208.362 192.75 208.383 192.514 208.466 192.299C208.549 192.084 208.69 191.901 208.871 191.772C209.051 191.642 209.263 191.574 209.481 191.574C209.625 191.574 209.767 191.604 209.901 191.663C210.034 191.722 210.155 191.809 210.257 191.918C210.359 192.027 210.44 192.156 210.495 192.299C210.55 192.442 210.578 192.595 210.578 192.749Z" fill="#A715CB"/>
<path fill-rule="evenodd" clip-rule="evenodd" d="M146.121 139.054C146.121 139.286 146.057 139.514 145.936 139.707C145.816 139.9 145.644 140.051 145.444 140.14C145.243 140.229 145.022 140.252 144.809 140.207C144.597 140.161 144.401 140.049 144.247 139.885C144.094 139.721 143.989 139.511 143.947 139.283C143.905 139.055 143.926 138.819 144.009 138.604C144.092 138.39 144.233 138.206 144.414 138.077C144.594 137.948 144.806 137.879 145.023 137.879C145.314 137.879 145.594 138.003 145.8 138.223C146.005 138.443 146.121 138.742 146.121 139.054Z" fill="#EA3A60"/>
<path fill-rule="evenodd" clip-rule="evenodd" d="M79.744 51.1633C79.744 51.3177 79.7156 51.4705 79.6605 51.6131C79.6053 51.7557 79.5245 51.8852 79.4226 51.9944C79.3206 52.1035 79.1996 52.1901 79.0665 52.2492C78.9333 52.3082 78.7905 52.3386 78.6464 52.3387C78.5022 52.3386 78.3595 52.3082 78.2263 52.2492C78.0931 52.1901 77.9721 52.1035 77.8702 51.9944C77.7683 51.8852 77.6875 51.7557 77.6323 51.6131C77.5772 51.4705 77.5488 51.3177 77.5488 51.1633C77.5488 50.8517 77.6645 50.5528 77.8703 50.3324C78.0761 50.1121 78.3553 49.9883 78.6464 49.9883C78.9375 49.9883 79.2167 50.1121 79.4225 50.3324C79.6283 50.5528 79.744 50.8517 79.744 51.1633Z" fill="#EA3A60"/>
<path fill-rule="evenodd" clip-rule="evenodd" d="M209.48 10.9761C209.48 11.2877 209.365 11.5866 209.159 11.807C208.953 12.0273 208.674 12.1511 208.383 12.1511C208.092 12.1512 207.813 12.0274 207.607 11.807C207.401 11.5866 207.285 11.2878 207.285 10.9761C207.285 10.6644 207.401 10.3655 207.607 10.1451C207.813 9.92467 208.092 9.80083 208.383 9.80078C208.674 9.80083 208.953 9.92469 209.159 10.1451C209.365 10.3655 209.48 10.6644 209.48 10.9761Z" fill="#EA3A60"/>
<path fill-rule="evenodd" clip-rule="evenodd" d="M98.2248 316.207C98.2248 316.439 98.1604 316.667 98.0398 316.86C97.9192 317.053 97.7478 317.204 97.5472 317.293C97.3467 317.382 97.126 317.405 96.913 317.36C96.7001 317.314 96.5044 317.202 96.3509 317.038C96.1974 316.874 96.0928 316.664 96.0504 316.436C96.008 316.208 96.0297 315.972 96.1128 315.757C96.1959 315.543 96.3366 315.359 96.5171 315.23C96.6976 315.101 96.9098 315.032 97.1269 315.032C97.418 315.032 97.6972 315.156 97.9031 315.376C98.109 315.596 98.2247 315.895 98.2248 316.207Z" fill="#EA3A60"/>
<path fill-rule="evenodd" clip-rule="evenodd" d="M279.242 218.363C279.242 218.595 279.178 218.822 279.057 219.016C278.937 219.209 278.765 219.36 278.565 219.448C278.364 219.537 278.143 219.561 277.93 219.515C277.718 219.47 277.522 219.358 277.368 219.194C277.215 219.029 277.11 218.82 277.068 218.592C277.026 218.364 277.047 218.128 277.13 217.913C277.213 217.698 277.354 217.515 277.535 217.386C277.715 217.256 277.927 217.188 278.144 217.188C278.289 217.187 278.431 217.218 278.565 217.277C278.698 217.336 278.819 217.423 278.921 217.532C279.023 217.641 279.104 217.77 279.159 217.913C279.214 218.056 279.242 218.208 279.242 218.363Z" fill="#EA3A60"/>
<path fill-rule="evenodd" clip-rule="evenodd" d="M288.328 1.17532C288.328 1.32963 288.3 1.48243 288.245 1.625C288.19 1.76756 288.109 1.8971 288.007 2.00622C287.905 2.11533 287.784 2.20189 287.651 2.26094C287.518 2.31999 287.375 2.35038 287.231 2.35038C286.94 2.3504 286.66 2.22661 286.454 2.00625C286.249 1.78589 286.133 1.487 286.133 1.17532C286.133 0.863622 286.249 0.564699 286.454 0.344294C286.66 0.123889 286.94 4.68314e-05 287.231 0C287.522 5.35313e-05 287.801 0.123907 288.007 0.344318C288.213 0.564728 288.328 0.863648 288.328 1.17532Z" fill="#EA3A60"/>
<path fill-rule="evenodd" clip-rule="evenodd" d="M37.8791 126.378C37.8791 126.61 37.8147 126.838 37.6941 127.031C37.5735 127.224 37.4021 127.375 37.2015 127.464C37.0009 127.553 36.7802 127.576 36.5672 127.531C36.3543 127.485 36.1587 127.373 36.0051 127.209C35.8516 127.045 35.747 126.835 35.7047 126.607C35.6623 126.379 35.6841 126.143 35.7672 125.928C35.8503 125.713 35.991 125.53 36.1715 125.401C36.3521 125.272 36.5643 125.203 36.7814 125.203C37.0725 125.203 37.3517 125.327 37.5575 125.547C37.7634 125.767 37.879 126.066 37.8791 126.378Z" fill="#A715CB"/>
<path fill-rule="evenodd" clip-rule="evenodd" d="M95.8435 187.858C95.8435 188.091 95.7791 188.318 95.6585 188.511C95.5379 188.704 95.3665 188.855 95.166 188.944C94.9654 189.033 94.7447 189.056 94.5318 189.011C94.3189 188.965 94.1234 188.853 93.9699 188.689C93.8164 188.525 93.7119 188.315 93.6695 188.087C93.6272 187.859 93.6489 187.623 93.732 187.408C93.8151 187.194 93.9557 187.01 94.1362 186.881C94.3167 186.752 94.5289 186.683 94.746 186.683C95.037 186.683 95.3162 186.807 95.522 187.027C95.7278 187.248 95.8435 187.547 95.8435 187.858Z" fill="#A715CB"/>
<path fill-rule="evenodd" clip-rule="evenodd" d="M110.219 42.9013C110.219 43.2129 110.103 43.5118 109.897 43.7322C109.691 43.9525 109.412 44.0763 109.121 44.0763C108.83 44.0764 108.551 43.9526 108.345 43.7322C108.139 43.5118 108.023 43.2129 108.023 42.9013C108.023 42.5896 108.139 42.2906 108.345 42.0702C108.551 41.8498 108.83 41.726 109.121 41.726C109.265 41.726 109.408 41.7564 109.541 41.8154C109.674 41.8745 109.795 41.9611 109.897 42.0702C109.999 42.1794 110.08 42.3089 110.135 42.4515C110.19 42.5941 110.219 42.7469 110.219 42.9013Z" fill="#A715CB"/>
<path fill-rule="evenodd" clip-rule="evenodd" d="M104.178 352.367C104.178 352.599 104.113 352.826 103.993 353.02C103.872 353.213 103.701 353.363 103.5 353.452C103.3 353.541 103.079 353.564 102.866 353.519C102.653 353.474 102.457 353.362 102.304 353.197C102.15 353.033 102.046 352.824 102.004 352.596C101.961 352.368 101.983 352.132 102.066 351.917C102.149 351.702 102.29 351.519 102.47 351.39C102.651 351.26 102.863 351.191 103.08 351.191C103.371 351.191 103.65 351.315 103.856 351.536C104.062 351.756 104.178 352.055 104.178 352.367Z" fill="#A715CB"/>
<path fill-rule="evenodd" clip-rule="evenodd" d="M147.217 96.1984C147.217 96.4308 147.153 96.6581 147.032 96.8513C146.911 97.0446 146.74 97.1953 146.539 97.2842C146.339 97.3732 146.118 97.3965 145.905 97.3511C145.692 97.3058 145.496 97.1939 145.343 97.0295C145.189 96.8651 145.085 96.6557 145.043 96.4277C145 96.1998 145.022 95.9634 145.105 95.7487C145.188 95.534 145.329 95.3504 145.509 95.2213C145.69 95.0922 145.902 95.0233 146.119 95.0233C146.41 95.0233 146.69 95.1471 146.895 95.3675C147.101 95.5879 147.217 95.8867 147.217 96.1984Z" fill="#A715CB"/>
<path fill-rule="evenodd" clip-rule="evenodd" d="M62.2637 145.823C62.2638 146.055 62.1994 146.282 62.0788 146.476C61.9582 146.669 61.7867 146.819 61.5862 146.908C61.3856 146.997 61.1649 147.021 60.9519 146.975C60.739 146.93 60.5434 146.818 60.3899 146.654C60.2364 146.489 60.1318 146.28 60.0894 146.052C60.0471 145.824 60.0688 145.588 60.1519 145.373C60.235 145.158 60.3757 144.975 60.5563 144.846C60.7368 144.716 60.949 144.648 61.1662 144.648C61.4573 144.648 61.7364 144.771 61.9423 144.992C62.1481 145.212 62.2637 145.511 62.2637 145.823Z" fill="#D839A6"/>
<path fill-rule="evenodd" clip-rule="evenodd" d="M153.742 12.1525C153.742 12.4641 153.627 12.763 153.421 12.9834C153.215 13.2038 152.936 13.3275 152.645 13.3275C152.353 13.3275 152.074 13.2037 151.868 12.9834C151.663 12.763 151.547 12.4641 151.547 12.1525C151.547 11.8408 151.663 11.5419 151.868 11.3216C152.074 11.1012 152.353 10.9774 152.645 10.9774C152.936 10.9774 153.215 11.1012 153.421 11.3215C153.627 11.5419 153.742 11.8408 153.742 12.1525Z" fill="#D839A6"/>
<path fill-rule="evenodd" clip-rule="evenodd" d="M230.555 330.679C230.555 330.911 230.491 331.139 230.37 331.332C230.249 331.525 230.078 331.676 229.877 331.765C229.677 331.854 229.456 331.877 229.243 331.832C229.03 331.786 228.835 331.675 228.681 331.51C228.527 331.346 228.423 331.136 228.38 330.908C228.338 330.681 228.36 330.444 228.443 330.229C228.526 330.015 228.667 329.831 228.847 329.702C229.028 329.573 229.24 329.504 229.457 329.504C229.601 329.504 229.744 329.534 229.877 329.593C230.01 329.652 230.131 329.739 230.233 329.848C230.335 329.957 230.416 330.087 230.471 330.229C230.526 330.372 230.555 330.525 230.555 330.679Z" fill="#B7FFFF"/>
<path fill-rule="evenodd" clip-rule="evenodd" d="M170.352 334.535C170.352 334.767 170.287 334.994 170.167 335.188C170.046 335.381 169.875 335.532 169.674 335.62C169.474 335.709 169.253 335.733 169.04 335.687C168.827 335.642 168.631 335.53 168.478 335.366C168.324 335.202 168.22 334.992 168.177 334.764C168.135 334.536 168.157 334.3 168.24 334.085C168.323 333.87 168.464 333.687 168.644 333.558C168.825 333.429 169.037 333.36 169.254 333.36C169.545 333.36 169.824 333.483 170.03 333.704C170.236 333.924 170.352 334.223 170.352 334.535Z" fill="#D839A6"/>
<path fill-rule="evenodd" clip-rule="evenodd" d="M18.8517 344.784C18.8517 345.017 18.7874 345.244 18.6668 345.437C18.5462 345.63 18.3747 345.781 18.1742 345.87C17.9736 345.959 17.7529 345.982 17.5399 345.937C17.327 345.892 17.1314 345.78 16.9778 345.615C16.8243 345.451 16.7197 345.242 16.6774 345.014C16.635 344.786 16.6567 344.549 16.7398 344.335C16.8228 344.12 16.9635 343.936 17.144 343.807C17.3245 343.678 17.5368 343.609 17.7539 343.609C17.898 343.609 18.0408 343.639 18.174 343.699C18.3071 343.758 18.4282 343.844 18.5301 343.953C18.6321 344.062 18.7129 344.192 18.7681 344.334C18.8233 344.477 18.8517 344.63 18.8517 344.784Z" fill="#D839A6"/>
<path fill-rule="evenodd" clip-rule="evenodd" d="M317.586 78.4133C317.586 78.6458 317.522 78.873 317.401 79.0663C317.28 79.2596 317.109 79.4102 316.908 79.4992C316.708 79.5881 316.487 79.6114 316.274 79.5661C316.061 79.5207 315.866 79.4088 315.712 79.2445C315.559 79.0801 315.454 78.8707 315.412 78.6427C315.369 78.4147 315.391 78.1784 315.474 77.9637C315.557 77.7489 315.698 77.5654 315.879 77.4363C316.059 77.3072 316.271 77.2383 316.488 77.2383C316.633 77.2383 316.775 77.2686 316.908 77.3277C317.042 77.3867 317.163 77.4733 317.265 77.5824C317.367 77.6915 317.447 77.821 317.503 77.9636C317.558 78.1062 317.586 78.259 317.586 78.4133Z" fill="#D839A6"/>
<path fill-rule="evenodd" clip-rule="evenodd" d="M280.34 145.823C280.34 146.055 280.276 146.282 280.155 146.476C280.034 146.669 279.863 146.819 279.662 146.908C279.462 146.997 279.241 147.021 279.028 146.975C278.815 146.93 278.62 146.818 278.466 146.654C278.313 146.489 278.208 146.28 278.166 146.052C278.123 145.824 278.145 145.588 278.228 145.373C278.311 145.158 278.452 144.975 278.633 144.846C278.813 144.716 279.025 144.648 279.242 144.648C279.534 144.648 279.813 144.771 280.019 144.992C280.224 145.212 280.34 145.511 280.34 145.823Z" fill="#D839A6"/>
<path fill-rule="evenodd" clip-rule="evenodd" d="M170.477 154.487C170.477 154.719 170.412 154.946 170.292 155.139C170.171 155.333 170 155.483 169.799 155.572C169.599 155.661 169.378 155.685 169.165 155.639C168.952 155.594 168.756 155.482 168.603 155.318C168.449 155.153 168.345 154.944 168.302 154.716C168.26 154.488 168.282 154.252 168.365 154.037C168.448 153.822 168.588 153.639 168.769 153.51C168.949 153.38 169.162 153.312 169.379 153.312C169.523 153.311 169.666 153.342 169.799 153.401C169.932 153.46 170.053 153.546 170.155 153.656C170.257 153.765 170.338 153.894 170.393 154.037C170.448 154.179 170.477 154.332 170.477 154.487Z" fill="#D839A6"/>
<path fill-rule="evenodd" clip-rule="evenodd" d="M202.23 351.191C202.23 351.423 202.166 351.65 202.046 351.844C201.925 352.037 201.754 352.188 201.553 352.277C201.352 352.366 201.132 352.389 200.919 352.344C200.706 352.298 200.51 352.186 200.357 352.022C200.203 351.858 200.099 351.648 200.056 351.42C200.014 351.192 200.036 350.956 200.119 350.741C200.202 350.526 200.342 350.343 200.523 350.214C200.703 350.085 200.916 350.016 201.133 350.016C201.277 350.016 201.42 350.046 201.553 350.105C201.686 350.164 201.807 350.251 201.909 350.36C202.011 350.469 202.092 350.598 202.147 350.741C202.202 350.884 202.23 351.036 202.23 351.191Z" fill="#D839A6"/>
<path fill-rule="evenodd" clip-rule="evenodd" d="M477.461 345.562C477.461 345.795 477.397 346.022 477.276 346.215C477.155 346.409 476.984 346.559 476.783 346.648C476.583 346.737 476.362 346.76 476.149 346.715C475.936 346.67 475.741 346.558 475.587 346.393C475.434 346.229 475.329 346.02 475.287 345.792C475.244 345.564 475.266 345.327 475.349 345.113C475.432 344.898 475.573 344.714 475.754 344.585C475.934 344.456 476.146 344.387 476.363 344.387C476.655 344.387 476.934 344.511 477.139 344.731C477.345 344.952 477.461 345.251 477.461 345.562Z" fill="#D839A6"/>
<path fill-rule="evenodd" clip-rule="evenodd" d="M630.854 197.195C630.854 197.427 630.789 197.654 630.669 197.847C630.548 198.041 630.377 198.191 630.176 198.28C629.975 198.369 629.755 198.393 629.542 198.347C629.329 198.302 629.133 198.19 628.98 198.026C628.826 197.861 628.722 197.652 628.679 197.424C628.637 197.196 628.659 196.96 628.742 196.745C628.825 196.53 628.965 196.347 629.146 196.218C629.326 196.089 629.539 196.02 629.756 196.02C630.047 196.02 630.326 196.143 630.532 196.364C630.738 196.584 630.853 196.883 630.854 197.195Z" fill="#A715CB"/>
<path fill-rule="evenodd" clip-rule="evenodd" d="M540.301 145.32C540.301 145.552 540.236 145.779 540.116 145.972C539.995 146.166 539.824 146.316 539.623 146.405C539.423 146.494 539.202 146.517 538.989 146.472C538.776 146.427 538.58 146.315 538.427 146.15C538.273 145.986 538.169 145.777 538.127 145.549C538.084 145.321 538.106 145.085 538.189 144.87C538.272 144.655 538.413 144.472 538.593 144.343C538.774 144.213 538.986 144.145 539.203 144.145C539.494 144.145 539.773 144.268 539.979 144.489C540.185 144.709 540.301 145.008 540.301 145.32Z" fill="#A715CB"/>
<path fill-rule="evenodd" clip-rule="evenodd" d="M59.7383 26.1671C59.7383 26.3214 59.7099 26.4743 59.6547 26.6168C59.5995 26.7594 59.5187 26.889 59.4167 26.9981C59.3148 27.1072 59.1938 27.1938 59.0606 27.2528C58.9274 27.3118 58.7847 27.3422 58.6405 27.3422C58.3494 27.3422 58.0703 27.2184 57.8644 26.998C57.6586 26.7776 57.543 26.4788 57.543 26.1671C57.543 25.8555 57.6586 25.5566 57.8644 25.3362C58.0703 25.1159 58.3494 24.9921 58.6405 24.9921C58.7847 24.992 58.9274 25.0224 59.0606 25.0815C59.1938 25.1405 59.3148 25.227 59.4167 25.3362C59.5187 25.4453 59.5995 25.5748 59.6547 25.7174C59.7099 25.86 59.7383 26.0128 59.7383 26.1671Z" fill="#A715CB"/>
<path fill-rule="evenodd" clip-rule="evenodd" d="M462.93 230.109C462.93 230.341 462.866 230.568 462.745 230.762C462.624 230.955 462.453 231.105 462.252 231.194C462.052 231.283 461.831 231.307 461.618 231.261C461.405 231.216 461.21 231.104 461.056 230.94C460.902 230.775 460.798 230.566 460.755 230.338C460.713 230.11 460.735 229.874 460.818 229.659C460.901 229.444 461.042 229.261 461.222 229.132C461.403 229.003 461.615 228.934 461.832 228.934C462.123 228.934 462.402 229.057 462.608 229.278C462.814 229.498 462.93 229.797 462.93 230.109Z" fill="#A715CB"/>
<path fill-rule="evenodd" clip-rule="evenodd" d="M1104.02 96.3825C1104.02 96.6149 1103.96 96.8421 1103.84 97.0354C1103.72 97.2287 1103.55 97.3793 1103.35 97.4683C1103.15 97.5573 1102.92 97.5806 1102.71 97.5352C1102.5 97.4899 1102.3 97.3779 1102.15 97.2136C1102 97.0492 1101.89 96.8398 1101.85 96.6118C1101.81 96.3839 1101.83 96.1475 1101.91 95.9328C1101.99 95.7181 1102.14 95.5345 1102.32 95.4054C1102.5 95.2763 1102.71 95.2074 1102.93 95.2074C1103.22 95.2074 1103.5 95.3312 1103.7 95.5516C1103.91 95.7719 1104.02 96.0708 1104.02 96.3825Z" fill="#68B7E7"/>
<path fill-rule="evenodd" clip-rule="evenodd" d="M1082.72 222.796C1082.72 223.029 1082.65 223.256 1082.53 223.449C1082.41 223.642 1082.24 223.793 1082.04 223.882C1081.84 223.971 1081.62 223.994 1081.41 223.949C1081.19 223.904 1081 223.792 1080.84 223.627C1080.69 223.463 1080.59 223.254 1080.54 223.026C1080.5 222.798 1080.52 222.561 1080.61 222.347C1080.69 222.132 1080.83 221.948 1081.01 221.819C1081.19 221.69 1081.4 221.621 1081.62 221.621C1081.77 221.621 1081.91 221.652 1082.04 221.711C1082.17 221.77 1082.3 221.856 1082.4 221.965C1082.5 222.074 1082.58 222.204 1082.64 222.347C1082.69 222.489 1082.72 222.642 1082.72 222.796Z" fill="#68B7E7"/>
<path fill-rule="evenodd" clip-rule="evenodd" d="M1240.04 285.585C1240.04 285.818 1239.97 286.045 1239.85 286.238C1239.73 286.431 1239.56 286.582 1239.36 286.671C1239.16 286.76 1238.94 286.783 1238.72 286.738C1238.51 286.692 1238.31 286.58 1238.16 286.416C1238.01 286.252 1237.9 286.042 1237.86 285.814C1237.82 285.586 1237.84 285.35 1237.92 285.136C1238.01 284.921 1238.15 284.737 1238.33 284.608C1238.51 284.479 1238.72 284.41 1238.94 284.41C1239.08 284.41 1239.22 284.441 1239.36 284.5C1239.49 284.559 1239.61 284.645 1239.71 284.754C1239.82 284.864 1239.9 284.993 1239.95 285.136C1240.01 285.278 1240.04 285.431 1240.04 285.585Z" fill="#68B7E7"/>
<path fill-rule="evenodd" clip-rule="evenodd" d="M1271.1 429.608C1271.1 429.841 1271.03 430.068 1270.91 430.261C1270.79 430.454 1270.62 430.605 1270.42 430.694C1270.22 430.783 1270 430.806 1269.78 430.761C1269.57 430.716 1269.38 430.604 1269.22 430.439C1269.07 430.275 1268.96 430.066 1268.92 429.838C1268.88 429.61 1268.9 429.373 1268.98 429.159C1269.07 428.944 1269.21 428.76 1269.39 428.631C1269.57 428.502 1269.78 428.433 1270 428.433C1270.29 428.433 1270.57 428.557 1270.77 428.777C1270.98 428.998 1271.1 429.297 1271.1 429.608Z" fill="#68B7E7"/>
<path fill-rule="evenodd" clip-rule="evenodd" d="M1170.93 237.468C1170.93 237.7 1170.87 237.928 1170.75 238.121C1170.63 238.314 1170.46 238.465 1170.26 238.554C1170.06 238.643 1169.83 238.666 1169.62 238.621C1169.41 238.575 1169.21 238.463 1169.06 238.299C1168.91 238.135 1168.8 237.925 1168.76 237.697C1168.72 237.469 1168.74 237.233 1168.82 237.018C1168.9 236.804 1169.05 236.62 1169.23 236.491C1169.41 236.362 1169.62 236.293 1169.84 236.293C1169.98 236.293 1170.12 236.323 1170.26 236.382C1170.39 236.441 1170.51 236.528 1170.61 236.637C1170.71 236.746 1170.79 236.876 1170.85 237.018C1170.9 237.161 1170.93 237.314 1170.93 237.468Z" fill="#A715CB"/>
<path fill-rule="evenodd" clip-rule="evenodd" d="M1119.04 210.679C1119.04 210.911 1118.97 211.139 1118.85 211.332C1118.73 211.525 1118.56 211.676 1118.36 211.765C1118.16 211.854 1117.94 211.877 1117.72 211.832C1117.51 211.786 1117.31 211.674 1117.16 211.51C1117.01 211.346 1116.9 211.136 1116.86 210.908C1116.82 210.68 1116.84 210.444 1116.92 210.229C1117.01 210.015 1117.15 209.831 1117.33 209.702C1117.51 209.573 1117.72 209.504 1117.94 209.504C1118.23 209.504 1118.51 209.628 1118.71 209.848C1118.92 210.068 1119.04 210.367 1119.04 210.679Z" fill="#A715CB"/>
<path fill-rule="evenodd" clip-rule="evenodd" d="M1054.57 156.988C1054.57 157.221 1054.51 157.448 1054.39 157.641C1054.27 157.834 1054.1 157.985 1053.9 158.074C1053.7 158.163 1053.48 158.186 1053.26 158.141C1053.05 158.096 1052.85 157.984 1052.7 157.819C1052.55 157.655 1052.44 157.446 1052.4 157.218C1052.36 156.99 1052.38 156.754 1052.46 156.539C1052.55 156.324 1052.69 156.14 1052.87 156.011C1053.05 155.882 1053.26 155.813 1053.48 155.813C1053.62 155.813 1053.76 155.844 1053.9 155.903C1054.03 155.962 1054.15 156.048 1054.25 156.157C1054.35 156.266 1054.44 156.396 1054.49 156.539C1054.55 156.681 1054.57 156.834 1054.57 156.988Z" fill="#EA3A60"/>
<path d="M987.102 70.2729C987.708 70.2729 988.199 69.7468 988.199 69.0979C988.199 68.4489 987.708 67.9229 987.102 67.9229C986.495 67.9229 986.004 68.4489 986.004 69.0979C986.004 69.7468 986.495 70.2729 987.102 70.2729Z" fill="#EA3A60"/>
<path fill-rule="evenodd" clip-rule="evenodd" d="M1117.94 28.9055C1117.94 29.2172 1117.82 29.5161 1117.62 29.7365C1117.41 29.9569 1117.13 30.0808 1116.84 30.0808C1116.7 30.0808 1116.55 30.0504 1116.42 29.9914C1116.29 29.9323 1116.17 29.8457 1116.06 29.7366C1115.96 29.6274 1115.88 29.4979 1115.83 29.3553C1115.77 29.2127 1115.74 29.0599 1115.74 28.9055C1115.74 28.7512 1115.77 28.5984 1115.83 28.4558C1115.88 28.3132 1115.96 28.1837 1116.06 28.0746C1116.17 27.9655 1116.29 27.8789 1116.42 27.8199C1116.55 27.7608 1116.7 27.7304 1116.84 27.7305C1116.98 27.7305 1117.13 27.7609 1117.26 27.8199C1117.39 27.879 1117.51 27.9655 1117.62 28.0746C1117.72 28.1837 1117.8 28.3133 1117.85 28.4558C1117.91 28.5984 1117.94 28.7512 1117.94 28.9055Z" fill="#EA3A60"/>
<path fill-rule="evenodd" clip-rule="evenodd" d="M1187.7 236.296C1187.7 236.529 1187.63 236.756 1187.51 236.949C1187.39 237.142 1187.22 237.293 1187.02 237.382C1186.82 237.471 1186.6 237.494 1186.39 237.449C1186.17 237.403 1185.98 237.291 1185.83 237.127C1185.67 236.963 1185.57 236.753 1185.52 236.525C1185.48 236.297 1185.5 236.061 1185.59 235.846C1185.67 235.632 1185.81 235.448 1185.99 235.319C1186.17 235.19 1186.38 235.121 1186.6 235.121C1186.75 235.121 1186.89 235.151 1187.02 235.211C1187.15 235.27 1187.28 235.356 1187.38 235.465C1187.48 235.574 1187.56 235.704 1187.62 235.847C1187.67 235.989 1187.7 236.142 1187.7 236.296Z" fill="#EA3A60"/>
<path d="M1195.69 20.285C1196.29 20.285 1196.79 19.7588 1196.79 19.1098C1196.79 18.4607 1196.29 17.9346 1195.69 17.9346C1195.08 17.9346 1194.59 18.4607 1194.59 19.1098C1194.59 19.7588 1195.08 20.285 1195.69 20.285Z" fill="#EA3A60"/>
<path fill-rule="evenodd" clip-rule="evenodd" d="M975.859 509.644C975.86 509.876 975.795 510.103 975.675 510.297C975.554 510.49 975.382 510.641 975.182 510.73C974.981 510.818 974.761 510.842 974.548 510.796C974.335 510.751 974.139 510.639 973.986 510.475C973.832 510.31 973.728 510.101 973.685 509.873C973.643 509.645 973.664 509.409 973.748 509.194C973.831 508.979 973.971 508.796 974.152 508.667C974.333 508.538 974.545 508.469 974.762 508.469C974.906 508.469 975.049 508.499 975.182 508.558C975.315 508.617 975.436 508.704 975.538 508.813C975.64 508.922 975.721 509.052 975.776 509.194C975.831 509.337 975.859 509.489 975.859 509.644Z" fill="#D839A6"/>
<path fill-rule="evenodd" clip-rule="evenodd" d="M1236.11 44.8235C1236.11 45.1352 1236 45.4341 1235.79 45.6545C1235.58 45.8749 1235.31 45.9988 1235.01 45.9988C1234.72 45.9988 1234.44 45.8749 1234.24 45.6545C1234.03 45.4341 1233.92 45.1352 1233.92 44.8235C1233.92 44.5118 1234.03 44.2129 1234.24 43.9926C1234.44 43.7722 1234.72 43.6484 1235.01 43.6484C1235.3 43.6484 1235.58 43.7722 1235.79 43.9926C1236 44.213 1236.11 44.5119 1236.11 44.8235Z" fill="#A715CB"/>
<path fill-rule="evenodd" clip-rule="evenodd" d="M1226.65 200.647C1226.65 200.88 1226.59 201.107 1226.47 201.3C1226.34 201.493 1226.17 201.644 1225.97 201.733C1225.77 201.822 1225.55 201.845 1225.34 201.8C1225.13 201.754 1224.93 201.642 1224.78 201.478C1224.62 201.314 1224.52 201.104 1224.48 200.876C1224.43 200.648 1224.46 200.412 1224.54 200.197C1224.62 199.983 1224.76 199.799 1224.94 199.67C1225.12 199.541 1225.34 199.472 1225.55 199.472C1225.7 199.472 1225.84 199.502 1225.97 199.561C1226.11 199.62 1226.23 199.707 1226.33 199.816C1226.43 199.925 1226.51 200.055 1226.57 200.197C1226.62 200.34 1226.65 200.493 1226.65 200.647Z" fill="#A715CB"/>
<path fill-rule="evenodd" clip-rule="evenodd" d="M946.336 144.308C946.336 144.541 946.272 144.768 946.151 144.961C946.03 145.154 945.859 145.305 945.658 145.394C945.458 145.483 945.237 145.506 945.024 145.461C944.811 145.416 944.616 145.304 944.462 145.139C944.309 144.975 944.204 144.766 944.162 144.538C944.119 144.31 944.141 144.073 944.224 143.859C944.307 143.644 944.448 143.46 944.629 143.331C944.809 143.202 945.021 143.133 945.238 143.133C945.53 143.133 945.809 143.257 946.015 143.477C946.22 143.698 946.336 143.997 946.336 144.308Z" fill="#A715CB"/>
<path fill-rule="evenodd" clip-rule="evenodd" d="M1392.76 34.2917C1392.76 34.6033 1392.65 34.9022 1392.44 35.1226C1392.23 35.3429 1391.96 35.4667 1391.66 35.4667C1391.52 35.4667 1391.38 35.4364 1391.24 35.3773C1391.11 35.3183 1390.99 35.2317 1390.89 35.1226C1390.79 35.0135 1390.71 34.884 1390.65 34.7414C1390.59 34.5988 1390.57 34.446 1390.57 34.2917C1390.57 33.9799 1390.68 33.681 1390.89 33.4606C1391.09 33.2402 1391.37 33.1163 1391.66 33.1163C1391.96 33.1164 1392.23 33.2402 1392.44 33.4607C1392.65 33.6811 1392.76 33.98 1392.76 34.2917Z" fill="#A715CB"/>
<path fill-rule="evenodd" clip-rule="evenodd" d="M1004.3 205.789C1004.3 206.021 1004.23 206.248 1004.11 206.442C1003.99 206.635 1003.82 206.785 1003.62 206.874C1003.42 206.963 1003.2 206.986 1002.99 206.941C1002.77 206.896 1002.58 206.784 1002.42 206.619C1002.27 206.455 1002.17 206.246 1002.12 206.018C1002.08 205.79 1002.1 205.553 1002.19 205.339C1002.27 205.124 1002.41 204.941 1002.59 204.811C1002.77 204.682 1002.98 204.613 1003.2 204.613C1003.35 204.613 1003.49 204.644 1003.62 204.703C1003.75 204.762 1003.88 204.849 1003.98 204.958C1004.08 205.067 1004.16 205.196 1004.22 205.339C1004.27 205.482 1004.3 205.634 1004.3 205.789Z" fill="#A715CB"/>
<path fill-rule="evenodd" clip-rule="evenodd" d="M1105.28 524.217C1105.28 524.45 1105.22 524.677 1105.1 524.87C1104.98 525.063 1104.8 525.214 1104.6 525.303C1104.4 525.392 1104.18 525.415 1103.97 525.37C1103.76 525.324 1103.56 525.212 1103.41 525.048C1103.25 524.884 1103.15 524.674 1103.11 524.447C1103.06 524.219 1103.09 523.982 1103.17 523.768C1103.25 523.553 1103.39 523.369 1103.57 523.24C1103.75 523.111 1103.97 523.042 1104.18 523.042C1104.47 523.042 1104.75 523.166 1104.96 523.386C1105.17 523.607 1105.28 523.906 1105.28 524.217Z" fill="#A715CB"/>
<path fill-rule="evenodd" clip-rule="evenodd" d="M1018.68 60.8313C1018.68 61.0638 1018.61 61.291 1018.49 61.4842C1018.37 61.6775 1018.2 61.8282 1018 61.9171C1017.8 62.0061 1017.58 62.0294 1017.36 61.9841C1017.15 61.9388 1016.96 61.8269 1016.8 61.6625C1016.65 61.4982 1016.54 61.2888 1016.5 61.0608C1016.46 60.8329 1016.48 60.5966 1016.56 60.3818C1016.65 60.1671 1016.79 59.9835 1016.97 59.8544C1017.15 59.7252 1017.36 59.6563 1017.58 59.6563C1017.87 59.6562 1018.15 59.78 1018.35 60.0004C1018.56 60.2208 1018.68 60.5196 1018.68 60.8313Z" fill="#A715CB"/>
<path fill-rule="evenodd" clip-rule="evenodd" d="M1231.97 360.405C1231.97 360.638 1231.9 360.865 1231.78 361.058C1231.66 361.251 1231.49 361.402 1231.29 361.491C1231.09 361.58 1230.87 361.603 1230.65 361.558C1230.44 361.512 1230.25 361.401 1230.09 361.236C1229.94 361.072 1229.83 360.863 1229.79 360.635C1229.75 360.407 1229.77 360.17 1229.86 359.956C1229.94 359.741 1230.08 359.557 1230.26 359.428C1230.44 359.299 1230.65 359.23 1230.87 359.23C1231.16 359.23 1231.44 359.354 1231.65 359.574C1231.85 359.795 1231.97 360.094 1231.97 360.405Z" fill="#A715CB"/>
<path fill-rule="evenodd" clip-rule="evenodd" d="M882.652 198.367C882.652 198.599 882.588 198.827 882.467 199.02C882.347 199.213 882.175 199.364 881.975 199.453C881.774 199.542 881.553 199.565 881.341 199.52C881.128 199.474 880.932 199.362 880.779 199.198C880.625 199.034 880.52 198.824 880.478 198.596C880.436 198.368 880.458 198.132 880.541 197.917C880.624 197.703 880.764 197.519 880.945 197.39C881.125 197.261 881.338 197.192 881.555 197.192C881.846 197.192 882.125 197.316 882.331 197.536C882.537 197.757 882.652 198.055 882.652 198.367Z" fill="#A715CB"/>
<path fill-rule="evenodd" clip-rule="evenodd" d="M907.549 31.261C907.549 31.5726 907.433 31.8715 907.227 32.0919C907.022 32.3123 906.742 32.4361 906.451 32.4361C906.16 32.4361 905.881 32.3123 905.675 32.0919C905.469 31.8716 905.354 31.5727 905.354 31.261C905.354 31.1067 905.382 30.9539 905.437 30.8113C905.492 30.6687 905.573 30.5391 905.675 30.43C905.777 30.3209 905.898 30.2344 906.031 30.1753C906.164 30.1163 906.307 30.0859 906.451 30.0859C906.595 30.0859 906.738 30.1163 906.871 30.1753C907.005 30.2344 907.126 30.3209 907.227 30.4301C907.329 30.5392 907.41 30.6687 907.465 30.8113C907.521 30.9539 907.549 31.1067 907.549 31.261Z" fill="#A715CB"/>
<path fill-rule="evenodd" clip-rule="evenodd" d="M1141.41 308.522C1141.41 308.754 1141.35 308.982 1141.23 309.175C1141.11 309.368 1140.94 309.519 1140.73 309.608C1140.53 309.697 1140.31 309.72 1140.1 309.675C1139.89 309.629 1139.69 309.517 1139.54 309.353C1139.38 309.189 1139.28 308.979 1139.24 308.751C1139.2 308.523 1139.22 308.287 1139.3 308.072C1139.38 307.857 1139.52 307.674 1139.7 307.545C1139.89 307.416 1140.1 307.347 1140.31 307.347C1140.61 307.347 1140.88 307.471 1141.09 307.691C1141.3 307.911 1141.41 308.21 1141.41 308.522Z" fill="#A715CB"/>
<path fill-rule="evenodd" clip-rule="evenodd" d="M1055.67 114.133C1055.67 114.365 1055.61 114.593 1055.49 114.786C1055.37 114.979 1055.2 115.13 1055 115.219C1054.8 115.308 1054.58 115.331 1054.36 115.286C1054.15 115.24 1053.95 115.128 1053.8 114.964C1053.65 114.8 1053.54 114.59 1053.5 114.362C1053.46 114.134 1053.48 113.898 1053.56 113.683C1053.65 113.468 1053.79 113.285 1053.97 113.156C1054.15 113.027 1054.36 112.958 1054.58 112.958C1054.87 112.958 1055.15 113.082 1055.35 113.302C1055.56 113.522 1055.67 113.821 1055.67 114.133Z" fill="#A715CB"/>
<path fill-rule="evenodd" clip-rule="evenodd" d="M1312.28 394.449C1312.28 394.681 1312.21 394.908 1312.09 395.101C1311.97 395.295 1311.8 395.445 1311.6 395.534C1311.4 395.623 1311.18 395.647 1310.97 395.601C1310.75 395.556 1310.56 395.444 1310.4 395.28C1310.25 395.115 1310.15 394.906 1310.1 394.678C1310.06 394.45 1310.08 394.214 1310.17 393.999C1310.25 393.784 1310.39 393.601 1310.57 393.471C1310.75 393.342 1310.96 393.273 1311.18 393.273C1311.47 393.273 1311.75 393.397 1311.96 393.618C1312.16 393.838 1312.28 394.137 1312.28 394.449Z" fill="#A715CB"/>
<path fill-rule="evenodd" clip-rule="evenodd" d="M1248.85 118.848C1248.85 119.08 1248.79 119.308 1248.67 119.501C1248.55 119.694 1248.37 119.845 1248.17 119.934C1247.97 120.023 1247.75 120.046 1247.54 120C1247.33 119.955 1247.13 119.843 1246.98 119.679C1246.82 119.514 1246.72 119.305 1246.68 119.077C1246.63 118.849 1246.66 118.613 1246.74 118.398C1246.82 118.183 1246.96 118 1247.14 117.871C1247.32 117.742 1247.54 117.673 1247.75 117.673C1247.9 117.673 1248.04 117.703 1248.17 117.762C1248.31 117.821 1248.43 117.908 1248.53 118.017C1248.63 118.126 1248.71 118.256 1248.77 118.398C1248.82 118.541 1248.85 118.694 1248.85 118.848Z" fill="#68B7E7"/>
<path fill-rule="evenodd" clip-rule="evenodd" d="M1302.67 128.612C1302.67 128.844 1302.61 129.072 1302.49 129.265C1302.36 129.458 1302.19 129.609 1301.99 129.698C1301.79 129.787 1301.57 129.81 1301.36 129.764C1301.15 129.719 1300.95 129.607 1300.8 129.443C1300.64 129.279 1300.54 129.069 1300.5 128.841C1300.45 128.613 1300.48 128.377 1300.56 128.162C1300.64 127.948 1300.78 127.764 1300.96 127.635C1301.14 127.506 1301.36 127.437 1301.57 127.437C1301.72 127.437 1301.86 127.467 1301.99 127.526C1302.13 127.585 1302.25 127.672 1302.35 127.781C1302.45 127.89 1302.53 128.02 1302.59 128.162C1302.64 128.305 1302.67 128.458 1302.67 128.612Z" fill="#A715CB"/>
<path fill-rule="evenodd" clip-rule="evenodd" d="M1176.3 433.223C1176.3 433.455 1176.24 433.682 1176.12 433.875C1176 434.069 1175.83 434.219 1175.62 434.308C1175.42 434.397 1175.2 434.42 1174.99 434.375C1174.78 434.33 1174.58 434.218 1174.43 434.054C1174.28 433.889 1174.17 433.68 1174.13 433.452C1174.09 433.224 1174.11 432.988 1174.19 432.773C1174.27 432.558 1174.41 432.375 1174.6 432.246C1174.78 432.117 1174.99 432.048 1175.2 432.048C1175.35 432.048 1175.49 432.078 1175.62 432.137C1175.76 432.196 1175.88 432.283 1175.98 432.392C1176.08 432.501 1176.16 432.63 1176.22 432.773C1176.27 432.916 1176.3 433.068 1176.3 433.223Z" fill="#A715CB"/>
<path fill-rule="evenodd" clip-rule="evenodd" d="M970.719 163.761C970.719 163.994 970.654 164.221 970.534 164.414C970.413 164.608 970.242 164.758 970.041 164.847C969.841 164.936 969.62 164.959 969.407 164.914C969.194 164.869 968.998 164.757 968.845 164.592C968.691 164.428 968.587 164.219 968.545 163.991C968.502 163.763 968.524 163.526 968.607 163.312C968.69 163.097 968.831 162.913 969.011 162.784C969.192 162.655 969.404 162.586 969.621 162.586C969.912 162.586 970.191 162.71 970.397 162.93C970.603 163.151 970.719 163.45 970.719 163.761Z" fill="#D839A6"/>
<path d="M1072.11 179.12C1072.71 179.12 1073.2 178.594 1073.2 177.945C1073.2 177.296 1072.71 176.77 1072.11 176.77C1071.5 176.77 1071.01 177.296 1071.01 177.945C1071.01 178.594 1071.5 179.12 1072.11 179.12Z" fill="#D839A6"/>
<path fill-rule="evenodd" clip-rule="evenodd" d="M1062.2 30.0816C1062.2 30.3932 1062.08 30.6921 1061.88 30.9125C1061.67 31.1328 1061.39 31.2566 1061.1 31.2566C1060.81 31.2566 1060.53 31.1328 1060.33 30.9125C1060.12 30.6921 1060 30.3932 1060 30.0816C1060 29.9272 1060.03 29.7744 1060.09 29.6318C1060.14 29.4892 1060.22 29.3597 1060.33 29.2505C1060.43 29.1414 1060.55 29.0548 1060.68 28.9957C1060.81 28.9367 1060.96 28.9063 1061.1 28.9062C1061.39 28.9063 1061.67 29.0301 1061.88 29.2505C1062.08 29.4709 1062.2 29.7699 1062.2 30.0816Z" fill="#D839A6"/>
<path fill-rule="evenodd" clip-rule="evenodd" d="M876.992 118.812C876.992 119.044 876.927 119.272 876.807 119.465C876.686 119.658 876.515 119.809 876.314 119.897C876.114 119.986 875.893 120.01 875.68 119.964C875.467 119.919 875.272 119.807 875.118 119.643C874.965 119.478 874.86 119.269 874.818 119.041C874.776 118.813 874.797 118.577 874.88 118.362C874.964 118.147 875.104 117.964 875.285 117.835C875.465 117.706 875.677 117.637 875.894 117.637C876.039 117.637 876.181 117.667 876.314 117.726C876.448 117.785 876.569 117.872 876.671 117.981C876.772 118.09 876.853 118.22 876.908 118.362C876.964 118.505 876.992 118.658 876.992 118.812Z" fill="#D839A6"/>
<path fill-rule="evenodd" clip-rule="evenodd" d="M1139.01 348.608C1139.01 348.84 1138.95 349.068 1138.83 349.261C1138.71 349.454 1138.53 349.605 1138.33 349.694C1138.13 349.783 1137.91 349.806 1137.7 349.76C1137.49 349.715 1137.29 349.603 1137.14 349.439C1136.98 349.275 1136.88 349.065 1136.84 348.837C1136.8 348.609 1136.82 348.373 1136.9 348.158C1136.98 347.944 1137.12 347.76 1137.3 347.631C1137.48 347.502 1137.7 347.433 1137.91 347.433C1138.21 347.433 1138.48 347.557 1138.69 347.777C1138.9 347.997 1139.01 348.296 1139.01 348.608Z" fill="#B7FFFF"/>
<path fill-rule="evenodd" clip-rule="evenodd" d="M1093.59 72.7612C1093.59 72.9937 1093.53 73.2209 1093.41 73.4141C1093.29 73.6074 1093.12 73.758 1092.92 73.8469C1092.72 73.9359 1092.49 73.9591 1092.28 73.9138C1092.07 73.8684 1091.87 73.7565 1091.72 73.5922C1091.57 73.4278 1091.46 73.2184 1091.42 72.9905C1091.38 72.7625 1091.4 72.5262 1091.48 72.3115C1091.57 72.0967 1091.71 71.9132 1091.89 71.7841C1092.07 71.6549 1092.28 71.586 1092.5 71.5859C1092.64 71.5859 1092.78 71.6163 1092.92 71.6754C1093.05 71.7345 1093.17 71.821 1093.27 71.9302C1093.37 72.0393 1093.46 72.1689 1093.51 72.3115C1093.57 72.4541 1093.59 72.6069 1093.59 72.7612Z" fill="#D839A6"/>
<path fill-rule="evenodd" clip-rule="evenodd" d="M1301.57 233.504C1301.57 233.736 1301.51 233.964 1301.39 234.157C1301.27 234.35 1301.1 234.501 1300.9 234.59C1300.7 234.678 1300.48 234.702 1300.26 234.656C1300.05 234.611 1299.85 234.499 1299.7 234.335C1299.55 234.17 1299.44 233.961 1299.4 233.733C1299.36 233.505 1299.38 233.269 1299.46 233.054C1299.55 232.84 1299.69 232.656 1299.87 232.527C1300.05 232.398 1300.26 232.329 1300.48 232.329C1300.77 232.329 1301.05 232.453 1301.25 232.673C1301.46 232.893 1301.57 233.192 1301.57 233.504Z" fill="#D839A6"/>
<path fill-rule="evenodd" clip-rule="evenodd" d="M1078.81 352.468C1078.81 352.7 1078.74 352.928 1078.62 353.121C1078.5 353.314 1078.33 353.465 1078.13 353.554C1077.93 353.643 1077.71 353.666 1077.5 353.621C1077.28 353.575 1077.09 353.463 1076.93 353.299C1076.78 353.135 1076.68 352.925 1076.63 352.697C1076.59 352.469 1076.61 352.233 1076.7 352.018C1076.78 351.804 1076.92 351.62 1077.1 351.491C1077.28 351.362 1077.49 351.293 1077.71 351.293C1078 351.293 1078.28 351.417 1078.49 351.637C1078.69 351.858 1078.81 352.156 1078.81 352.468Z" fill="#D839A6"/>
<path fill-rule="evenodd" clip-rule="evenodd" d="M927.309 362.719C927.309 362.951 927.244 363.179 927.124 363.372C927.003 363.565 926.832 363.716 926.631 363.805C926.43 363.893 926.21 363.917 925.997 363.871C925.784 363.826 925.588 363.714 925.435 363.55C925.281 363.385 925.177 363.176 925.134 362.948C925.092 362.72 925.114 362.484 925.197 362.269C925.28 362.054 925.421 361.871 925.601 361.742C925.782 361.613 925.994 361.544 926.211 361.544C926.355 361.544 926.498 361.574 926.631 361.633C926.764 361.692 926.885 361.779 926.987 361.888C927.089 361.997 927.17 362.127 927.225 362.269C927.28 362.412 927.309 362.565 927.309 362.719Z" fill="#D839A6"/>
<path fill-rule="evenodd" clip-rule="evenodd" d="M1300.48 12.2922C1300.48 12.4466 1300.45 12.5994 1300.39 12.742C1300.34 12.8846 1300.26 13.0141 1300.15 13.1233C1300.05 13.2324 1299.93 13.319 1299.8 13.3781C1299.67 13.4371 1299.52 13.4675 1299.38 13.4675C1299.23 13.4676 1299.09 13.4372 1298.96 13.3781C1298.83 13.3191 1298.7 13.2325 1298.6 13.1234C1298.5 13.0142 1298.42 12.8846 1298.36 12.742C1298.31 12.5994 1298.28 12.4466 1298.28 12.2922C1298.28 12.1379 1298.31 11.9851 1298.36 11.8425C1298.42 11.6999 1298.5 11.5704 1298.6 11.4613C1298.7 11.3522 1298.83 11.2656 1298.96 11.2066C1299.09 11.1475 1299.23 11.1172 1299.38 11.1172C1299.67 11.1172 1299.95 11.241 1300.15 11.4614C1300.36 11.6817 1300.48 11.9806 1300.48 12.2922Z" fill="#D839A6"/>
<path fill-rule="evenodd" clip-rule="evenodd" d="M1226.04 96.343C1226.04 96.5755 1225.98 96.8027 1225.86 96.996C1225.74 97.1893 1225.57 97.3399 1225.37 97.4289C1225.16 97.5178 1224.94 97.5411 1224.73 97.4958C1224.52 97.4504 1224.32 97.3385 1224.17 97.1741C1224.02 97.0098 1223.91 96.8004 1223.87 96.5724C1223.83 96.3444 1223.85 96.1081 1223.93 95.8934C1224.01 95.6786 1224.16 95.4951 1224.34 95.366C1224.52 95.2368 1224.73 95.1679 1224.95 95.168C1225.24 95.168 1225.52 95.2918 1225.72 95.5122C1225.93 95.7326 1226.04 96.0314 1226.04 96.343Z" fill="#D839A6"/>
<path fill-rule="evenodd" clip-rule="evenodd" d="M1188.8 163.761C1188.8 163.994 1188.73 164.221 1188.61 164.414C1188.49 164.608 1188.32 164.758 1188.12 164.847C1187.92 164.936 1187.7 164.959 1187.49 164.914C1187.27 164.869 1187.08 164.757 1186.92 164.593C1186.77 164.428 1186.67 164.219 1186.62 163.991C1186.58 163.763 1186.6 163.527 1186.69 163.312C1186.77 163.097 1186.91 162.914 1187.09 162.784C1187.27 162.655 1187.48 162.586 1187.7 162.586C1187.84 162.586 1187.99 162.617 1188.12 162.676C1188.25 162.735 1188.37 162.821 1188.48 162.93C1188.58 163.04 1188.66 163.169 1188.71 163.312C1188.77 163.454 1188.8 163.607 1188.8 163.761Z" fill="#D839A6"/>
<path fill-rule="evenodd" clip-rule="evenodd" d="M1075.39 164.136C1075.39 164.368 1075.32 164.596 1075.2 164.789C1075.08 164.982 1074.91 165.133 1074.71 165.222C1074.51 165.311 1074.29 165.334 1074.07 165.289C1073.86 165.243 1073.67 165.131 1073.51 164.967C1073.36 164.803 1073.25 164.593 1073.21 164.365C1073.17 164.137 1073.19 163.901 1073.27 163.686C1073.36 163.472 1073.5 163.288 1073.68 163.159C1073.86 163.03 1074.07 162.961 1074.29 162.961C1074.43 162.961 1074.58 162.991 1074.71 163.05C1074.84 163.109 1074.96 163.196 1075.07 163.305C1075.17 163.414 1075.25 163.544 1075.3 163.686C1075.36 163.829 1075.39 163.982 1075.39 164.136Z" fill="#D839A6"/>
<path fill-rule="evenodd" clip-rule="evenodd" d="M1110.69 369.119C1110.69 369.352 1110.62 369.579 1110.5 369.772C1110.38 369.966 1110.21 370.116 1110.01 370.205C1109.81 370.294 1109.59 370.317 1109.38 370.272C1109.16 370.227 1108.97 370.115 1108.81 369.95C1108.66 369.786 1108.56 369.577 1108.51 369.349C1108.47 369.121 1108.49 368.884 1108.58 368.67C1108.66 368.455 1108.8 368.271 1108.98 368.142C1109.16 368.013 1109.37 367.944 1109.59 367.944C1109.88 367.944 1110.16 368.068 1110.37 368.288C1110.57 368.509 1110.69 368.808 1110.69 369.119Z" fill="#D839A6"/>
<path fill-rule="evenodd" clip-rule="evenodd" d="M1079.92 267.648C1079.92 267.88 1079.86 268.107 1079.74 268.301C1079.62 268.494 1079.44 268.645 1079.24 268.734C1079.04 268.823 1078.82 268.846 1078.61 268.801C1078.4 268.755 1078.2 268.643 1078.05 268.479C1077.89 268.315 1077.79 268.105 1077.75 267.877C1077.71 267.649 1077.73 267.413 1077.81 267.198C1077.89 266.983 1078.03 266.8 1078.21 266.671C1078.39 266.542 1078.61 266.473 1078.82 266.473C1079.12 266.473 1079.39 266.596 1079.6 266.817C1079.81 267.037 1079.92 267.336 1079.92 267.648Z" fill="#68B7E7"/>
<path fill-rule="evenodd" clip-rule="evenodd" d="M1010.82 219.538C1010.82 219.771 1010.75 219.998 1010.63 220.191C1010.51 220.385 1010.34 220.535 1010.14 220.624C1009.94 220.713 1009.72 220.737 1009.5 220.691C1009.29 220.646 1009.1 220.534 1008.94 220.37C1008.79 220.205 1008.68 219.996 1008.64 219.768C1008.6 219.54 1008.62 219.303 1008.7 219.089C1008.79 218.874 1008.93 218.69 1009.11 218.561C1009.29 218.432 1009.5 218.363 1009.72 218.363C1010.01 218.363 1010.29 218.487 1010.5 218.708C1010.7 218.928 1010.82 219.227 1010.82 219.538Z" fill="#A715CB"/>
<path fill-rule="evenodd" clip-rule="evenodd" d="M958.922 192.749C958.922 192.981 958.857 193.208 958.737 193.402C958.616 193.595 958.445 193.745 958.244 193.834C958.044 193.923 957.823 193.946 957.61 193.901C957.397 193.856 957.201 193.744 957.048 193.579C956.894 193.415 956.79 193.206 956.748 192.978C956.705 192.75 956.727 192.514 956.81 192.299C956.893 192.084 957.034 191.901 957.214 191.772C957.395 191.642 957.607 191.574 957.824 191.574C957.968 191.574 958.111 191.604 958.244 191.663C958.378 191.722 958.499 191.809 958.601 191.918C958.702 192.027 958.783 192.156 958.838 192.299C958.894 192.442 958.922 192.595 958.922 192.749Z" fill="#A715CB"/>
<path fill-rule="evenodd" clip-rule="evenodd" d="M894.461 139.054C894.461 139.286 894.397 139.514 894.276 139.707C894.156 139.9 893.984 140.051 893.784 140.14C893.583 140.229 893.362 140.252 893.149 140.207C892.936 140.161 892.741 140.049 892.587 139.885C892.434 139.721 892.329 139.511 892.287 139.283C892.244 139.055 892.266 138.819 892.349 138.604C892.432 138.39 892.573 138.206 892.753 138.077C892.934 137.948 893.146 137.879 893.363 137.879C893.654 137.879 893.934 138.003 894.139 138.223C894.345 138.443 894.461 138.742 894.461 139.054Z" fill="#EA3A60"/>
<path fill-rule="evenodd" clip-rule="evenodd" d="M828.086 51.1633C828.086 51.3177 828.057 51.4705 828.002 51.6131C827.947 51.7557 827.866 51.8852 827.764 51.9944C827.662 52.1035 827.541 52.1901 827.408 52.2492C827.275 52.3082 827.132 52.3386 826.988 52.3387C826.844 52.3386 826.701 52.3082 826.568 52.2492C826.435 52.1901 826.314 52.1035 826.212 51.9944C826.11 51.8852 826.029 51.7557 825.974 51.6131C825.919 51.4705 825.891 51.3177 825.891 51.1633C825.891 50.8517 826.006 50.5528 826.212 50.3324C826.418 50.1121 826.697 49.9883 826.988 49.9883C827.279 49.9883 827.558 50.1121 827.764 50.3324C827.97 50.5528 828.086 50.8517 828.086 51.1633Z" fill="#EA3A60"/>
<path fill-rule="evenodd" clip-rule="evenodd" d="M957.824 10.9761C957.824 11.2877 957.708 11.5866 957.503 11.807C957.297 12.0273 957.018 12.1511 956.727 12.1511C956.436 12.1512 956.156 12.0274 955.95 11.807C955.745 11.5866 955.629 11.2878 955.629 10.9761C955.629 10.6644 955.745 10.3655 955.95 10.1451C956.156 9.92467 956.435 9.80083 956.727 9.80078C957.018 9.80083 957.297 9.92469 957.503 10.1451C957.709 10.3655 957.824 10.6644 957.824 10.9761Z" fill="#EA3A60"/>
<path fill-rule="evenodd" clip-rule="evenodd" d="M846.567 316.207C846.567 316.439 846.502 316.667 846.382 316.86C846.261 317.053 846.09 317.204 845.889 317.293C845.688 317.382 845.468 317.405 845.255 317.36C845.042 317.314 844.846 317.202 844.693 317.038C844.539 316.874 844.435 316.664 844.392 316.436C844.35 316.208 844.372 315.972 844.455 315.757C844.538 315.543 844.678 315.359 844.859 315.23C845.039 315.101 845.252 315.032 845.469 315.032C845.76 315.032 846.039 315.156 846.245 315.376C846.451 315.596 846.566 315.895 846.567 316.207Z" fill="#EA3A60"/>
<path fill-rule="evenodd" clip-rule="evenodd" d="M1027.59 218.363C1027.59 218.595 1027.52 218.822 1027.4 219.016C1027.28 219.209 1027.11 219.36 1026.91 219.448C1026.71 219.537 1026.49 219.561 1026.27 219.515C1026.06 219.47 1025.87 219.358 1025.71 219.194C1025.56 219.029 1025.45 218.82 1025.41 218.592C1025.37 218.364 1025.39 218.128 1025.47 217.913C1025.56 217.698 1025.7 217.515 1025.88 217.386C1026.06 217.256 1026.27 217.188 1026.49 217.188C1026.63 217.187 1026.78 217.218 1026.91 217.277C1027.04 217.336 1027.16 217.423 1027.26 217.532C1027.37 217.641 1027.45 217.77 1027.5 217.913C1027.56 218.056 1027.59 218.208 1027.59 218.363Z" fill="#EA3A60"/>
<path fill-rule="evenodd" clip-rule="evenodd" d="M1036.67 1.17532C1036.67 1.32963 1036.64 1.48243 1036.59 1.625C1036.53 1.76756 1036.45 1.8971 1036.35 2.00622C1036.25 2.11533 1036.13 2.20189 1035.99 2.26094C1035.86 2.31999 1035.72 2.35038 1035.57 2.35038C1035.28 2.3504 1035 2.22661 1034.8 2.00625C1034.59 1.78589 1034.47 1.487 1034.47 1.17532C1034.47 0.863622 1034.59 0.564699 1034.8 0.344294C1035 0.123889 1035.28 4.68314e-05 1035.57 0C1035.86 5.35313e-05 1036.14 0.123907 1036.35 0.344318C1036.55 0.564728 1036.67 0.863648 1036.67 1.17532Z" fill="#EA3A60"/>
<path fill-rule="evenodd" clip-rule="evenodd" d="M786.221 126.378C786.221 126.61 786.157 126.838 786.036 127.031C785.915 127.224 785.744 127.375 785.543 127.464C785.343 127.553 785.122 127.576 784.909 127.531C784.696 127.485 784.5 127.373 784.347 127.209C784.193 127.045 784.089 126.835 784.046 126.607C784.004 126.379 784.026 126.143 784.109 125.928C784.192 125.713 784.333 125.53 784.513 125.401C784.694 125.272 784.906 125.203 785.123 125.203C785.414 125.203 785.694 125.327 785.899 125.547C786.105 125.767 786.221 126.066 786.221 126.378Z" fill="#A715CB"/>
<path fill-rule="evenodd" clip-rule="evenodd" d="M844.183 187.858C844.183 188.091 844.119 188.318 843.998 188.511C843.878 188.704 843.706 188.855 843.506 188.944C843.305 189.033 843.085 189.056 842.872 189.011C842.659 188.965 842.463 188.853 842.31 188.689C842.156 188.525 842.052 188.315 842.009 188.087C841.967 187.859 841.989 187.623 842.072 187.408C842.155 187.194 842.296 187.01 842.476 186.881C842.657 186.752 842.869 186.683 843.086 186.683C843.377 186.683 843.656 186.807 843.862 187.027C844.068 187.248 844.183 187.547 844.183 187.858Z" fill="#A715CB"/>
<path fill-rule="evenodd" clip-rule="evenodd" d="M858.562 42.9013C858.562 43.2129 858.447 43.5118 858.241 43.7322C858.035 43.9525 857.756 44.0763 857.465 44.0763C857.174 44.0764 856.895 43.9526 856.689 43.7322C856.483 43.5118 856.367 43.2129 856.367 42.9013C856.367 42.5896 856.483 42.2906 856.689 42.0702C856.895 41.8498 857.174 41.726 857.465 41.726C857.609 41.726 857.752 41.7564 857.885 41.8154C858.018 41.8745 858.139 41.9611 858.241 42.0702C858.343 42.1794 858.424 42.3089 858.479 42.4515C858.534 42.5941 858.562 42.7469 858.562 42.9013Z" fill="#A715CB"/>
<path fill-rule="evenodd" clip-rule="evenodd" d="M852.52 352.367C852.52 352.599 852.455 352.826 852.335 353.02C852.214 353.213 852.042 353.363 851.842 353.452C851.641 353.541 851.421 353.564 851.208 353.519C850.995 353.474 850.799 353.362 850.646 353.197C850.492 353.033 850.388 352.824 850.345 352.596C850.303 352.368 850.325 352.132 850.408 351.917C850.491 351.702 850.632 351.519 850.812 351.39C850.992 351.26 851.205 351.191 851.422 351.191C851.713 351.191 851.992 351.315 852.198 351.536C852.404 351.756 852.52 352.055 852.52 352.367Z" fill="#A715CB"/>
<path fill-rule="evenodd" clip-rule="evenodd" d="M722.537 180.437C722.537 180.669 722.473 180.896 722.352 181.09C722.232 181.283 722.06 181.433 721.86 181.522C721.659 181.611 721.438 181.635 721.225 181.589C721.013 181.544 720.817 181.432 720.663 181.268C720.51 181.103 720.405 180.894 720.363 180.666C720.321 180.438 720.342 180.202 720.425 179.987C720.508 179.772 720.649 179.589 720.83 179.46C721.01 179.331 721.222 179.262 721.439 179.262C721.583 179.262 721.726 179.292 721.859 179.351C721.993 179.41 722.114 179.497 722.216 179.606C722.318 179.715 722.398 179.844 722.454 179.987C722.509 180.129 722.537 180.282 722.537 180.437Z" fill="#A715CB"/>
<path fill-rule="evenodd" clip-rule="evenodd" d="M747.434 13.3239C747.434 13.6356 747.318 13.9345 747.112 14.1549C746.906 14.3753 746.627 14.4992 746.336 14.4992C746.045 14.4992 745.766 14.3754 745.56 14.155C745.354 13.9345 745.238 13.6356 745.238 13.3239C745.238 13.1695 745.267 13.0167 745.322 12.8742C745.377 12.7316 745.458 12.602 745.56 12.4929C745.662 12.3838 745.783 12.2972 745.916 12.2382C746.049 12.1792 746.192 12.1488 746.336 12.1488C746.627 12.1488 746.906 12.2726 747.112 12.493C747.318 12.7133 747.434 13.0122 747.434 13.3239Z" fill="#A715CB"/>
<path fill-rule="evenodd" clip-rule="evenodd" d="M895.559 96.1984C895.559 96.4308 895.494 96.6581 895.374 96.8513C895.253 97.0446 895.082 97.1953 894.881 97.2842C894.681 97.3732 894.46 97.3965 894.247 97.3511C894.034 97.3058 893.838 97.1939 893.685 97.0295C893.531 96.8651 893.427 96.6557 893.384 96.4277C893.342 96.1998 893.364 95.9634 893.447 95.7487C893.53 95.534 893.671 95.3504 893.851 95.2213C894.032 95.0922 894.244 95.0233 894.461 95.0233C894.752 95.0233 895.031 95.1471 895.237 95.3675C895.443 95.5879 895.559 95.8867 895.559 96.1984Z" fill="#A715CB"/>
<path fill-rule="evenodd" clip-rule="evenodd" d="M810.606 145.823C810.606 146.055 810.541 146.282 810.421 146.476C810.3 146.669 810.129 146.819 809.928 146.908C809.727 146.997 809.507 147.021 809.294 146.975C809.081 146.93 808.885 146.818 808.732 146.654C808.578 146.489 808.474 146.28 808.431 146.052C808.389 145.824 808.411 145.588 808.494 145.373C808.577 145.158 808.718 144.975 808.898 144.846C809.079 144.716 809.291 144.648 809.508 144.648C809.799 144.648 810.078 144.771 810.284 144.992C810.49 145.212 810.606 145.511 810.606 145.823Z" fill="#D839A6"/>
<path fill-rule="evenodd" clip-rule="evenodd" d="M902.082 12.1525C902.082 12.4641 901.967 12.763 901.761 12.9834C901.555 13.2038 901.276 13.3275 900.984 13.3275C900.693 13.3275 900.414 13.2037 900.208 12.9834C900.002 12.763 899.887 12.4641 899.887 12.1525C899.887 11.8408 900.002 11.5419 900.208 11.3216C900.414 11.1012 900.693 10.9774 900.984 10.9774C901.276 10.9774 901.555 11.1012 901.761 11.3215C901.967 11.5419 902.082 11.8408 902.082 12.1525Z" fill="#D839A6"/>
<path fill-rule="evenodd" clip-rule="evenodd" d="M978.897 330.679C978.897 330.911 978.832 331.139 978.712 331.332C978.591 331.525 978.42 331.676 978.219 331.765C978.019 331.854 977.798 331.877 977.585 331.832C977.372 331.786 977.176 331.675 977.023 331.51C976.869 331.346 976.765 331.136 976.722 330.908C976.68 330.681 976.702 330.444 976.785 330.229C976.868 330.015 977.008 329.831 977.189 329.702C977.369 329.573 977.582 329.504 977.799 329.504C977.943 329.504 978.086 329.534 978.219 329.593C978.352 329.652 978.473 329.739 978.575 329.848C978.677 329.957 978.758 330.087 978.813 330.229C978.868 330.372 978.897 330.525 978.897 330.679Z" fill="#B7FFFF"/>
<path fill-rule="evenodd" clip-rule="evenodd" d="M918.693 334.535C918.694 334.767 918.629 334.994 918.509 335.188C918.388 335.381 918.217 335.532 918.016 335.62C917.815 335.709 917.595 335.733 917.382 335.687C917.169 335.642 916.973 335.53 916.82 335.366C916.666 335.202 916.562 334.992 916.519 334.764C916.477 334.536 916.498 334.3 916.582 334.085C916.665 333.87 916.805 333.687 916.986 333.558C917.166 333.429 917.379 333.36 917.596 333.36C917.887 333.36 918.166 333.483 918.372 333.704C918.578 333.924 918.693 334.223 918.693 334.535Z" fill="#D839A6"/>
<path fill-rule="evenodd" clip-rule="evenodd" d="M767.192 344.784C767.192 345.017 767.127 345.244 767.007 345.437C766.886 345.63 766.715 345.781 766.514 345.87C766.313 345.959 766.093 345.982 765.88 345.937C765.667 345.892 765.471 345.78 765.318 345.615C765.164 345.451 765.06 345.242 765.017 345.014C764.975 344.786 764.997 344.549 765.08 344.335C765.163 344.12 765.303 343.936 765.484 343.807C765.664 343.678 765.877 343.609 766.094 343.609C766.238 343.609 766.381 343.639 766.514 343.699C766.647 343.758 766.768 343.844 766.87 343.953C766.972 344.062 767.053 344.192 767.108 344.334C767.163 344.477 767.192 344.63 767.192 344.784Z" fill="#D839A6"/>
<path fill-rule="evenodd" clip-rule="evenodd" d="M1065.93 78.4133C1065.93 78.6458 1065.87 78.873 1065.74 79.0663C1065.62 79.2596 1065.45 79.4102 1065.25 79.4992C1065.05 79.5881 1064.83 79.6114 1064.62 79.5661C1064.41 79.5207 1064.21 79.4088 1064.06 79.2445C1063.9 79.0801 1063.8 78.8707 1063.76 78.6427C1063.71 78.4147 1063.73 78.1784 1063.82 77.9637C1063.9 77.7489 1064.04 77.5654 1064.22 77.4363C1064.4 77.3072 1064.62 77.2383 1064.83 77.2383C1064.98 77.2383 1065.12 77.2686 1065.25 77.3277C1065.39 77.3867 1065.51 77.4733 1065.61 77.5824C1065.71 77.6915 1065.79 77.821 1065.85 77.9636C1065.9 78.1062 1065.93 78.259 1065.93 78.4133Z" fill="#D839A6"/>
<path fill-rule="evenodd" clip-rule="evenodd" d="M1028.68 145.823C1028.68 146.055 1028.62 146.282 1028.5 146.476C1028.38 146.669 1028.21 146.819 1028.01 146.908C1027.81 146.997 1027.58 147.021 1027.37 146.975C1027.16 146.93 1026.96 146.818 1026.81 146.654C1026.66 146.489 1026.55 146.28 1026.51 146.052C1026.47 145.824 1026.49 145.588 1026.57 145.373C1026.65 145.158 1026.8 144.975 1026.98 144.846C1027.16 144.716 1027.37 144.648 1027.59 144.648C1027.88 144.648 1028.16 144.771 1028.36 144.992C1028.57 145.212 1028.68 145.511 1028.68 145.823Z" fill="#D839A6"/>
<path fill-rule="evenodd" clip-rule="evenodd" d="M918.818 154.487C918.818 154.719 918.754 154.946 918.634 155.139C918.513 155.333 918.341 155.483 918.141 155.572C917.94 155.661 917.72 155.685 917.507 155.639C917.294 155.594 917.098 155.482 916.945 155.318C916.791 155.153 916.687 154.944 916.644 154.716C916.602 154.488 916.623 154.252 916.707 154.037C916.79 153.822 916.93 153.639 917.111 153.51C917.291 153.38 917.504 153.312 917.721 153.312C917.865 153.311 918.008 153.342 918.141 153.401C918.274 153.46 918.395 153.546 918.497 153.656C918.599 153.765 918.68 153.894 918.735 154.037C918.79 154.179 918.818 154.332 918.818 154.487Z" fill="#D839A6"/>
<path fill-rule="evenodd" clip-rule="evenodd" d="M950.57 351.191C950.57 351.423 950.506 351.65 950.385 351.844C950.265 352.037 950.093 352.188 949.893 352.277C949.692 352.366 949.472 352.389 949.259 352.344C949.046 352.298 948.85 352.186 948.697 352.022C948.543 351.858 948.438 351.648 948.396 351.42C948.354 351.192 948.375 350.956 948.459 350.741C948.542 350.526 948.682 350.343 948.863 350.214C949.043 350.085 949.255 350.016 949.473 350.016C949.617 350.016 949.759 350.046 949.893 350.105C950.026 350.164 950.147 350.251 950.249 350.36C950.351 350.469 950.432 350.598 950.487 350.741C950.542 350.884 950.57 351.036 950.57 351.191Z" fill="#D839A6"/>
<path fill-rule="evenodd" clip-rule="evenodd" d="M1225.8 345.562C1225.8 345.795 1225.74 346.022 1225.62 346.215C1225.5 346.409 1225.33 346.559 1225.13 346.648C1224.93 346.737 1224.71 346.76 1224.49 346.715C1224.28 346.67 1224.08 346.558 1223.93 346.393C1223.78 346.229 1223.67 346.02 1223.63 345.792C1223.59 345.564 1223.61 345.327 1223.69 345.113C1223.78 344.898 1223.92 344.714 1224.1 344.585C1224.28 344.456 1224.49 344.387 1224.71 344.387C1225 344.387 1225.28 344.511 1225.48 344.731C1225.69 344.952 1225.8 345.251 1225.8 345.562Z" fill="#D839A6"/>
<path fill-rule="evenodd" clip-rule="evenodd" d="M1379.2 197.195C1379.2 197.427 1379.13 197.654 1379.01 197.847C1378.89 198.041 1378.72 198.191 1378.52 198.28C1378.32 198.369 1378.1 198.393 1377.88 198.347C1377.67 198.302 1377.48 198.19 1377.32 198.026C1377.17 197.861 1377.06 197.652 1377.02 197.424C1376.98 197.196 1377 196.96 1377.08 196.745C1377.17 196.53 1377.31 196.347 1377.49 196.218C1377.67 196.089 1377.88 196.02 1378.1 196.02C1378.39 196.02 1378.67 196.143 1378.87 196.364C1379.08 196.584 1379.2 196.883 1379.2 197.195Z" fill="#A715CB"/>
<path fill-rule="evenodd" clip-rule="evenodd" d="M1288.64 145.32C1288.64 145.552 1288.58 145.779 1288.46 145.972C1288.34 146.166 1288.16 146.316 1287.96 146.405C1287.76 146.494 1287.54 146.517 1287.33 146.472C1287.12 146.427 1286.92 146.315 1286.77 146.15C1286.61 145.986 1286.51 145.777 1286.47 145.549C1286.42 145.321 1286.45 145.085 1286.53 144.87C1286.61 144.655 1286.75 144.472 1286.93 144.343C1287.11 144.213 1287.33 144.145 1287.54 144.145C1287.83 144.145 1288.11 144.268 1288.32 144.489C1288.52 144.709 1288.64 145.008 1288.64 145.32Z" fill="#A715CB"/>
<path fill-rule="evenodd" clip-rule="evenodd" d="M808.078 26.1671C808.078 26.3214 808.05 26.4743 807.995 26.6168C807.939 26.7594 807.859 26.889 807.757 26.9981C807.655 27.1072 807.534 27.1938 807.4 27.2528C807.267 27.3118 807.125 27.3422 806.98 27.3422C806.689 27.3422 806.41 27.2184 806.204 26.998C805.998 26.7776 805.883 26.4788 805.883 26.1671C805.883 25.8555 805.998 25.5566 806.204 25.3362C806.41 25.1159 806.689 24.9921 806.98 24.9921C807.125 24.992 807.267 25.0224 807.4 25.0815C807.534 25.1405 807.655 25.227 807.757 25.3362C807.859 25.4453 807.939 25.5748 807.995 25.7174C808.05 25.86 808.078 26.0128 808.078 26.1671Z" fill="#A715CB"/>
<path fill-rule="evenodd" clip-rule="evenodd" d="M1211.27 230.109C1211.27 230.341 1211.21 230.568 1211.08 230.762C1210.96 230.955 1210.79 231.105 1210.59 231.194C1210.39 231.283 1210.17 231.307 1209.96 231.261C1209.75 231.216 1209.55 231.104 1209.4 230.94C1209.24 230.775 1209.14 230.566 1209.1 230.338C1209.05 230.11 1209.07 229.874 1209.16 229.659C1209.24 229.444 1209.38 229.261 1209.56 229.132C1209.74 229.003 1209.95 228.934 1210.17 228.934C1210.46 228.934 1210.74 229.057 1210.95 229.278C1211.15 229.498 1211.27 229.797 1211.27 230.109Z" fill="#A715CB"/>
</svg>
