<svg width="22" height="22" viewBox="0 0 22 22" fill="none" xmlns="http://www.w3.org/2000/svg">
<path d="M7.59933 18.5656C14.5174 18.5656 18.3014 12.8337 18.3014 7.86349C18.3014 7.70032 18.3014 7.53807 18.2904 7.37766C19.0267 6.84464 19.6621 6.18472 20.1668 5.42882C19.4803 5.73316 18.752 5.93277 18.0062 6.02099C18.7915 5.5508 19.3792 4.81131 19.6599 3.94016C18.9217 4.37822 18.1141 4.68699 17.272 4.85316C16.7049 4.24978 15.9548 3.85017 15.1377 3.71622C14.3205 3.58227 13.4821 3.72144 12.752 4.11219C12.022 4.50293 11.4412 5.12346 11.0994 5.87768C10.7577 6.6319 10.6742 7.47774 10.8617 8.28424C9.36628 8.2093 7.9033 7.82071 6.56775 7.1437C5.23221 6.46669 4.05396 5.51639 3.1095 4.35449C2.62854 5.18243 2.4812 6.16254 2.69749 7.09529C2.91377 8.02804 3.47742 8.8433 4.27366 9.37507C3.67532 9.35775 3.08991 9.19678 2.56683 8.90574V8.95341C2.56719 9.82176 2.86786 10.6633 3.41786 11.3352C3.96786 12.0072 4.73334 12.4683 5.5845 12.6402C5.03066 12.7912 4.44956 12.8132 3.88591 12.7044C4.12623 13.4519 4.5942 14.1056 5.22436 14.5741C5.85452 15.0425 6.61535 15.3022 7.40041 15.3169C6.62044 15.9298 5.7273 16.3828 4.77208 16.6502C3.81686 16.9176 2.81829 16.9941 1.8335 16.8752C3.55372 17.9792 5.55534 18.5647 7.59933 18.5619" fill="#B8B2B3"/>
</svg>
