<svg width="22" height="23" viewBox="0 0 22 23" fill="none" xmlns="http://www.w3.org/2000/svg">
<path d="M14.3 1.70831H3.49998C2.17449 1.70831 1.09998 2.78283 1.09998 4.10831V5.30831M1.09998 5.30831V19.1083C1.09998 20.4338 2.17449 21.5083 3.49998 21.5083H18.5C19.8255 21.5083 20.9 20.4338 20.9 19.1083V7.70831C20.9 6.38283 19.8255 5.30831 18.5 5.30831H1.09998ZM17.6 13.4083C17.6 14.2367 16.9284 14.9083 16.1 14.9083C15.2715 14.9083 14.6 14.2367 14.6 13.4083C14.6 12.5799 15.2715 11.9083 16.1 11.9083C16.9284 11.9083 17.6 12.5799 17.6 13.4083Z" stroke="white" stroke-width="1.5" stroke-linecap="round" stroke-linejoin="round"/>
</svg>
